<svg width="240" height="36" viewBox="0 0 240 36" fill="none" xmlns="http://www.w3.org/2000/svg">
<path d="M65.1 19.76V25H62.28V10.88H67.42C69.0867 10.88 70.34 11.28 71.18 12.08C72.0333 12.88 72.46 13.9667 72.46 15.34C72.46 16.6867 72.02 17.76 71.14 18.56C70.2733 19.36 69.0333 19.76 67.42 19.76H65.1ZM67.12 17.5C68.7733 17.5 69.6 16.78 69.6 15.34C69.6 14.6333 69.4067 14.0933 69.02 13.72C68.6333 13.3467 68 13.16 67.12 13.16H65.1V17.5H67.12ZM77.0117 10.88V19.16C77.0117 20.2667 77.2517 21.1 77.7317 21.66C78.2251 22.2067 78.9317 22.48 79.8517 22.48C80.7584 22.48 81.4517 22.2067 81.9317 21.66C82.4251 21.1 82.6717 20.2667 82.6717 19.16V10.88H85.4717V19.16C85.4717 20.4667 85.2251 21.5733 84.7317 22.48C84.2517 23.3733 83.5784 24.04 82.7117 24.48C81.8584 24.92 80.8851 25.14 79.7917 25.14C78.0984 25.14 76.7451 24.6333 75.7317 23.62C74.7184 22.6067 74.2117 21.12 74.2117 19.16V10.88H77.0117ZM95.3041 25L92.0041 19.5H90.7641V25H87.9441V10.88H93.3241C94.9641 10.88 96.2107 11.28 97.0641 12.08C97.9307 12.88 98.3641 13.9333 98.3641 15.24C98.3641 16.3067 98.0641 17.2 97.4641 17.92C96.8774 18.64 96.0241 19.12 94.9041 19.36L98.4241 25H95.3041ZM90.7641 17.56H93.0841C94.6974 17.56 95.5041 16.8467 95.5041 15.42C95.5041 14.74 95.3041 14.2133 94.9041 13.84C94.5174 13.4533 93.9107 13.26 93.0841 13.26H90.7641V17.56ZM103.088 19.76V25H100.268V10.88H105.408C107.075 10.88 108.328 11.28 109.168 12.08C110.022 12.88 110.448 13.9667 110.448 15.34C110.448 16.6867 110.008 17.76 109.128 18.56C108.262 19.36 107.022 19.76 105.408 19.76H103.088ZM105.108 17.5C106.762 17.5 107.588 16.78 107.588 15.34C107.588 14.6333 107.395 14.0933 107.008 13.72C106.622 13.3467 105.988 13.16 105.108 13.16H103.088V17.5H105.108ZM115.1 22.84H119.84V25H112.28V10.88H115.1V22.84ZM124.338 13.12V16.78H129.338V18.94H124.338V22.74H129.938V25H121.518V10.88H129.938V13.12H124.338Z" fill="#684FFF"/>
<path d="M151.602 11.04V25H148.802V15.26L145.222 25H142.782L139.202 15.3V25H136.382V11.04H139.802L144.042 21.54L148.202 11.04H151.602ZM160.775 10.68C162.095 10.68 163.288 10.9867 164.355 11.6C165.435 12.2133 166.282 13.0733 166.895 14.18C167.522 15.2733 167.835 16.5133 167.835 17.9C167.835 19.2867 167.522 20.5333 166.895 21.64C166.282 22.7467 165.435 23.6067 164.355 24.22C163.288 24.8333 162.095 25.14 160.775 25.14C159.455 25.14 158.255 24.8333 157.175 24.22C156.108 23.6067 155.262 22.7467 154.635 21.64C154.022 20.5333 153.715 19.2867 153.715 17.9C153.715 16.5133 154.022 15.2733 154.635 14.18C155.262 13.0733 156.108 12.2133 157.175 11.6C158.255 10.9867 159.455 10.68 160.775 10.68ZM160.775 13.28C159.948 13.28 159.222 13.4667 158.595 13.84C157.968 14.2133 157.475 14.7533 157.115 15.46C156.768 16.1533 156.595 16.9667 156.595 17.9C156.595 18.8333 156.768 19.6533 157.115 20.36C157.475 21.0533 157.968 21.5867 158.595 21.96C159.222 22.3333 159.948 22.52 160.775 22.52C161.602 22.52 162.328 22.3333 162.955 21.96C163.582 21.5867 164.068 21.0533 164.415 20.36C164.775 19.6533 164.955 18.8333 164.955 17.9C164.955 16.9667 164.775 16.1533 164.415 15.46C164.068 14.7533 163.582 14.2133 162.955 13.84C162.328 13.4667 161.602 13.28 160.775 13.28ZM181.916 25H179.096L172.776 15.4V25H169.956V10.88H172.776L179.096 20.56V10.88H181.916V25ZM193.068 22.16H187.408L186.408 25H183.428L188.628 11.04H191.848L197.028 25H194.048L193.068 22.16ZM192.308 20.02L190.228 14.06L188.148 20.02H192.308ZM205.91 25L202.61 19.5H201.37V25H198.55V10.88H203.93C205.57 10.88 206.816 11.28 207.67 12.08C208.536 12.88 208.97 13.9333 208.97 15.24C208.97 16.3067 208.67 17.2 208.07 17.92C207.483 18.64 206.63 19.12 205.51 19.36L209.03 25H205.91ZM201.37 17.56H203.69C205.303 17.56 206.11 16.8467 206.11 15.42C206.11 14.74 205.91 14.2133 205.51 13.84C205.123 13.4533 204.516 13.26 203.69 13.26H201.37V17.56ZM217.254 10.74C219.014 10.74 220.474 11.1933 221.634 12.1C222.794 13.0067 223.56 14.24 223.934 15.8H220.974C220.667 15.04 220.187 14.44 219.534 14C218.894 13.56 218.12 13.34 217.214 13.34C216.467 13.34 215.794 13.5267 215.194 13.9C214.594 14.2733 214.127 14.8067 213.794 15.5C213.46 16.1933 213.294 17.0067 213.294 17.94C213.294 18.86 213.46 19.6667 213.794 20.36C214.127 21.0533 214.594 21.5867 215.194 21.96C215.794 22.3333 216.467 22.52 217.214 22.52C218.12 22.52 218.894 22.3 219.534 21.86C220.187 21.42 220.667 20.82 220.974 20.06H223.934C223.56 21.62 222.794 22.8533 221.634 23.76C220.474 24.6667 219.014 25.12 217.254 25.12C215.907 25.12 214.714 24.82 213.674 24.22C212.647 23.6067 211.847 22.7533 211.274 21.66C210.714 20.5667 210.434 19.3267 210.434 17.94C210.434 16.54 210.714 15.2933 211.274 14.2C211.847 13.1067 212.647 12.26 213.674 11.66C214.7 11.0467 215.894 10.74 217.254 10.74ZM237.75 10.88V25H234.91V18.86H228.87V25H226.05V10.88H228.87V16.6H234.91V10.88H237.75Z" fill="#2C3847"/>
<path d="M42.4828 17.8232C45.3794 17.8232 49.2414 19.7542 49.2414 22.6507C49.2414 25.5473 44.4138 35.2025 37.6552 35.2025C35.7242 35.2025 28 22.6507 28 22.6507V17.8232C28 17.8232 40.5518 17.8232 42.4828 17.8232Z" fill="#8978F0"/>
<path d="M28 18.7227C34.5916 21.274 44.2456 25.2373 47.9534 26.766C46.0866 30.575 42.3345 35.2023 37.6552 35.2023C35.7242 35.2023 28 18.7885 28 18.7885V18.7227V18.7227Z" fill="#684FFF"/>
<path d="M49.2414 0.443783C52.222 -0.218482 56 -0.52167 56 2.37491C56 5.27149 53.7579 7.13775 53.1034 11.0645C52.6541 13.7604 51.9958 15.4108 51.42 16.4049C50.9069 17.2914 49.9514 17.823 48.9271 17.823H28.9656V16.8575C28.9656 16.8576 40.5518 2.37491 49.2414 0.443783Z" fill="#684FFF"/>
<path d="M28.9656 16.8576C28.9656 16.8576 40.5518 2.3748 49.2414 0.443783C52.222 -0.218482 56 -0.52167 56 2.37491C56 2.68663 55.9631 2.98205 55.916 3.27397C52.3919 2.95963 44.6633 2.22463 29.931 17.8233H28.9655V16.8576H28.9656Z" fill="#432CCE"/>
<path d="M53.1034 5.27139H55.2921C55.0188 5.8933 54.6988 6.52516 54.3798 7.20241H53.1034C52.5698 7.20241 52.1379 6.77005 52.1379 6.23685C52.1379 5.70364 52.5698 5.27139 53.1034 5.27139Z" fill="#48445C"/>
<path d="M50.2068 10.099C50.2068 9.56578 50.6387 9.13342 51.1724 9.13342H53.6024C53.4026 9.72755 53.2219 10.3536 53.1034 11.0644H51.1724C50.6388 11.0645 50.2068 10.6322 50.2068 10.099Z" fill="#48445C"/>
<path d="M50.2068 13.9611C50.2068 13.4279 50.6387 12.9955 51.1724 12.9955H52.7056C52.5187 13.7465 52.3161 14.3857 52.1096 14.9266H51.1724C50.6388 14.9266 50.2068 14.4943 50.2068 13.9611Z" fill="#48445C"/>
<path d="M40.542 10.0992C41.0753 10.0992 41.5076 9.66689 41.5076 9.13362C41.5076 8.60036 41.0753 8.16806 40.542 8.16806C40.0088 8.16806 39.5765 8.60036 39.5765 9.13362C39.5765 9.66689 40.0088 10.0992 40.542 10.0992Z" fill="#48445C"/>
<path d="M46.3352 10.0992C46.8685 10.0992 47.3007 9.66689 47.3007 9.13362C47.3007 8.60036 46.8685 8.16806 46.3352 8.16806C45.8019 8.16806 45.3696 8.60036 45.3696 9.13362C45.3696 9.66689 45.8019 10.0992 46.3352 10.0992Z" fill="#48445C"/>
<path d="M43.4482 12.9958C43.9815 12.9958 44.4138 12.5635 44.4138 12.0302C44.4138 11.4969 43.9815 11.0646 43.4482 11.0646C42.915 11.0646 42.4827 11.4969 42.4827 12.0302C42.4827 12.5635 42.915 12.9958 43.4482 12.9958Z" fill="#48445C"/>
<path d="M37.6552 12.9958C38.1885 12.9958 38.6208 12.5635 38.6208 12.0302C38.6208 11.4969 38.1885 11.0646 37.6552 11.0646C37.1219 11.0646 36.6896 11.4969 36.6896 12.0302C36.6896 12.5635 37.1219 12.9958 37.6552 12.9958Z" fill="#48445C"/>
<path d="M40.5469 15.897C41.0801 15.897 41.5124 15.4647 41.5124 14.9315C41.5124 14.3982 41.0801 13.9659 40.5469 13.9659C40.0136 13.9659 39.5813 14.3982 39.5813 14.9315C39.5813 15.4647 40.0136 15.897 40.5469 15.897Z" fill="#48445C"/>
<path d="M44.5344 25.4266C45.8647 22.0272 45.3859 19.8148 43.5179 17.9016C46.2203 18.2846 49.2414 20.0886 49.2414 22.6507C49.2414 25.4956 44.5828 34.8539 38.0131 35.1866C39.1868 32.9485 42.8001 29.8589 44.5344 25.4266Z" fill="#48445C"/>
<path d="M41.5172 22.6509C42.0505 22.6509 42.4828 22.2186 42.4828 21.6853C42.4828 21.152 42.0505 20.7197 41.5172 20.7197C40.9839 20.7197 40.5516 21.152 40.5516 21.6853C40.5516 22.2186 40.9839 22.6509 41.5172 22.6509Z" fill="#48445C"/>
<path d="M39.5766 26.513C40.1098 26.513 40.5421 26.0807 40.5421 25.5474C40.5421 25.0141 40.1098 24.5818 39.5766 24.5818C39.0433 24.5818 38.611 25.0141 38.611 25.5474C38.611 26.0807 39.0433 26.513 39.5766 26.513Z" fill="#48445C"/>
<path d="M47.069 23.0528C47.6023 23.0528 48.0346 22.6205 48.0346 22.0872C48.0346 21.554 47.6023 21.1217 47.069 21.1217C46.5358 21.1217 46.1035 21.554 46.1035 22.0872C46.1035 22.6205 46.5358 23.0528 47.069 23.0528Z" fill="#432CCE"/>
<path d="M46.3448 26.2514C46.8003 26.2514 47.1695 25.8821 47.1695 25.4267C47.1695 24.9712 46.8003 24.602 46.3448 24.602C45.8894 24.602 45.5201 24.9712 45.5201 25.4267C45.5201 25.8821 45.8894 26.2514 46.3448 26.2514Z" fill="#432CCE"/>
<path d="M44.9364 29.1663C45.358 29.1663 45.6998 28.8245 45.6998 28.4029C45.6998 27.9812 45.358 27.6394 44.9364 27.6394C44.5148 27.6394 44.173 27.9812 44.173 28.4029C44.173 28.8245 44.5148 29.1663 44.9364 29.1663Z" fill="#432CCE"/>
<path d="M43.0862 31.6003C43.4857 31.6003 43.8095 31.2765 43.8095 30.877C43.8095 30.4776 43.4857 30.1537 43.0862 30.1537C42.6867 30.1537 42.3629 30.4776 42.3629 30.877C42.3629 31.2765 42.6867 31.6003 43.0862 31.6003Z" fill="#432CCE"/>
<path d="M13.5172 17.8232C10.6206 17.8232 6.75861 19.7542 6.75861 22.6507C6.75861 25.5473 11.5862 35.2025 18.3448 35.2025C20.2758 35.2025 28 22.6507 28 22.6507V17.8232C28 17.8232 15.4482 17.8232 13.5172 17.8232Z" fill="#8978F0"/>
<path d="M28 18.7227C21.4084 21.274 11.7544 25.2373 8.04663 26.766C9.91344 30.575 13.6656 35.2023 18.3448 35.2023C20.2758 35.2023 28 18.7885 28 18.7885V18.7227Z" fill="#684FFF"/>
<path d="M6.75861 0.443783C3.77803 -0.218482 0 -0.52167 0 2.37491C0 5.27149 2.24208 7.13775 2.89658 11.0645C3.34589 13.7604 4.00422 15.4108 4.57997 16.4049C5.09316 17.2914 6.04866 17.823 7.07295 17.823H27.0345V16.8575C27.0344 16.8576 15.4482 2.37491 6.75861 0.443783Z" fill="#684FFF"/>
<path d="M27.0344 16.8576C27.0344 16.8576 15.4482 2.3748 6.75861 0.443783C3.77803 -0.218482 0 -0.52167 0 2.37491C0 2.68663 0.0368594 2.98205 0.084 3.27397C3.60806 2.95963 11.3367 2.22463 26.069 17.8233H27.0345V16.8576H27.0344Z" fill="#432CCE"/>
<path d="M27.0336 16.3749C26.81 16.3749 26.6092 16.2179 26.5622 15.9898C24.6906 6.9211 19.0851 2.80772 19.0285 2.76714C18.8126 2.61161 18.7627 2.30985 18.9182 2.0935C19.0737 1.87618 19.3745 1.82718 19.5924 1.98271C19.8347 2.15705 25.5609 6.36011 27.507 15.7946C27.5617 16.0558 27.3929 16.3113 27.1317 16.3651C27.0995 16.3715 27.0666 16.3749 27.0336 16.3749Z" fill="#868490"/>
<path d="M28.9664 16.3749C28.9335 16.3749 28.9004 16.3716 28.8683 16.3651C28.6071 16.3114 28.4383 16.0558 28.4931 15.7946C30.4392 6.35999 36.1653 2.15715 36.4076 1.98269C36.6255 1.82662 36.9253 1.87704 37.0808 2.09305C37.2364 2.3094 37.1874 2.61073 36.9715 2.76669C36.9148 2.80771 31.3048 6.9446 29.4378 15.9897C29.3907 16.2179 29.1899 16.3749 28.9664 16.3749Z" fill="#868490"/>
<path d="M19.3103 3.34058C19.8436 3.34058 20.2759 2.90828 20.2759 2.37502C20.2759 1.84175 19.8436 1.40945 19.3103 1.40945C18.7771 1.40945 18.3448 1.84175 18.3448 2.37502C18.3448 2.90828 18.7771 3.34058 19.3103 3.34058Z" fill="#5D5B6B"/>
<path d="M36.6896 3.34058C37.2229 3.34058 37.6552 2.90828 37.6552 2.37502C37.6552 1.84175 37.2229 1.40945 36.6896 1.40945C36.1564 1.40945 35.7241 1.84175 35.7241 2.37502C35.7241 2.90828 36.1564 3.34058 36.6896 3.34058Z" fill="#5D5B6B"/>
<path d="M28 14.9266C26.9336 14.9266 26.069 15.7911 26.069 16.8576V20.7196C26.069 21.4325 26.4598 22.0483 27.0345 22.3829V32.3058C27.0345 32.839 27.4663 33.2714 28.0001 33.2714C28.5337 33.2714 28.9657 32.839 28.9657 32.3058V22.3829C29.5404 22.0484 29.9312 21.4325 29.9312 20.7196V16.8576C29.931 15.7911 29.0664 14.9266 28 14.9266Z" fill="#48445C"/>
<path d="M2.89659 5.27139H0.707886C0.981214 5.8933 1.30125 6.52516 1.62018 7.20241H2.89659C3.43023 7.20241 3.86215 6.77005 3.86215 6.23685C3.86215 5.70364 3.43023 5.27139 2.89659 5.27139Z" fill="#48445C"/>
<path d="M5.79313 10.099C5.79313 9.56578 5.36132 9.13342 4.82757 9.13342H2.39758C2.59741 9.72755 2.7781 10.3536 2.89655 11.0644H4.82757C5.36121 11.0645 5.79313 10.6322 5.79313 10.099Z" fill="#48445C"/>
<path d="M5.79315 13.9611C5.79315 13.4279 5.36134 12.9955 4.82759 12.9955H3.29437C3.48129 13.7465 3.68386 14.3857 3.89025 14.9266H4.82759C5.36123 14.9266 5.79315 14.4943 5.79315 13.9611Z" fill="#48445C"/>
<path d="M15.458 10.0992C15.9913 10.0992 16.4236 9.66689 16.4236 9.13362C16.4236 8.60036 15.9913 8.16806 15.458 8.16806C14.9247 8.16806 14.4924 8.60036 14.4924 9.13362C14.4924 9.66689 14.9247 10.0992 15.458 10.0992Z" fill="#48445C"/>
<path d="M9.66478 10.0992C10.198 10.0992 10.6303 9.66689 10.6303 9.13362C10.6303 8.60036 10.198 8.16806 9.66478 8.16806C9.13152 8.16806 8.69922 8.60036 8.69922 9.13362C8.69922 9.66689 9.13152 10.0992 9.66478 10.0992Z" fill="#48445C"/>
<path d="M12.5517 12.9958C13.085 12.9958 13.5173 12.5635 13.5173 12.0302C13.5173 11.4969 13.085 11.0646 12.5517 11.0646C12.0185 11.0646 11.5862 11.4969 11.5862 12.0302C11.5862 12.5635 12.0185 12.9958 12.5517 12.9958Z" fill="#48445C"/>
<path d="M18.3448 12.9958C18.8781 12.9958 19.3104 12.5635 19.3104 12.0302C19.3104 11.4969 18.8781 11.0646 18.3448 11.0646C17.8116 11.0646 17.3793 11.4969 17.3793 12.0302C17.3793 12.5635 17.8116 12.9958 18.3448 12.9958Z" fill="#48445C"/>
<path d="M15.4532 15.897C15.9864 15.897 16.4187 15.4647 16.4187 14.9315C16.4187 14.3982 15.9864 13.9659 15.4532 13.9659C14.9199 13.9659 14.4876 14.3982 14.4876 14.9315C14.4876 15.4647 14.9199 15.897 15.4532 15.897Z" fill="#48445C"/>
<path d="M11.4656 25.4266C10.1353 22.0272 10.6141 19.8148 12.4821 17.9016C9.77965 18.2846 6.75861 20.0886 6.75861 22.6507C6.75861 25.4956 11.4172 34.8539 17.9869 35.1866C16.8132 32.9485 13.1999 29.8589 11.4656 25.4266Z" fill="#48445C"/>
<path d="M14.4828 22.6509C15.016 22.6509 15.4483 22.2186 15.4483 21.6853C15.4483 21.152 15.016 20.7197 14.4828 20.7197C13.9495 20.7197 13.5172 21.152 13.5172 21.6853C13.5172 22.2186 13.9495 22.6509 14.4828 22.6509Z" fill="#48445C"/>
<path d="M16.4234 26.513C16.9567 26.513 17.389 26.0807 17.389 25.5474C17.389 25.0141 16.9567 24.5818 16.4234 24.5818C15.8902 24.5818 15.4579 25.0141 15.4579 25.5474C15.4579 26.0807 15.8902 26.513 16.4234 26.513Z" fill="#48445C"/>
<path d="M8.93102 23.0528C9.46428 23.0528 9.89658 22.6205 9.89658 22.0872C9.89658 21.554 9.46428 21.1217 8.93102 21.1217C8.39775 21.1217 7.96545 21.554 7.96545 22.0872C7.96545 22.6205 8.39775 23.0528 8.93102 23.0528Z" fill="#432CCE"/>
<path d="M9.65519 26.2514C10.1107 26.2514 10.4799 25.8821 10.4799 25.4267C10.4799 24.9712 10.1107 24.602 9.65519 24.602C9.19973 24.602 8.83051 24.9712 8.83051 25.4267C8.83051 25.8821 9.19973 26.2514 9.65519 26.2514Z" fill="#432CCE"/>
<path d="M11.0636 29.1663C11.4852 29.1663 11.827 28.8245 11.827 28.4029C11.827 27.9812 11.4852 27.6394 11.0636 27.6394C10.642 27.6394 10.3002 27.9812 10.3002 28.4029C10.3002 28.8245 10.642 29.1663 11.0636 29.1663Z" fill="#432CCE"/>
<path d="M12.9138 31.6003C13.3133 31.6003 13.6371 31.2765 13.6371 30.877C13.6371 30.4776 13.3133 30.1537 12.9138 30.1537C12.5143 30.1537 12.1905 30.4776 12.1905 30.877C12.1905 31.2765 12.5143 31.6003 12.9138 31.6003Z" fill="#432CCE"/>
</svg>
