<svg width="32" height="33" viewBox="0 0 32 33" fill="none" xmlns="http://www.w3.org/2000/svg">
<path d="M16.0036 7.79902C11.4632 7.79902 7.801 11.4621 7.801 16.0034C7.801 20.5448 11.4632 24.2078 16.0036 24.2078C20.5439 24.2078 24.2061 20.5448 24.2061 16.0034C24.2061 11.4621 20.5439 7.79902 16.0036 7.79902ZM16.0036 21.3373C13.0695 21.3373 10.6708 18.9453 10.6708 16.0034C10.6708 13.0615 13.0624 10.6695 16.0036 10.6695C18.9448 10.6695 21.3363 13.0615 21.3363 16.0034C21.3363 18.9453 18.9376 21.3373 16.0036 21.3373ZM26.4549 7.46342C26.4549 8.52735 25.5982 9.37707 24.5417 9.37707C23.478 9.37707 22.6284 8.52021 22.6284 7.46342C22.6284 6.40663 23.4851 5.54978 24.5417 5.54978C25.5982 5.54978 26.4549 6.40663 26.4549 7.46342ZM31.8876 9.40563C31.7662 6.8422 31.1808 4.57153 29.3033 2.70073C27.4329 0.829927 25.1627 0.244409 22.5999 0.11588C19.9585 -0.0340694 12.0415 -0.0340694 9.40011 0.11588C6.8444 0.237268 4.57423 0.822786 2.69671 2.69359C0.819186 4.56439 0.240937 6.83506 0.112437 9.39849C-0.0374791 12.0405 -0.0374791 19.9592 0.112437 22.6012C0.233798 25.1646 0.819186 27.4353 2.69671 29.3061C4.57423 31.1769 6.83726 31.7624 9.40011 31.891C12.0415 32.0409 19.9585 32.0409 22.5999 31.891C25.1627 31.7696 27.4329 31.184 29.3033 29.3061C31.1737 27.4353 31.7591 25.1646 31.8876 22.6012C32.0375 19.9592 32.0375 12.0476 31.8876 9.40563ZM28.4752 25.436C27.9184 26.8355 26.8404 27.9137 25.434 28.4778C23.3281 29.3132 18.3308 29.1205 16.0036 29.1205C13.6763 29.1205 8.67195 29.3061 6.57312 28.4778C5.1739 27.9209 4.09593 26.8426 3.53196 25.436C2.69671 23.3295 2.88946 18.3312 2.88946 16.0034C2.88946 13.6756 2.70385 8.67016 3.53196 6.57086C4.08879 5.17133 5.16676 4.09312 6.57312 3.52902C8.67909 2.69359 13.6763 2.88638 16.0036 2.88638C18.3308 2.88638 23.3352 2.70073 25.434 3.52902C26.8332 4.08598 27.9112 5.16419 28.4752 6.57086C29.3104 8.6773 29.1177 13.6756 29.1177 16.0034C29.1177 18.3312 29.3104 23.3367 28.4752 25.436Z" fill="#684FFF"/>
</svg>
