<svg width="591" height="511" viewBox="0 0 591 511" fill="none" xmlns="http://www.w3.org/2000/svg">
<path fill-rule="evenodd" clip-rule="evenodd" d="M7.88362 290.763C21.744 237.168 161.994 267.7 253.941 251.131C345.887 234.562 454.667 157.398 526.66 195.197C598.653 232.996 522.053 324.368 356.933 344.987C191.812 365.607 -5.97672 344.358 7.88362 290.763Z" fill="#F2F2F2"/>
<path fill-rule="evenodd" clip-rule="evenodd" d="M44.5158 40.4454C43.1788 41.4478 43.6981 45.0101 43.6701 46.3284C43.6271 48.3807 43.7972 50.4147 44.0257 52.4596C44.1788 53.8288 45.0419 66.8949 47.4437 65.8914C48.7977 65.326 47.9489 61.5463 47.9465 60.3507C47.941 57.6928 47.7938 55.0414 47.5578 52.3894C47.3383 49.9274 47.2006 47.494 47.3269 45.0273C47.3577 44.4252 48.1079 37.7435 44.5158 40.4454" fill="#02C3A3"/>
<path fill-rule="evenodd" clip-rule="evenodd" d="M102.742 38.8348C91.2556 38.9034 79.7738 39.3288 68.2929 39.5895C62.7683 39.7149 57.2472 39.8744 51.7285 40.1042C49.8481 40.1826 45.8148 39.7306 44.2481 40.4829C40.7701 42.1533 46.3791 42.5438 47.8744 42.503C70.5952 41.8844 93.3239 41.0696 116.064 41.0311C127.219 41.0125 138.368 41.251 149.525 41.1974C153.789 41.177 158.511 39.7975 159.588 43.5246C160.804 47.7303 159.407 52.413 159.027 56.6392C158.773 59.4604 158.864 62.2231 159.033 65.0419C159.142 66.8478 158.859 68.8826 159.284 70.6547C159.693 72.3612 161.327 73.3845 162.825 71.4731C163.72 70.3308 163.274 67.5105 163.334 66.1871C163.414 64.4049 163.339 62.6233 163.339 60.8409C163.338 56.4901 164.156 52.1565 164.048 47.8067C163.978 45.0017 163.78 39.9167 159.068 39.2427C153.88 38.5005 147.502 39.2469 142.193 39.2013C129.037 39.0886 115.903 38.7575 102.742 38.8348" fill="#02C3A3"/>
<path fill-rule="evenodd" clip-rule="evenodd" d="M71.0916 66.0475C66.7604 66.0475 62.4288 66.067 58.098 66.1208C54.3836 66.167 48.5437 65.5856 45.0866 66.5835C42.7199 67.2667 42.0912 69.2506 45.0866 69.779C48.3534 70.3556 53.277 69.413 56.695 69.3678C73.8343 69.1406 91.1387 68.8444 108.254 69.6583C124.291 70.4207 140.638 71.16 156.699 70.3553C158.05 70.2876 164.942 70.0816 161.797 68.1418C159.963 67.0096 152.527 67.7542 150.142 67.7001C141.732 67.5095 133.313 67.4672 124.906 67.2279C116.608 66.9915 108.347 66.2909 100.047 66.1176C90.403 65.9161 80.7382 66.0475 71.0916 66.0475" fill="#02C3A3"/>
<path fill-rule="evenodd" clip-rule="evenodd" d="M66.758 47.55C73.5088 47.7713 80.1877 55.1226 73.3572 58.6754C66.9494 62.009 54.94 58.3556 58.5033 51.8913C57.991 52.8259 59.1509 50.876 59.1655 50.8629C59.8431 50.2636 61.0598 49.6 61.8948 49.1275C62.8507 48.5867 63.8459 47.9914 64.9983 47.7204C65.7548 47.5426 65.636 48.2118 66.758 47.55M63.4702 44.8986C60.3107 45.8249 58.8687 46.8699 56.6974 48.7606C55.195 50.0692 53.2798 50.7576 53.2967 52.5259C53.3003 52.9173 53.97 53.3475 54.0856 53.7244C54.2455 54.2454 54.0604 54.9128 54.1871 55.4663C55.4941 61.178 64.5701 63.1037 71.2135 62.0253C77.0006 61.086 81.3286 56.9148 79.988 52.3792C78.6384 47.8133 69.6212 43.0922 63.4702 44.8986" fill="#02C3A3"/>
<path fill-rule="evenodd" clip-rule="evenodd" d="M60.6559 52.8721C60.6559 54.9268 64.9784 54.9268 64.9784 52.8721C64.9784 50.8408 60.6559 50.7535 60.6559 52.8721" fill="#02C3A3"/>
<path fill-rule="evenodd" clip-rule="evenodd" d="M66.0637 52.4562C66.0637 54.089 69.4983 54.089 69.4983 52.4562C69.4983 50.8421 66.0637 50.7731 66.0637 52.4562" fill="#02C3A3"/>
<path fill-rule="evenodd" clip-rule="evenodd" d="M67.1272 55.8234C66.0273 56.1408 64.6323 55.4825 63.7293 55.9163C62.1303 56.6849 63.7333 57.3804 64.5905 57.6893C68.4497 59.0798 69.1363 55.2456 67.1272 55.8234" fill="#02C3A3"/>
<path fill-rule="evenodd" clip-rule="evenodd" d="M126.066 51.2696C125.951 51.3063 125.542 51.4364 126.066 51.2696ZM109.26 49.4253C106.371 49.9149 103.933 51.9403 100.794 51.6693C98.3895 51.4616 96.7612 49.719 94.387 49.4658C91.3498 49.1415 83.084 54.3437 87.4298 55.2363C89.9654 55.7573 91.3719 52.2781 93.6119 52.0932C95.3839 51.9471 97.7935 53.5787 99.6298 53.8109C103.055 54.2443 105.408 52.8275 108.415 51.9139C111.683 50.9211 113.542 51.8151 116.384 52.9186C118.627 53.7896 120.739 54.3568 123.306 53.9973C125.715 53.6603 128.741 51.8003 131.166 51.9912C133.541 52.1781 135.236 54.039 137.679 54.2118C138.686 54.2828 140.185 54.5405 140.016 53.3737C139.88 52.4394 138.492 52.5976 137.623 52.258C135.39 51.3847 133.3 49.8377 130.605 49.9696C128.577 50.069 126.731 51.1388 124.862 51.6506C118.742 53.3266 115.301 48.4078 109.26 49.4253" fill="#02C3A3"/>
<path fill-rule="evenodd" clip-rule="evenodd" d="M114.373 79.0196C102.567 79.101 90.7222 79.2326 78.95 79.9433C76.159 80.1116 47.6611 82.132 47.7152 82.2775C47.815 82.5467 51.4805 82.958 51.4576 83.0216C51.2105 82.5615 50.6458 82.371 49.7638 82.4506C76.7917 82.4506 103.734 80.6335 130.797 80.9604C137.597 81.0424 144.423 81.008 151.219 81.169C152.915 81.2092 157.118 82.1222 158.451 81.5471C161.947 80.0374 155.595 79.8631 154.543 79.7998C141.225 78.9998 127.729 78.9196 114.373 79.0196" fill="#02C3A3"/>
<path fill-rule="evenodd" clip-rule="evenodd" d="M44.2164 83.3264C42.4516 84.6551 44.0767 89.4348 44.1462 91.2312C44.2468 93.8285 44.1639 96.4441 44.4674 99.0345C44.8139 101.994 45.3514 105.146 46.3854 108.017C46.9548 109.599 48.9537 112.112 49.7457 109.238C50.3113 107.186 49.4525 104.463 49.1538 102.372C48.754 99.5745 48.6573 96.8139 48.6423 94.003C48.6289 91.5537 48.5662 89.0943 48.2986 86.6527C48.1597 85.385 47.3104 81.0156 44.2164 83.3264" fill="#02C3A3"/>
<path fill-rule="evenodd" clip-rule="evenodd" d="M88.6189 107.668C80.2414 107.776 71.8458 107.924 63.4825 108.317C60.0547 108.478 56.6296 108.718 53.2143 108.991C52.5174 109.046 44.8037 109.281 48.2505 111.419C49.8062 112.384 56.2057 111.049 58.3194 110.91C61.8744 110.676 65.4285 110.524 68.9937 110.411C77.2544 110.148 85.5403 109.915 93.8093 110.023C108.911 110.22 123.915 110.307 139.021 110.054C141.167 110.019 157.981 110.356 158.552 108.679C159.012 107.328 152.999 107.948 151.903 107.973C147.881 108.063 143.859 108.042 139.835 108.026C122.792 107.961 105.649 107.452 88.6189 107.668" fill="#02C3A3"/>
<path fill-rule="evenodd" clip-rule="evenodd" d="M155.705 81.0847C155.971 86.6854 157.241 92.2796 157.647 97.8972C157.833 100.465 158.051 103.031 158.219 105.6C158.273 106.428 157.828 108.425 159.133 108.902C160.923 109.555 161.164 108.238 161.499 107.347C162.468 104.773 161.813 101.43 161.725 98.7859C161.64 96.2256 161.634 93.6609 161.383 91.1054C161.125 88.4945 160.425 85.933 160.1 83.3313C159.963 82.2311 160.443 80.4001 158.887 79.7173C157.543 79.127 155.647 79.8708 155.705 81.0847" fill="#02C3A3"/>
<path fill-rule="evenodd" clip-rule="evenodd" d="M73.3619 90.4013C73.3938 90.4196 73.4254 90.4382 73.457 90.4569C73.4254 90.4382 73.3934 90.4199 73.3619 90.4013M66.2426 88.7418C68.8973 89.3113 71.0777 89.0989 73.6137 90.5501C75.7159 91.7533 77.8723 93.5136 78.5696 95.4591C80.1805 99.9539 74.7191 102.417 69.599 102.466C64.3546 102.515 56.592 101.602 56.8607 96.5543C57.0667 92.6763 60.8379 88.8924 66.2426 88.7418M66.4296 86.2017C59.5455 86.4591 53.9925 92.2639 54.052 97.1501C54.1239 103.072 63.0606 104.598 69.4088 104.639C76.5735 104.685 83.7181 100.97 81.7982 94.9206C80.2599 90.0735 73.0498 85.9434 66.4296 86.2017" fill="#02C3A3"/>
<path fill-rule="evenodd" clip-rule="evenodd" d="M59.5049 94.153C59.5049 95.8044 62.9798 95.8044 62.9798 94.153C62.9798 92.5205 59.5049 92.4504 59.5049 94.153" fill="#02C3A3"/>
<path fill-rule="evenodd" clip-rule="evenodd" d="M66.7935 93.4284C66.7935 95.0928 70.2959 95.0928 70.2959 93.4284C70.2959 91.7829 66.7935 91.7122 66.7935 93.4284" fill="#02C3A3"/>
<path fill-rule="evenodd" clip-rule="evenodd" d="M62.7754 97.195C60.5137 98.8905 68.459 101.863 70.3328 99.5041C71.8719 97.5669 68.521 98.2091 67.3331 98.1044C66.0422 97.9902 63.8291 96.4059 62.7754 97.195" fill="#02C3A3"/>
<path fill-rule="evenodd" clip-rule="evenodd" d="M126.3 93.4625C126.082 93.5311 126.082 93.5311 126.3 93.4625ZM96.4628 90.7022C94.1727 91.0247 86.6571 92.9284 86.5557 94.9686C86.3702 98.6768 93.7307 94.8787 95.329 94.3908C99.6709 93.066 101.952 95.7686 106.314 95.9112C110.102 96.0352 113.585 93.6009 117.154 93.8888C120.892 94.1902 122.691 97.1769 127.007 95.5911C129.29 94.7524 129.233 93.4592 126.67 93.3373C125.12 93.2636 124.056 93.7444 122.441 93.2438C119.914 92.4616 118.897 91.1877 115.874 91.39C113.593 91.5427 111.531 92.508 109.305 92.8817C104.206 93.737 101.378 90.0108 96.4628 90.7022" fill="#02C3A3"/>
<path fill-rule="evenodd" clip-rule="evenodd" d="M143.889 95.0725C143.732 95.1222 143.732 95.1222 143.889 95.0725ZM144.467 93.5284C144.492 93.5367 144.665 93.7166 144.467 93.5284ZM141.842 92.3498C141.743 92.4069 141.743 92.4069 141.842 92.3498ZM141.899 92.3353C142.408 92.564 146.501 94.6654 143.528 95.1604C142.019 95.4115 140.77 93.1314 141.899 92.3353M140.544 90.0073C133.987 92.2519 141.042 100.284 146.188 97.0206C148.353 95.6473 148.638 92.8717 146.531 91.4409C145.269 90.5836 142.257 89.4197 140.544 90.0073" fill="#02C3A3"/>
<path fill-rule="evenodd" clip-rule="evenodd" d="M78.9993 121.66C70.8184 121.662 62.5656 121.533 54.3957 121.897C53.0208 121.958 47.7831 121.762 47.0747 122.841C45.7787 124.815 51.1679 123.835 51.9509 123.776C68.2181 122.553 85.2106 123.257 101.531 123.605C114.879 123.89 128.156 124.067 141.488 124.584C144.993 124.719 148.494 124.869 151.996 125.028C153.137 125.08 156.01 125.648 156.251 124.279C156.473 123.012 152.89 123.298 151.995 123.263C144.876 122.981 137.762 122.687 130.646 122.386C113.516 121.661 96.156 121.658 78.9993 121.66" fill="#02C3A3"/>
<path fill-rule="evenodd" clip-rule="evenodd" d="M46.812 123.855C45.284 124.995 46.0002 129.351 45.9576 130.79C45.883 133.308 45.7248 135.824 45.6537 138.341C45.5799 140.971 45.6825 143.614 45.8897 146.241C45.9766 147.344 47.1822 152.674 49.0804 149.624C49.9285 148.261 49.0599 144.464 49.0729 142.919C49.0962 140.108 49.2979 137.309 49.4841 134.501C49.6444 132.088 49.6503 129.673 49.7908 127.259C49.8354 126.489 49.9565 121.487 46.812 123.855" fill="#02C3A3"/>
<path fill-rule="evenodd" clip-rule="evenodd" d="M157.627 146.343C149.665 146.956 141.576 146.666 133.584 147.119C126.696 147.509 119.815 147.668 112.909 147.778C97.2725 148.026 81.6092 148.268 66.0176 149.246C62.4643 149.469 58.9152 149.706 55.3524 149.825C53.5706 149.885 46.0937 149.276 45.5368 150.686C44.5885 153.088 52.5844 152.138 54.309 152.1C58.1015 152.018 61.8762 151.812 65.6581 151.596C81.5559 150.686 97.5145 150.415 113.446 150.036C122.111 149.831 130.715 149.355 139.361 148.922C143.67 148.706 147.991 148.699 152.3 148.49C153.427 148.435 157.418 148.543 158.229 147.862C158.786 147.394 158.927 146.252 157.627 146.343" fill="#02C3A3"/>
<path fill-rule="evenodd" clip-rule="evenodd" d="M154.928 124.264C155.201 129.997 155.633 135.725 155.89 141.457C155.968 143.181 155.274 146.271 156.553 147.792C158.609 150.236 160.213 147.649 160.59 146.126C161.778 141.318 160.501 136.007 160.169 131.169C160.042 129.324 160.806 125.216 159.618 123.565C158.486 121.991 154.827 122.149 154.928 124.264" fill="#02C3A3"/>
<path fill-rule="evenodd" clip-rule="evenodd" d="M141.562 132.429C144.612 133.049 145.057 138.029 141.616 138.397C136.493 138.945 138.733 133.455 141.562 132.429M140.707 130.449C139.777 130.427 137.629 130.234 137.056 130.803C136.576 131.279 137.061 132.283 137.005 132.736C136.803 134.356 135.049 135.291 135.833 137.204C136.365 138.502 137.791 139.722 139.528 140.173C148.696 142.552 148.584 129.252 140.707 130.449" fill="#02C3A3"/>
<path fill-rule="evenodd" clip-rule="evenodd" d="M57.9407 131.342C57.9178 131.364 57.8949 131.386 57.8724 131.408C57.8949 131.386 57.9178 131.364 57.9407 131.342M65.1408 128.465C65.1049 128.235 65.069 128.005 65.0331 127.774C70.0036 129.536 73.9587 132.813 72.3084 137.212C71.049 140.568 66.4992 141.758 62.2604 140.929C57.5681 140.012 55.3257 137.108 56.5909 133.542C57.1746 131.897 58.9671 129.686 61.284 129.157C62.3626 128.911 64.7478 129.538 65.1408 128.465M62.2343 127.072C60.977 127.136 59.7532 127.529 58.7271 128.067C59.6877 127.457 60.9679 127.094 62.2343 127.072M62.2703 124.905C59.1644 124.976 57.1292 126.388 55.287 128.083C54.7089 128.616 52.7542 130.027 52.9961 130.744C53.1875 131.311 53.6884 132.14 54.7428 131.508C49.2198 139.773 63.4877 146.822 72.1979 141.075C80.3267 135.711 72.2618 124.653 62.2703 124.905" fill="#02C3A3"/>
<path fill-rule="evenodd" clip-rule="evenodd" d="M59.4482 132.583C59.4482 133.683 61.7238 133.683 61.7238 132.583C61.7238 131.482 59.4482 131.482 59.4482 132.583" fill="#02C3A3"/>
<path fill-rule="evenodd" clip-rule="evenodd" d="M63.3315 132.77C63.3315 133.889 65.6438 133.889 65.6438 132.77C65.6438 131.652 63.3315 131.652 63.3315 132.77" fill="#02C3A3"/>
<path fill-rule="evenodd" clip-rule="evenodd" d="M65.0937 136.699C64.012 136.765 60.0525 136.488 59.3575 137.2C58.1961 138.389 60.0497 138.43 60.9602 138.559C61.7803 138.674 65.3451 138.609 65.8474 138.062C66.2914 137.579 66.1876 136.629 65.0937 136.699" fill="#02C3A3"/>
<path fill-rule="evenodd" clip-rule="evenodd" d="M112.799 133.616C112.613 133.673 112.613 133.673 112.799 133.616ZM97.838 132.794C95.4007 132.929 93.3363 133.981 91.0059 134.401C88.5185 134.85 87.4419 134.025 85.1802 133.485C82.8273 132.924 81.1537 133.145 79.2625 134.352C78.1911 135.036 75.8402 136.609 76.5099 137.824C78.0435 140.603 81.5148 136.081 83.1474 135.87C85.6944 135.542 87.9605 137.214 90.8974 136.736C93.5589 136.303 95.9204 134.931 98.7003 134.916C101.025 134.904 103.215 135.859 105.51 136.09C109.013 136.443 111.314 135.509 114.552 134.815C117.361 134.214 119.33 135.007 121.971 135.674C123.178 135.978 127.207 137.086 126.465 135.077C126.255 134.51 120.947 133.495 120.124 133.3C117.222 132.611 115.384 132.88 112.62 133.671C110.314 134.331 108.375 134.653 105.903 134.29C103.179 133.889 100.703 132.631 97.838 132.794" fill="#02C3A3"/>
<path fill-rule="evenodd" clip-rule="evenodd" d="M209.983 40.6622C210.376 34.3076 210.917 27.9619 211.202 21.6035C211.343 18.4527 211.454 15.3016 211.561 12.1502C211.585 11.4485 211.609 10.7471 211.63 10.0454C211.699 7.66141 211.323 7.46637 214.518 7.25476C228.772 6.31005 243.082 5.99692 257.353 5.14219C274.564 4.11136 291.865 3.39957 309.125 3.08053C316.795 2.93847 324.497 2.64428 332.168 2.82334C333.868 2.863 337.204 2.53093 337.874 3.52299C338.163 3.95154 337.556 5.42631 337.479 5.92086C337.239 7.46578 337.014 9.01602 336.876 10.5686C336.06 19.7256 336.546 29.1135 338.908 38.1317C333.368 35.7862 326.369 33.7687 319.913 34.1691C313.33 34.5772 308.406 37.433 303.137 40.0614C300.157 41.548 299.153 41.939 296.179 40.4988C293.617 39.2576 291.193 37.8384 288.775 36.4456C285.045 34.2961 281.524 31.9654 277.906 29.7119C271.255 25.5685 262.091 19.6709 252.904 21.4073C246.34 22.648 240.279 25.3566 234.582 28.0075C226.119 31.9459 218.457 36.7688 209.983 40.6622M324.056 0.00135103C291.354 0.00135103 258.896 2.38176 226.287 3.66948C222.881 3.80385 219.487 4.00185 216.093 4.24779C213.831 4.41175 208.3 3.72335 206.818 5.17444C205.829 6.14253 206.679 6.28785 206.818 7.20769C206.994 8.36697 206.89 9.74052 206.844 10.9676C206.735 13.9242 206.621 16.8806 206.532 19.8375C206.194 31.013 205.983 42.1864 206.586 53.3589C206.717 55.7955 207.899 59.1692 207.252 61.5369C206.784 63.2511 205.218 64.2943 208.829 64.611C212.382 64.9229 216.727 64.1298 220.283 63.8758C223.86 63.6201 227.436 63.3428 231.017 63.1211C246.587 62.1578 262.307 62.3034 277.918 61.9832C293.669 61.6603 309.426 61.6396 325.182 61.633C331.775 61.6304 339.308 61.9086 345.741 60.5463C348.004 60.0668 348.37 59.8306 347.812 58.1446C347.706 57.8246 347.023 57.7065 346.822 57.1282C346.55 56.3413 346.69 55.3847 346.626 54.5655C346.418 51.89 346.345 49.2098 346.177 46.5325C345.897 42.0594 344.87 37.7183 344.111 33.2901C343.234 28.1762 343.279 22.9839 343.261 17.8365C343.251 14.9814 343.349 12.1357 343.654 9.28859C343.85 7.46251 345.048 4.73613 344.44 3.03317C344.138 2.18524 343.643 1.51282 342.467 1.1479C341.723 0.916461 341.097 1.09759 340.36 1.03899C339.487 0.969438 338.942 0.877394 337.896 0.699522C333.415 -0.0631684 328.623 0.00135103 324.056 0.00135103" fill="#02C3A3"/>
<path fill-rule="evenodd" clip-rule="evenodd" d="M305.958 12.1589C305.956 13.9386 305.586 16.5646 306.679 18.2403C308.065 20.3659 309.798 19.7015 310.258 17.7041C310.521 16.5596 310.514 13.1726 310.025 12.1589C309.332 10.7241 305.958 9.74687 305.958 12.1589" fill="#02C3A3"/>
<path fill-rule="evenodd" clip-rule="evenodd" d="M309.935 12.8461C307.71 12.905 301.23 12.504 299.724 13.8473C297.142 16.1514 301.637 16.5595 303.568 16.4305C305.801 16.2813 312.704 16.6453 314.2 15.3005C316.702 13.0506 311.684 12.7982 309.935 12.8461" fill="#02C3A3"/>
<path fill-rule="evenodd" clip-rule="evenodd" d="M223.59 72.2979C233.371 73.5738 230.328 84.7723 221.072 82.1785C217.847 81.2747 213.095 78.6631 214.878 75.586C216.209 73.287 220.549 72.0789 223.59 72.2979M219.54 68.8159C213.178 69.62 208.829 74.7893 211.01 79.2983C213.114 83.6483 221.095 86.8337 226.981 85.2704C232.6 83.7779 235.403 78.1644 233.509 74.058C231.529 69.7674 225.081 68.1154 219.54 68.8159" fill="#02C3A3"/>
<path fill-rule="evenodd" clip-rule="evenodd" d="M279.038 73.6077C276.603 73.7595 274.498 75.0399 272.047 75.2666C269.756 75.4785 267.857 74.8898 265.712 74.4192C263.118 73.8507 260.74 73.6006 258.09 74.1058C256.065 74.492 254.067 75.5267 251.963 75.6516C247.824 75.897 243.013 72.3508 239.781 76.3616C238.232 78.2845 240.482 79.5231 242.799 78.6263C245.215 77.6917 244.029 77.3569 247.025 77.9092C249.526 78.3694 251.547 78.6195 254.051 77.9743C256.32 77.3901 258.312 76.3208 260.777 76.2006C263.192 76.0831 265.292 76.9089 267.6 77.2652C270.438 77.7032 272.949 77.3717 275.639 76.7038C278.197 76.0683 279.217 75.7209 281.798 76.2876C283.433 76.6466 287.003 77.787 288.594 76.868C291.344 75.2793 287.662 75.047 286.212 74.8212C283.877 74.458 281.461 73.4588 279.038 73.6077" fill="#02C3A3"/>
<path fill-rule="evenodd" clip-rule="evenodd" d="M334.77 72.5405C334.79 72.5518 334.809 72.563 334.828 72.5743C334.809 72.563 334.79 72.5518 334.77 72.5405M332.38 72.165C335.935 72.3369 339.78 77.2001 335.069 77.3727C331.753 77.4943 328.043 73.2357 332.38 72.165M331.881 68.1855C320.638 70.5428 325.777 82.4443 336.622 81.0695C341.547 80.4451 343.217 76.1601 341.588 72.9883C340.889 71.626 339.526 70.4774 337.896 69.6934C336.694 69.1151 333.255 67.8981 331.881 68.1855" fill="#02C3A3"/>
<path fill-rule="evenodd" clip-rule="evenodd" d="M279.428 93.0314C289.322 92.7764 299.216 92.5214 309.119 92.4525C314.486 92.4152 319.824 92.4857 325.183 92.7165C327.56 92.8189 329.936 92.9178 332.314 92.9933C332.724 93.0063 333.291 92.9854 333.917 92.9623C335.389 92.9079 337.187 92.8415 338.033 93.1773C342.764 95.0567 333.125 95.2627 331.953 95.2479C329.329 95.2147 326.708 95.1174 324.087 95.0201C321.796 94.9351 319.505 94.85 317.212 94.8078C302.501 94.5364 287.7 95.0327 272.965 95.5268C269.587 95.6401 266.212 95.7532 262.843 95.857C259.265 95.9672 255.689 96.0385 252.113 96.1099C247 96.2118 241.889 96.3138 236.777 96.5294C234.825 96.6117 232.873 96.699 230.922 96.7862L230.921 96.7862L230.921 96.7862L230.921 96.7862C228.125 96.9111 225.329 97.0361 222.532 97.1468C220.343 97.2335 218.152 97.3175 215.96 97.359C215.565 97.3665 215.05 97.4077 214.489 97.4527C213.13 97.5616 211.494 97.6927 210.61 97.4214C209.547 97.095 208.688 96.6386 209.272 95.6714C209.767 94.8537 211.563 94.9518 212.872 95.0233C213.23 95.0428 213.551 95.0603 213.8 95.0567C217.985 94.9957 222.161 94.8193 226.338 94.6273C227.867 94.557 229.395 94.4848 230.922 94.4127C238.876 94.0371 246.822 93.6618 254.795 93.5597C263.009 93.4545 271.219 93.2429 279.428 93.0314ZM331.099 141.922L333.943 141.896C335.412 141.992 336.069 143.15 335.126 144.04C334.404 144.721 331.625 144.752 329.814 144.772H329.814H329.814C329.312 144.778 328.884 144.782 328.595 144.8C323.867 145.085 319.147 145.214 314.405 145.248C304.417 145.319 294.467 145.641 284.496 146.068C274.289 146.504 264.073 146.669 253.857 146.833H253.857H253.857C246.34 146.954 238.824 147.075 231.311 147.304C227.008 147.436 222.705 147.534 218.4 147.619C217.938 147.628 217.322 147.678 216.627 147.734C213.908 147.955 209.957 148.275 209.061 146.654C208.267 145.215 209.371 144.552 210.986 144.251C210.731 143.399 210.778 142.201 210.805 141.515C210.813 141.309 210.82 141.149 210.815 141.059C210.775 140.199 210.746 139.339 210.718 138.478C210.686 137.504 210.654 136.529 210.604 135.555C210.559 134.67 210.516 133.785 210.474 132.9C210.308 129.407 210.141 125.906 209.783 122.427C209.618 120.821 209.355 119.235 209.094 117.65C208.676 115.121 208.259 112.599 208.24 110.016C208.237 109.552 208.206 108.971 208.171 108.316C207.992 104.964 207.71 99.6639 210.481 98.0499C215.367 95.9089 214.401 102.089 213.97 104.847C213.899 105.302 213.843 105.664 213.829 105.88C213.549 110.466 213.93 114.85 214.544 119.408C214.959 122.485 214.717 125.553 214.474 128.625C214.387 129.722 214.301 130.82 214.244 131.92C214.216 132.463 214.191 133.007 214.166 133.551C214.089 135.223 214.012 136.895 213.844 138.565C213.826 138.746 213.82 139.093 213.812 139.536C213.79 140.785 213.755 142.8 213.399 144.024C214.157 143.999 214.893 144.005 215.501 144.01C215.888 144.013 216.224 144.016 216.48 144.01C217.646 143.984 218.813 143.958 219.979 143.933H219.979H219.979L219.981 143.933C223.426 143.857 226.872 143.781 230.316 143.684C238.449 143.454 246.585 143.377 254.72 143.301H254.72H254.72C264.329 143.21 273.937 143.119 283.542 142.777C299.37 142.212 315.253 142.067 331.099 141.922ZM334.035 97.0875C334.027 104.943 334.836 112.584 335.781 120.408C336.366 125.248 336.834 130.107 337.208 134.959C337.225 135.183 337.222 135.558 337.219 136.028C337.2 138.711 337.159 144.492 340.69 143.109C343.357 142.065 342.332 136.01 341.765 132.66C341.641 131.925 341.538 131.32 341.502 130.927C341.424 130.089 341.348 129.252 341.271 128.414C340.916 124.524 340.561 120.637 340.094 116.752L339.996 115.933L339.996 115.932C339.455 111.445 338.914 106.961 338.818 102.453C338.81 102.08 338.858 101.561 338.912 100.975V100.974C339.068 99.2773 339.276 97.0174 338.337 96.1159C337.016 94.8477 334.038 95.2226 334.035 97.0875Z" fill="#02C3A3"/>
<path fill-rule="evenodd" clip-rule="evenodd" d="M279.881 116.346C292.517 112.053 305.301 107.711 318.442 104.618C319.391 104.395 319.992 105.131 319.776 105.748C319.554 106.384 317.498 106.926 316.135 107.286C315.727 107.393 315.382 107.485 315.165 107.557C313.33 108.173 311.49 108.781 309.649 109.389C307.765 110.011 305.88 110.634 304.001 111.264C300.093 112.576 296.181 113.881 292.269 115.186C288.08 116.584 283.891 117.982 279.706 119.387C279.548 119.44 279.389 119.494 279.231 119.547C284.92 121.065 290.578 122.651 296.211 124.285C298.136 124.844 300.054 125.414 301.972 125.984C303.058 126.306 304.143 126.629 305.23 126.949C305.584 127.053 306.2 127.195 306.94 127.364C309.353 127.917 313.085 128.773 313.36 129.637C313.809 131.045 308.657 129.683 306.713 129.169C306.455 129.101 306.254 129.048 306.13 129.018C303.261 128.33 300.427 127.563 297.594 126.796L297.203 126.69C294.958 126.083 292.716 125.469 290.474 124.855C286.095 123.656 281.717 122.457 277.314 121.307C276.692 121.145 276.069 120.982 275.445 120.821C268.38 123.204 261.329 125.609 254.301 128.053C250.532 129.364 246.784 130.705 243.046 132.064C242.23 132.361 241.22 132.819 240.122 133.317C237.492 134.511 234.361 135.932 232.207 135.897C231.052 135.877 230.273 135.692 230.153 134.64C230.029 133.556 231.882 132.987 233.215 132.578C233.534 132.48 233.823 132.391 234.048 132.306C238.043 130.806 242.063 129.344 246.094 127.9C254.101 125.032 262.183 122.279 270.293 119.581C270.34 119.565 270.387 119.55 270.433 119.534C265.935 118.391 261.425 117.275 256.904 116.183C256.453 116.074 255.527 115.882 254.311 115.629C248.564 114.434 236.322 111.888 236.868 110.401C237.492 108.7 248.969 111.809 254.051 113.185C255.003 113.443 255.73 113.64 256.12 113.734C262.195 115.187 268.253 116.682 274.279 118.245C276.144 117.616 278.011 116.982 279.881 116.346Z" fill="#02C3A3"/>
<path fill-rule="evenodd" clip-rule="evenodd" d="M225.735 153.707C229.434 154.194 232.044 156.859 231.638 159.649C231.089 163.419 226.085 165.147 221.462 164.655C216.217 164.097 215.114 160.767 217.655 157.564C218.218 156.855 218.865 156.006 219.888 155.633C220.591 155.376 221.486 155.603 222.053 155.396C224.038 154.671 222.844 153.515 225.735 153.707M224.051 151.245C219.538 151.678 211.198 155.599 211.62 159.523C211.986 159.978 212.537 160.164 213.273 160.082C213.096 160.932 213.153 161.773 213.446 162.605C213.874 163.685 214.73 164.57 215.876 165.273C218.236 166.721 221.463 167.077 224.402 166.823C229.89 166.349 234.216 163.533 234.524 159.247C234.825 155.063 229.961 150.684 224.051 151.245" fill="#02C3A3"/>
<path fill-rule="evenodd" clip-rule="evenodd" d="M245.913 156.35C243.888 157.156 240.684 158.394 239.496 159.925C238.242 161.542 239.541 163.31 242.184 162.546C244.283 161.939 245.618 160.009 247.856 159.391C249.831 158.846 250.628 159.124 252.715 159.667C254.867 160.227 256.747 160.768 259.073 160.63C261.996 160.458 264.527 159.185 267.388 158.896C269.797 158.652 271.784 159.356 274.091 159.636C276.767 159.96 278.517 159.2 281.021 158.804C282.725 158.534 285.727 159.631 286.97 159.22C289.763 158.298 286.808 157.171 285.261 156.798C282.656 156.171 281.053 156.724 278.575 157.245C275.885 157.81 274.723 157.385 272.151 156.866C266.948 155.816 262.929 158.354 257.997 157.893C253.431 157.466 250.699 154.448 245.913 156.35" fill="#02C3A3"/>
<path fill-rule="evenodd" clip-rule="evenodd" d="M330.989 154.475C335.997 158.001 330.371 163.016 324.849 160.199C322.906 159.207 322.875 157.614 324.387 156.189C325.77 154.886 328.81 154.378 330.989 154.475V154.475ZM329.133 151.626C324.454 152.31 320.04 153.922 319.617 157.976C319.203 161.932 324.608 163.77 329.148 163.51C339.34 162.927 338.604 150.251 329.133 151.626V151.626Z" fill="#02C3A3"/>
<path fill-rule="evenodd" clip-rule="evenodd" d="M439.962 20.2347C436.22 20.289 426.978 21.3111 425.604 24.6354C424.561 27.1587 427.659 26.6047 429.319 25.6865C431.566 24.4449 433.535 23.7018 436.319 23.324C446.921 21.884 457.109 27.0478 467.609 27.7009C471.587 27.9483 476.387 28.1094 480.185 27.1422C482.89 26.4534 483.243 24.9516 480.156 24.7228C477.534 24.5285 474.632 25.1409 471.943 25.1235C460.818 25.0521 450.928 20.0776 439.962 20.2347" fill="#02C3A3"/>
<path fill-rule="evenodd" clip-rule="evenodd" d="M46.7267 178.106C39.5661 178.166 32.4091 178.365 25.2627 178.704C18.4666 179.028 11.0928 178.782 4.40747 179.771C2.50914 180.052 -0.0551945 181.351 2.46895 182.78C4.24314 183.785 10.7342 182.629 12.8528 182.531C20.655 182.171 28.4611 181.74 36.2743 181.533C43.671 181.336 51.0672 181.267 58.4674 181.212C59.5973 181.204 61.4728 180.931 62.5979 181.178C64.2144 181.532 63.831 181.628 63.952 183.169C64.1715 185.961 64.1108 188.762 64.0371 191.557C63.9658 194.261 63.8326 196.964 63.8456 199.67C63.8546 201.6 63.033 205.435 64.3228 207.111C66.1794 209.524 68.1053 206.903 68.244 205.3C68.5096 202.234 68.3906 199.13 68.3918 196.059C68.3926 193.177 68.4202 190.295 68.285 187.415C68.1869 185.334 68.5829 181.702 67.0901 179.81C65.5697 177.884 61.909 178.299 59.2379 178.207C55.0712 178.063 50.897 178.073 46.7267 178.106" fill="#02C3A3"/>
<path fill-rule="evenodd" clip-rule="evenodd" d="M1.16726 181.584C1.17514 186.998 0.340852 192.377 0.107157 197.786C-3.51101e-05 200.273 -0.217572 203.003 0.620261 205.444C1.46598 207.909 4.15209 208.443 4.46145 205.692C5.08805 200.12 4.93435 194.342 5.42224 188.725C5.59445 186.742 6.71524 183.107 5.66894 181.25C4.74756 179.615 1.16332 179.301 1.16726 181.584" fill="#02C3A3"/>
<path fill-rule="evenodd" clip-rule="evenodd" d="M68.3141 205.452C55.8786 206.688 42.8784 206.237 30.3542 206.431C24.3456 206.525 18.3381 206.531 12.3286 206.578C10.2313 206.594 4.90515 205.995 3.09076 206.88C0.202481 208.29 3.33628 209.377 5.2484 209.408C17.1077 209.603 29.0991 209.194 40.956 208.902C46.2833 208.77 51.628 208.706 56.9411 208.366C60.212 208.157 63.7864 207.954 66.9627 207.294C67.6394 207.153 69.1129 207.183 69.2646 206.489C69.358 206.061 69.1886 205.361 68.3141 205.452" fill="#02C3A3"/>
<path fill-rule="evenodd" clip-rule="evenodd" d="M16.6038 213.323C13.1476 213.338 2.73266 212.133 1.30133 214.663C-0.606853 218.038 6.8371 217.25 8.83907 217.212C13.3861 217.124 17.9299 217.115 22.4781 217.116C26.9408 217.118 31.403 217.096 35.8649 217.016C37.1575 216.993 40.1664 217.396 40.91 216.227C41.4752 215.339 41.0287 214.638 39.9863 214.168C37.4783 213.036 30.9628 213.692 28.0265 213.59C24.2247 213.459 20.4103 213.323 16.6038 213.323" fill="#02C3A3"/>
<path fill-rule="evenodd" clip-rule="evenodd" d="M58.6502 213.948C56.6751 214.036 52.6798 213.425 50.9103 214.103C48.8993 214.875 49.6079 216.083 51.3442 216.614C52.5466 216.981 57.479 216.788 58.6502 216.362C59.8711 215.918 61.2516 213.827 58.6502 213.948" fill="#02C3A3"/>
<path fill-rule="evenodd" clip-rule="evenodd" d="M80.305 182.115C78.1954 182.55 78.8354 191.542 78.781 192.968C78.6321 196.874 78.0472 201.786 79.7757 205.548C80.878 207.946 82.995 207.62 82.6344 205.096C82.3176 202.88 81.7741 200.69 81.5389 198.459C81.0068 193.413 80.2829 188.03 80.7854 182.979C80.9994 183.273 83.0006 185.995 83.4715 185.792C83.3292 185.855 81.1633 181.945 80.305 182.115" fill="#02C3A3"/>
<path fill-rule="evenodd" clip-rule="evenodd" d="M104.035 178.803C99.7654 178.85 95.4962 178.907 91.2282 178.996C87.8347 179.067 82.5023 178.648 79.3902 179.72C75.6846 180.996 77.4426 183.84 80.9232 183.9C84.0022 183.953 87.2858 183.432 90.3928 183.352C98.7849 183.136 107.192 183.09 115.588 183.036C123.181 182.987 131.097 183.595 138.624 182.739C139.741 190.182 136.721 197.657 137.748 205.187C137.907 206.355 137.836 208.006 139.818 208.272C142.319 208.609 142.422 206.748 142.517 205.416C142.788 201.613 142.641 197.807 143.012 193.998C143.356 190.469 144.032 186.862 143.46 183.327C142.757 178.977 139.981 179.326 135.074 179.145C124.71 178.763 114.41 178.689 104.035 178.803" fill="#02C3A3"/>
<path fill-rule="evenodd" clip-rule="evenodd" d="M89.7271 205.234C87.5517 205.275 83.9387 204.772 82.5448 206.338C81.0946 207.968 82.8152 209.389 84.924 209.724C87.4201 210.12 90.6749 209.577 93.2656 209.571C95.9636 209.565 98.6623 209.588 101.36 209.596C112.927 209.63 124.544 209.761 136.102 209.402C137.717 209.352 142.298 209.758 143.415 208.596C144.407 207.564 143.713 206.639 142.407 206.114C140.265 205.252 135.865 205.58 133.482 205.512C130.54 205.428 127.594 205.4 124.649 205.366C113.028 205.231 101.347 205.018 89.7271 205.234" fill="#02C3A3"/>
<path fill-rule="evenodd" clip-rule="evenodd" d="M99.5118 212.768C95.1831 212.823 90.5648 212.68 86.2791 213.173C82.5108 213.607 82.047 216.342 86.1033 216.662C89.831 216.956 94.3504 216.406 98.0963 216.226C99.4267 216.162 100.974 216.253 101.612 215.148C102.277 213.995 101.005 212.888 99.5118 212.768" fill="#02C3A3"/>
<path fill-rule="evenodd" clip-rule="evenodd" d="M132.236 213.055C129.926 213.098 123.177 212.352 122.033 214.334C120.128 217.632 129.264 216.379 131.016 216.331C133.225 216.27 141.834 217.238 141.836 214.598C141.838 212.009 134.352 213.015 132.236 213.055" fill="#02C3A3"/>
<path fill-rule="evenodd" clip-rule="evenodd" d="M0.793625 229.447C0.799142 235.448 0.301802 241.506 1.03087 247.491C1.33234 249.967 1.28072 254.71 3.19047 256.808C4.54614 258.298 6.42634 258.194 7.16683 256.405C7.66181 255.209 6.87008 252.817 6.78181 251.538C6.69669 250.31 6.59737 249.083 6.52171 247.855C6.32742 244.691 6.34279 241.532 6.40072 238.366C6.45038 235.651 7.32092 232.058 6.50004 229.447C5.73471 227.013 0.793625 226.444 0.793625 229.447" fill="#02C3A3"/>
<path fill-rule="evenodd" clip-rule="evenodd" d="M81.1158 224.168C67.2498 224.429 53.3527 224.196 39.4989 224.711C32.6665 224.965 25.861 225.523 19.063 226.079C15.7231 226.353 12.3851 226.635 9.05113 226.943C8.04502 227.036 -0.315182 227.28 2.82925 229.667C4.20226 230.71 8.57153 229.621 10.3004 229.467C13.6478 229.17 17.0019 228.911 20.354 228.645C26.7327 228.139 33.1193 227.659 39.5253 227.393C54.6122 226.765 69.7614 226.953 84.8632 226.535C88.9484 226.422 93.0213 226.341 97.108 226.461C98.1811 226.493 106.067 226.794 102.643 224.607C101.024 223.573 94.92 224.106 92.8968 224.075C88.97 224.014 85.041 224.094 81.1158 224.168" fill="#02C3A3"/>
<path fill-rule="evenodd" clip-rule="evenodd" d="M100.019 234.278C99.95 231.505 99.8814 228.733 99.7133 225.963C99.5363 223.045 104.829 222.603 106.399 224.965C107.529 226.665 107.33 229.558 107.16 232.037C107.091 233.036 107.027 233.968 107.056 234.728C107.124 236.469 107.294 238.27 107.467 240.094C107.902 244.686 108.351 249.429 107.208 253.762C106.653 255.869 104.287 256.976 102.712 255.828C102.71 255.83 102.707 255.833 102.705 255.835C102.113 256.491 100.269 256.489 98.9108 256.488C98.5367 256.488 98.1996 256.487 97.9356 256.501C94.215 256.691 90.5634 257.011 86.8759 257.426C79.5285 258.253 72.2449 258.761 64.8179 258.899C59.7786 258.993 54.7322 259.024 49.6844 259.056C40.0185 259.116 30.3477 259.176 20.7127 259.673C17.4642 259.84 14.265 260.127 11.0697 260.587C10.7977 260.626 10.4957 260.676 10.1742 260.73C7.79832 261.127 4.35887 261.701 4.12387 259.208C3.84455 256.249 12.3854 255.861 16.7806 255.662C17.4517 255.632 18.0261 255.605 18.4577 255.575C31.8032 254.643 45.3581 254.788 58.7602 254.93C59.4096 254.937 60.0586 254.944 60.7072 254.951C61.7531 254.962 62.7987 254.975 63.844 254.988C69.5822 255.059 75.3136 255.129 81.0501 254.866C83.6605 254.746 86.305 254.684 88.9545 254.623C93.1814 254.524 97.4209 254.426 101.555 254.089C100.931 252.274 100.822 250.132 100.72 248.113C100.68 247.327 100.641 246.56 100.572 245.838C100.209 241.99 100.114 238.134 100.019 234.278Z" fill="#02C3A3"/>
<path fill-rule="evenodd" clip-rule="evenodd" d="M111.241 228.1C109.368 228.291 107.805 229.495 108.641 231.022C109.695 232.944 112.832 232.193 114.905 232.071C121.492 231.684 128.37 232.458 134.878 231.874C136.656 231.714 139.234 230.987 137.638 229.194C136.439 227.846 132.068 228.083 130.211 227.954C123.857 227.512 117.586 227.63 111.241 228.1" fill="#02C3A3"/>
<path fill-rule="evenodd" clip-rule="evenodd" d="M122.359 236.487C119.804 236.616 113.857 236.514 112.78 238.697C110.849 242.613 118.413 241.233 120.717 241.01C123.392 240.751 129.699 241.444 131.124 239.496C133.671 236.012 124.6 236.371 122.359 236.487Z" fill="#02C3A3"/>
<path fill-rule="evenodd" clip-rule="evenodd" d="M115.789 245.08C114.577 245.99 114.576 247.616 115.789 248.526C117.275 249.641 120.513 249.41 122.466 249.491C125.19 249.605 133.012 250.687 134.364 248.279C136.189 245.03 129.106 245.098 126.776 244.913C124.083 244.701 118.021 243.403 115.789 245.08" fill="#02C3A3"/>
<path fill-rule="evenodd" clip-rule="evenodd" d="M20.3157 189.465C20.3157 192.958 27.5815 192.958 27.5815 189.465C27.5815 185.991 20.3157 185.938 20.3157 189.465" fill="#02C3A3"/>
<path fill-rule="evenodd" clip-rule="evenodd" d="M34.0975 189.504C34.0975 193.498 42.3734 193.49 42.3734 189.504C42.3734 185.525 34.0975 185.484 34.0975 189.504" fill="#02C3A3"/>
<path fill-rule="evenodd" clip-rule="evenodd" d="M25.7602 194.814C21.7373 195.648 25.4433 198.208 27.3113 198.793C30.28 199.722 34.3316 200.407 37.3011 199.014C38.4826 198.459 39.4418 197.722 38.576 196.646C37.6534 195.5 36.3904 196.01 34.9858 196.115C33.2065 196.25 31.7685 196.229 30.0503 195.801C28.7679 195.481 27.1588 194.525 25.7602 194.814" fill="#02C3A3"/>
<path fill-rule="evenodd" clip-rule="evenodd" d="M98.7306 189.686C98.7306 192.048 103.617 192.048 103.617 189.686C103.617 187.323 98.7306 187.323 98.7306 189.686" fill="#02C3A3"/>
<path fill-rule="evenodd" clip-rule="evenodd" d="M109.536 190.041C109.536 192.666 114.964 192.667 114.964 190.041C114.964 187.416 109.536 187.416 109.536 190.041" fill="#02C3A3"/>
<path fill-rule="evenodd" clip-rule="evenodd" d="M109.134 195.738C106.283 196.014 98.0363 196.642 97.5749 199.281C96.8631 203.352 105.899 200.057 107.961 199.737C110.588 199.33 112.933 199.437 115.556 199.516C116.995 199.559 118.91 199.734 118.759 198.087C118.512 195.383 111.626 195.498 109.134 195.738" fill="#02C3A3"/>
<path fill-rule="evenodd" clip-rule="evenodd" d="M37.447 233.283C35.3804 233.697 32.6769 236.38 34.0988 238.022C36.4302 240.714 37.4584 236.58 38.4342 236.182C40.2095 235.458 41.6507 238.104 43.5061 236.716C46.4338 234.526 39.2901 232.913 37.447 233.283" fill="#02C3A3"/>
<path fill-rule="evenodd" clip-rule="evenodd" d="M61.1269 231.293C58.6761 231.31 53.5021 233.915 53.1356 235.839C52.918 236.982 53.9273 238.08 55.5683 238.095C57.8028 238.116 58.5129 235.934 60.4498 235.478C62.5393 234.986 62.2292 236.119 64.0337 236.706C65.3543 237.137 67.0059 236.957 67.4646 235.737C68.33 233.438 63.6451 231.257 61.1269 231.293" fill="#02C3A3"/>
<path fill-rule="evenodd" clip-rule="evenodd" d="M42.3668 242.307C38.4468 244.032 44.8968 247.729 47.1329 248.192C50.5086 248.889 57.3027 247.587 58.1027 244.491C58.4212 243.259 57.3946 242.143 55.5833 242.363C54.0921 242.545 53.1356 243.949 51.7544 244.453C49.8899 245.131 48.2324 245.085 46.6481 244.063C45.3575 243.231 44.6663 241.301 42.3668 242.307" fill="#02C3A3"/>
<path fill-rule="evenodd" clip-rule="evenodd" d="M45.2079 267.793C41.7056 268.354 38.1454 267.978 34.6262 268.505C31.0377 269.043 28.893 270.061 25.559 269.035C25.4022 268.985 25.2457 268.936 25.0893 268.886C22.5088 268.052 19.8041 267.804 17.1031 269.135C15.5046 269.922 10.6522 272.644 11.237 274.305C12.5044 277.907 17.9645 272.259 19.3569 271.709C22.0118 270.659 23.8321 272 26.5655 272.379C29.8396 272.832 32.4741 271.533 35.5583 271.016C39.1653 270.41 43.2233 270.2 46.893 269.876C48.3429 269.748 53.8345 270.609 54.3303 269.254C55.1819 266.927 46.5845 267.574 45.2079 267.793" fill="#02C3A3"/>
<path fill-rule="evenodd" clip-rule="evenodd" d="M70.476 275.046C70.7049 275.177 70.5213 275.072 70.476 275.046ZM80.2849 267.652C83.2831 267.424 92.876 265.816 94.8457 268.142C96.1284 269.657 94.0926 275.25 92.1505 275.973C90.5982 276.551 86.9824 275.912 85.2791 275.867C82.1099 275.783 78.9339 275.746 75.7682 275.597C74.7065 275.548 71.2902 275.694 70.4578 274.989C69.475 274.155 69.5187 269.714 69.2874 268.613C72.0441 269.283 77.4025 267.872 80.2849 267.652M86.6872 265.372C82.8472 265.497 79.008 265.713 75.1968 266.1C73.0722 266.315 70.9197 266.889 68.9575 267.16C68.325 267.248 67.2984 267.005 66.5229 267.286C64.2565 268.108 66.2411 273.667 66.7877 275.152C67.6271 277.433 69.7398 277.803 72.6998 278.018C76.5989 278.301 80.578 278.212 84.4894 278.176C88.2596 278.142 93.3434 278.769 95.4588 275.928C96.8263 274.092 98.2931 269.815 97.1243 267.768C95.5865 265.075 89.845 265.272 86.6872 265.372" fill="#02C3A3"/>
<path fill-rule="evenodd" clip-rule="evenodd" d="M129.688 276.574C129.483 276.772 129.483 276.772 129.688 276.574ZM130.53 275.813C130.466 275.885 130.171 276.119 130.53 275.813ZM121.372 275.603C123.065 275.364 124.758 275.128 126.453 274.895C124.848 276.582 123.158 275.885 120.417 275.738C120.735 275.693 121.054 275.648 121.372 275.603M113.297 275.007C113.726 274.899 114.155 274.791 114.584 274.683C114.571 274.928 114.641 275.158 114.794 275.372C114.06 275.312 113.326 275.248 112.593 275.181C112.827 275.123 113.062 275.065 113.297 275.007M109.554 272.932C109.53 272.489 110.417 272.793 110.925 272.763C109.945 273.41 109.488 273.467 109.554 272.932M122.938 267.912C123.067 267.789 123.237 267.795 123.45 267.931C123.218 267.989 122.326 268.273 122.938 267.912M131.617 267.146C131.64 267.146 132.122 267.634 131.617 267.146ZM131.374 266.986C131.5 267.058 131.5 267.058 131.374 266.986ZM130.29 266.891C132.065 267.116 131.93 268.679 130.29 266.891ZM109.441 266.784C109.081 267.009 109.204 266.791 109.441 266.784ZM116.228 263.455C113.215 263.587 107.685 263.454 105.168 264.659C101.885 266.233 103.613 271.648 103.907 274.023C104.341 277.532 106.54 278.531 110.942 278.9C116.194 279.339 121.591 279.421 126.871 279.317C131.626 279.223 134.335 277.995 135.206 274.236C135.472 273.086 136.149 271.306 136.128 270.204C136.114 269.44 135.606 269.092 135.414 268.442C134.322 264.742 132.496 264.303 127.446 264.142C123.729 264.023 119.875 263.312 116.228 263.455" fill="#02C3A3"/>
<path fill-rule="evenodd" clip-rule="evenodd" d="M275.821 178.458C283.481 178.58 292.172 181.764 290.961 188.507C290.073 193.448 284.377 197.458 277.78 197.804C270.689 198.175 263.192 194.089 262.229 188.668C261.145 182.571 268.331 178.336 275.821 178.458M272.065 175.713C268.959 176.061 265.992 177.285 263.258 178.382C262.214 178.801 256.922 181.355 261.073 181.989C251.072 194.099 274.607 205.347 287.839 197.477C293.781 193.942 296.909 187.242 293.068 181.996C289.096 176.572 279.675 174.855 272.065 175.713" fill="#02C3A3"/>
<path fill-rule="evenodd" clip-rule="evenodd" d="M270.234 186.02C270.234 188.282 274.91 188.282 274.91 186.02C274.91 183.759 270.234 183.759 270.234 186.02" fill="#02C3A3"/>
<path fill-rule="evenodd" clip-rule="evenodd" d="M278.903 186.383C278.903 188.835 283.972 188.835 283.972 186.383C283.972 183.931 278.903 183.931 278.903 186.383" fill="#02C3A3"/>
<path fill-rule="evenodd" clip-rule="evenodd" d="M273.053 191.232C272.371 193.092 280.149 194.046 280.408 191.893C280.531 190.864 273.527 189.934 273.053 191.232" fill="#02C3A3"/>
<path fill-rule="evenodd" clip-rule="evenodd" d="M295.853 190.082C304.803 189.276 314.031 189.648 323.024 189.842C325.275 189.891 327.525 189.938 329.777 189.966C331.207 189.984 334.298 190.5 335.547 189.997C340.661 187.937 330.629 186.942 329.208 186.847C320.263 186.294 306.458 186.097 297.486 186.358C294.832 186.435 294.259 190.226 295.853 190.082" fill="#02C3A3"/>
<path fill-rule="evenodd" clip-rule="evenodd" d="M336.127 223.489C336.204 216.448 336.54 209.359 337.261 202.339C337.554 199.478 337.907 196.62 338.198 193.759C338.336 192.411 338.974 190.523 337.919 189.34C336.831 188.122 334.446 187.868 333.009 188.948C331.289 190.621 331.789 193.427 331.575 195.45C331.246 198.561 330.848 201.669 330.651 204.786C330.269 210.819 330.18 216.957 330.825 222.981C331.13 225.824 331.791 228.598 332.671 231.37C333.071 232.632 336.257 238.254 335.587 239.03C334.549 240.232 326.878 239.777 325.214 239.811C320.944 239.897 316.672 239.953 312.401 240.014C308.744 240.067 305.087 240.104 301.43 240.129C299.978 240.138 291.446 239.944 293.339 241.561C272.174 242.668 250.605 240.819 229.57 240.185C228.507 240.153 226.769 239.927 225.164 239.862C224.972 239.28 224.814 238.759 224.775 238.398C224.498 235.859 224.426 233.312 224.126 230.775C223.578 226.131 222.514 221.535 221.882 216.899C221.251 212.269 221.314 207.624 220.946 202.983C220.883 202.187 220.735 195.672 218.545 194.089C219.583 194.385 221.257 194.423 222.221 194.365C230.024 193.892 237.77 192.874 245.507 192C247.72 191.75 252.743 191.927 254.579 191.097C256.168 190.377 256.796 187.856 254.032 188.06C246.318 188.68 238.645 189.643 230.992 190.592C228.945 190.845 226.903 191.116 224.861 191.393C223.498 191.578 219.899 191.564 218.841 192.181C217.557 192.931 217.421 193.44 217.856 193.779C217.251 193.654 216.526 193.851 215.655 194.505C214.008 196.115 215.556 200.079 215.752 201.966C215.988 204.23 216.104 206.497 216.242 208.765C216.507 213.154 217.119 217.482 218.059 221.817C219.113 226.675 220.009 231.552 221.066 236.408C221.341 237.672 221.699 238.905 222.157 240.126C219.311 241.22 221.246 242.958 223.503 243.266C223.519 243.269 223.536 243.27 223.553 243.272C224.256 244.561 225.24 245.755 226.009 244.028C226.068 243.896 226.095 243.733 226.102 243.549C231.933 244.045 238.341 243.737 244.081 243.913C256.515 244.295 269.026 244.867 281.472 244.577C286.399 244.462 291.341 244.134 296.227 243.64C299.09 243.351 301.964 243.006 304.781 242.526C304.982 242.492 305.289 242.456 305.643 242.412C305.701 242.411 305.76 242.41 305.815 242.409C310.128 242.361 314.437 242.274 318.747 242.139C322.365 242.026 325.998 241.968 329.604 241.712C331.844 241.553 336.577 241.583 337.952 239.891C339.203 238.354 337.112 234.392 336.815 232.665C336.293 229.624 336.094 226.554 336.127 223.489" fill="#02C3A3"/>
<path fill-rule="evenodd" clip-rule="evenodd" d="M292.416 203.158C288.97 203.38 285.783 204.595 282.305 204.61C279.385 204.623 276.511 203.967 273.576 204.064C270.132 204.177 268.238 205.849 265.222 206.409C262.82 206.854 261.307 205.473 259.195 204.863C256.529 204.092 254.559 204.49 252.273 205.656C250.593 206.513 246.677 208.436 246.707 210.169C246.797 215.419 254.954 208.167 256.599 208.079C258.784 207.962 261.225 209.832 263.55 209.939C266.623 210.08 268.594 208.592 271.424 208.05C274.286 207.502 277.38 208.174 280.249 208.382C283.523 208.62 286.388 208.072 289.555 207.485C292.625 206.917 295.24 206.947 298.359 207.424C300.464 207.747 305.708 209.621 306.628 207.211C307.882 203.93 294.826 203.004 292.416 203.158" fill="#02C3A3"/>
<path fill-rule="evenodd" clip-rule="evenodd" d="M293.466 213.171C286.404 213.686 279.299 214.137 272.205 214.282C269.132 214.344 257.32 213.356 258.368 216.287C259.266 218.801 275.339 217.218 278.613 217.027C282.228 216.816 285.836 216.521 289.433 216.179C290.707 216.058 293.785 216.184 294.685 215.381C295.542 214.615 295.119 213.047 293.466 213.171" fill="#02C3A3"/>
<path fill-rule="evenodd" clip-rule="evenodd" d="M244.748 226.522C244.587 226.573 244.587 226.573 244.748 226.522ZM246.238 226.507C247.998 226.465 247.621 225.768 249.377 226.131C250.187 226.299 250.27 226.05 250.898 226.632C252.124 227.766 250.97 230.236 249.762 231.149C245.29 234.533 239.923 226.657 246.238 226.507M246.238 223.187C233.995 223.496 239.117 237.696 249.773 234.797C254.173 233.6 256.939 228.207 254.351 225.176C253.092 223.702 251.487 223.44 249.377 223.337C248.888 223.314 248.271 223.848 247.966 223.824C247.239 223.766 247.307 223.157 246.238 223.187" fill="#02C3A3"/>
<path fill-rule="evenodd" clip-rule="evenodd" d="M275.514 227.009C275.296 226.958 279.38 227.85 278.933 227.501C279.886 228.245 278.604 230.006 277.526 230.313C274.914 231.058 273.448 228.008 275.514 227.009M277.326 223.158C273.493 223.566 270.535 224.765 270.011 227.966C269.527 230.92 272.186 233.912 276.379 233.969C285.519 234.095 285.798 222.271 277.326 223.158" fill="#02C3A3"/>
<path fill-rule="evenodd" clip-rule="evenodd" d="M319.053 227.138C319.588 232.384 312.343 227.582 319.053 227.138ZM315.944 221.525C315.31 222.339 315.85 223.202 316.806 223.674C308.26 225.03 310.196 234.687 318.892 233.26C323.315 232.535 324.128 229.043 323.469 226.16C323.155 224.789 318.605 218.108 315.944 221.525" fill="#02C3A3"/>
<path opacity="0.5" fill-rule="evenodd" clip-rule="evenodd" d="M336.162 226.564C333.614 226.904 327.592 229.017 327.644 231.285C327.726 234.827 332.844 230.958 333.983 230.438C340.099 227.643 348.021 231.265 354.39 232.036C357.31 232.389 363.022 233.042 365.601 231.572C370.188 228.959 359.58 229.614 358.229 229.509C350.886 228.939 343.581 225.569 336.162 226.564" fill="#02C3A3"/>
<path fill-rule="evenodd" clip-rule="evenodd" d="M456.492 201.661C456.49 205.285 456.246 208.984 457.135 212.565C457.405 213.649 457.617 215.725 459.14 216.288C460.67 216.852 462.153 216.218 462.533 215.04C462.977 213.67 462.004 211.62 461.906 210.182C461.77 208.217 461.761 206.25 461.76 204.283C461.759 202.862 462.382 200.577 460.148 199.846C458.488 199.302 456.492 200.313 456.492 201.661" fill="#02C3A3"/>
<path fill-rule="evenodd" clip-rule="evenodd" d="M532.794 195.929C516.804 197.134 500.583 197.385 484.534 198.013C477.115 198.304 468.15 197.933 461.161 200.089C459.864 200.49 455.215 202.718 458.989 203.626C460.165 203.909 461.36 202.957 462.326 202.638C463.934 202.108 465.796 201.944 467.512 201.737C482.094 199.979 497.348 200.285 512.08 199.463C515.856 199.253 519.632 199.036 523.399 198.757C526.091 198.559 531.748 197.102 534.232 197.847C538.476 199.12 538.377 207.391 538.461 210.236C538.504 211.707 536.602 216.988 540.383 216.453C543.408 216.024 542.313 210.538 542.077 209.037C541.458 205.104 540.403 195.35 532.794 195.929" fill="#02C3A3"/>
<path fill-rule="evenodd" clip-rule="evenodd" d="M538.692 216.262C524.802 217.204 510.592 216.28 496.645 216.65C489.334 216.845 482.031 217.154 474.72 217.335C471.558 217.414 468.392 217.417 465.229 217.434C463.715 217.442 456.829 218.13 461.089 220.383C462.975 221.38 468.986 220.577 471.151 220.558C474.401 220.529 477.65 220.427 480.899 220.332C488.423 220.111 495.943 219.805 503.472 219.652C510.673 219.506 517.878 219.474 525.079 219.328C528.663 219.255 532.295 219.172 535.846 218.779C536.647 218.691 539.25 218.62 539.807 217.949C540.333 217.315 539.963 216.17 538.692 216.262" fill="#02C3A3"/>
<path fill-rule="evenodd" clip-rule="evenodd" d="M470.426 208.432C470.351 208.565 470.351 208.565 470.426 208.432ZM476.441 207.059C476.66 207.129 476.66 207.129 476.441 207.059ZM476.159 207.021C479.401 209.502 474.416 212.463 471.379 210.042C468.156 207.472 474.073 207.029 476.159 207.021M472.721 203.268C461.556 204.76 465.509 215.933 475.937 214.318C480.515 213.609 483.134 210.146 481.558 206.82C480.942 205.52 479.601 204.093 477.732 203.684C476.8 203.48 475.976 203.801 475.088 203.726C474.242 203.654 473.772 203.125 472.721 203.268" fill="#02C3A3"/>
<path fill-rule="evenodd" clip-rule="evenodd" d="M515.452 206.413C508.719 206.429 501.985 206.643 495.253 206.739C493.188 206.768 487.881 206.075 487.873 208.519C487.864 211.13 493.776 210.166 495.743 210.131C502.42 210.011 509.115 209.791 515.766 209.314C517.445 209.193 523.261 209.401 523.255 207.686C523.249 205.868 516.808 206.413 515.452 206.413" fill="#02C3A3"/>
<path fill-rule="evenodd" clip-rule="evenodd" d="M531.533 223.459C514.881 223.794 498.254 223.911 481.616 224.551C475.393 224.79 469.178 224.968 462.945 224.968C461.745 224.968 459.328 224.619 458.198 225.187C455.132 226.726 458.623 228.048 460.622 228.131C474.29 228.701 488.156 227.283 501.817 226.963C509.814 226.776 517.813 226.721 525.806 226.415C527.986 226.332 530.167 226.235 532.344 226.108C533.596 226.035 536.906 226.235 537.918 225.685C542.336 223.284 533.022 223.429 531.533 223.459" fill="#02C3A3"/>
<path fill-rule="evenodd" clip-rule="evenodd" d="M455.132 229.572C454.975 232.814 454.959 235.999 455.524 239.223C455.746 240.491 455.848 241.931 457.828 242.253C459.627 242.546 460.539 241.525 460.911 240.392C461.821 237.627 461.021 233.646 461.01 230.774C461.005 229.353 461.003 227.764 458.666 227.442C456.882 227.197 455.2 228.165 455.132 229.572" fill="#02C3A3"/>
<path fill-rule="evenodd" clip-rule="evenodd" d="M549.183 237.387C522.228 238.454 495.308 239.385 468.334 240.241C466.23 240.308 449.888 240.174 455.601 244.453C457.366 245.775 461.913 244.88 464.195 244.796C467.624 244.669 471.055 244.573 474.485 244.442C488.082 243.922 501.714 243.782 515.301 243.199C522.778 242.878 530.239 242.375 537.676 241.721C541.214 241.411 545.606 241.443 548.92 240.402C550.624 239.866 552.464 237.257 549.183 237.387" fill="#02C3A3"/>
<path fill-rule="evenodd" clip-rule="evenodd" d="M533.684 220.943C531.634 222.476 532.688 225.5 532.843 227.395C533.055 230.002 533.313 232.611 533.747 235.204C534.029 236.889 533.88 239.51 535.076 240.965C536.478 242.669 539.564 242.481 540.831 240.835C541.952 239.379 541.385 236.316 541.355 234.702C541.315 232.471 541.13 230.237 540.954 228.01C540.806 226.149 541.368 223.167 540.005 221.574C538.619 219.956 535.605 219.509 533.684 220.943" fill="#02C3A3"/>
<path fill-rule="evenodd" clip-rule="evenodd" d="M472.073 232.839C471.833 232.978 471.833 232.978 472.073 232.839ZM476.861 232.389C481.328 233.063 474.105 236.98 471.822 234.292C471.465 233.872 471.28 233.356 471.852 232.991C472.375 232.657 472.703 233.247 473.196 233.089C474.046 232.816 475.954 232.363 476.861 232.389M476.245 229.173C473.195 229.355 469.001 229.496 467.492 231.792C465.464 234.875 468.932 237.895 472.945 238.364C476.806 238.816 482.571 237.21 482.88 233.828C483.129 231.102 479.676 228.964 476.245 229.173" fill="#02C3A3"/>
<path fill-rule="evenodd" clip-rule="evenodd" d="M501.708 230.804C498.55 230.842 492.345 230.141 489.594 231.297C486.872 232.44 488.086 234.476 490.569 234.963C492.21 235.285 494.892 234.766 496.601 234.714C498.849 234.645 501.099 234.63 503.348 234.607C507.131 234.569 510.912 234.601 514.695 234.601C518.559 234.601 522.488 234.68 526.345 234.467C531.226 234.197 531.094 231.453 526.322 231.11C518.214 230.528 509.842 230.708 501.708 230.804" fill="#02C3A3"/>
<path fill-rule="evenodd" clip-rule="evenodd" d="M493.643 261.535C493.643 262.839 495.183 261.535 495.172 261.535C495.183 261.535 493.643 260.231 493.643 261.535" fill="#02C3A3"/>
<path fill-rule="evenodd" clip-rule="evenodd" d="M458.797 251.04C458.896 254.83 458.961 258.623 459.177 262.409C459.245 263.606 458.788 265.945 460.721 266.555C462.872 267.234 463.541 265.541 463.789 264.393C464.574 260.758 463.805 256.607 463.729 252.928C463.704 251.693 464.06 249.973 462.191 249.357C460.667 248.855 458.766 249.788 458.797 251.04" fill="#02C3A3"/>
<path fill-rule="evenodd" clip-rule="evenodd" d="M541.789 251.1C541.917 251.326 541.917 251.326 541.789 251.1ZM541.969 251.061C542.072 251.094 542.49 251.225 541.969 251.061ZM501.2 247.999C493.452 248.09 485.7 248.159 477.957 248.408C474.653 248.514 471.31 248.6 468.017 248.834C465.685 249 459.891 249.069 458.378 250.5C455.256 253.454 461.876 252.648 463.302 252.409C465.897 251.972 468.546 251.832 471.197 251.727C476.949 251.499 482.704 251.377 488.463 251.29C504.082 251.054 519.711 251.09 535.333 251.037C536.845 251.032 539.579 250.575 540.976 251.035C542.375 251.495 542.296 252.627 542.441 253.942C542.635 255.69 541.099 259.023 542.269 260.493C544.085 262.775 546.725 260.838 547.129 259.174C547.686 256.876 546.802 254.116 545.937 251.919C544.716 248.819 543.022 248.696 539.029 248.454C534.363 248.171 529.715 247.999 525.035 247.967C517.092 247.912 509.143 247.906 501.2 247.999" fill="#02C3A3"/>
<path fill-rule="evenodd" clip-rule="evenodd" d="M531.843 263.663C515.039 265.128 497.756 264.265 480.863 264.317C476.754 264.329 472.643 264.354 468.539 264.504C466.371 264.582 461.232 264.134 459.747 265.389C456.617 268.036 462.256 268.421 464.314 268.312C468.477 268.089 472.649 267.988 476.822 267.964C491.521 267.879 506.303 268.393 520.99 267.849C527.142 267.621 533.158 266.831 539.197 265.947C540.535 265.752 549.694 264.444 544.471 262.877C541.385 261.951 535.085 263.379 531.843 263.663" fill="#02C3A3"/>
<path fill-rule="evenodd" clip-rule="evenodd" d="M482.779 258.817C482.662 258.93 482.662 258.93 482.779 258.817ZM482.667 258.798C482.627 258.879 482.503 259.079 482.667 258.798ZM481.607 257.771C481.631 257.795 481.731 257.891 481.607 257.771ZM481.566 257.764C481.971 258.126 482.243 258.531 482.383 258.977C478.901 259.685 477.56 257.571 481.566 257.764M481.346 257.665C481.347 257.665 481.836 257.82 481.346 257.665ZM475.626 254.514C473.373 256.621 471.513 259.076 474.322 261.483C476.834 263.635 481.888 263.912 485.076 262.476C488.36 260.996 488.076 257.879 485.785 255.845C484.31 254.536 483.115 254.572 480.975 254.358C479.518 254.213 476.863 253.362 475.626 254.514" fill="#02C3A3"/>
<path fill-rule="evenodd" clip-rule="evenodd" d="M498.919 258.413C498.919 261.219 515.053 260.011 517.923 260.008C520.328 260.006 534.866 261.002 533.823 258.114C532.965 255.742 518.645 256.921 515.595 256.918C512.959 256.915 498.919 255.556 498.919 258.413" fill="#02C3A3"/>
<path fill-rule="evenodd" clip-rule="evenodd" d="M288.289 284.7C296.369 285.581 304.774 288.434 304.703 295.497C304.644 301.434 298.012 307.754 289.495 307.399C281.831 307.08 274.615 300.787 273.655 295.394C273.158 292.599 274.088 289.591 276.277 287.293C279.145 284.281 283.696 284.286 288.289 284.7M284.472 280.862C278.628 280.886 274.352 282.473 270.735 285.824C269.438 287.025 267.93 288.318 266.942 289.679C266.02 290.95 266.182 294.183 269.346 292.668C268.567 298.926 273.438 305 280.441 308.207C288.053 311.693 296.656 311.013 302.991 306.127C308.79 301.655 310.831 294.1 306.589 288.568C302.349 283.04 292.524 280.803 284.472 280.862" fill="#02C3A3"/>
<path fill-rule="evenodd" clip-rule="evenodd" d="M301.996 279.185C298.255 281.244 294.838 283.955 292.001 286.705C289.227 289.393 287.394 292.749 284.062 295.093C282.38 293.717 280.408 290.001 277.052 291.475C274.267 292.699 276.06 294.803 277.417 296.184C280.919 299.751 284.809 301.187 289.302 297.663C293.382 294.462 295.698 290.192 299.513 286.807C301.186 285.322 303.771 283.847 305.104 282.208C306.312 280.721 304.818 277.627 301.996 279.185" fill="#02C3A3"/>
<path fill-rule="evenodd" clip-rule="evenodd" d="M443.393 55.8942C443.399 56.1749 443.404 56.439 443.412 56.6817C443.586 61.9819 443.485 67.5538 442.912 72.8415C442.714 74.6672 440.945 76.9813 438.927 74.4646C438.04 73.358 438.164 71.0855 438.256 69.4139C438.28 68.9657 438.302 68.5607 438.302 68.233C438.3 66.3678 438.431 64.4835 438.562 62.5942C438.817 58.9005 439.074 55.1874 438.347 51.5597C438.332 51.4863 438.318 51.4157 438.304 51.3477C437.988 49.7524 437.966 49.6422 435.63 49.6785C434.656 49.6937 433.682 49.7134 432.708 49.7332C431.75 49.7527 430.792 49.7721 429.834 49.7872C428.883 49.8022 427.931 49.8159 426.98 49.8297C423.997 49.8728 421.013 49.9159 418.031 49.9978C417.533 50.0116 416.604 50.0991 415.433 50.2094C413.09 50.4301 409.775 50.7423 406.985 50.7405C406.985 50.7495 406.986 50.7585 406.987 50.7676C406.989 50.7837 406.99 50.8 406.991 50.8164C407.022 51.9729 406.626 53.2638 406.227 54.5608C405.893 55.6469 405.558 56.7372 405.472 57.7562C405.268 60.1809 405.265 62.6313 405.263 65.0816C405.26 68.0653 405.258 71.049 404.89 73.9866C404.872 74.1298 404.861 74.2812 404.85 74.4344C404.848 74.4547 404.847 74.4751 404.846 74.4955C404.972 74.481 405.095 74.4708 405.213 74.4652C407.223 74.3695 409.251 74.3609 411.275 74.3524C412.392 74.3477 413.508 74.343 414.619 74.3237C416.614 74.289 418.634 74.2906 420.663 74.2923C425.14 74.2959 429.656 74.2995 434.036 73.9122C435.329 73.7864 435.782 75.0321 435.201 75.6779C434.682 76.256 433.252 76.3496 432.204 76.4182C431.938 76.4357 431.697 76.4515 431.501 76.4732C428.677 76.7872 425.815 76.8968 422.965 76.9917C419.972 77.0912 416.976 77.1657 413.981 77.2283C413.268 77.2431 412.317 77.3153 411.262 77.3953C408.477 77.6067 404.971 77.8728 403.23 77.2815C401.36 76.6461 401.403 75.9406 402.167 75.3941C401.832 74.8413 401.779 74.0336 401.738 73.4018C401.722 73.1606 401.708 72.9451 401.681 72.7792C401.266 70.2637 401.015 67.7804 401.01 65.2433C400.998 60.2737 401.011 55.1125 402.842 50.3021C402.109 50.0611 401.666 49.7057 401.668 49.1934C401.677 46.6126 412.374 46.7439 417.459 46.8064C418.369 46.8175 419.098 46.8265 419.556 46.8173C423.26 46.7447 426.965 46.7352 430.67 46.7503C431.453 46.7534 432.324 46.7149 433.227 46.6751C435.147 46.5903 437.21 46.4993 438.868 46.7887C443.225 47.5482 443.33 52.7585 443.393 55.8942Z" fill="#02C3A3"/>
<path fill-rule="evenodd" clip-rule="evenodd" d="M470.644 47.3543C474.689 47.1936 478.737 47.1567 482.787 47.1455C487.075 47.1292 491.37 47.1871 495.656 47.2861L495.755 47.2883C497.655 47.3312 508.212 47.5693 503.362 49.5446C503.079 49.6598 502.76 49.7561 502.413 49.8361C502.618 50.7507 502.643 51.6951 502.61 52.15C502.485 53.8753 502.402 55.6025 502.32 57.3296L502.32 57.3303C502.264 58.5006 502.208 59.6708 502.138 60.8404C501.948 64.0729 501.766 67.3051 501.618 70.5391C501.599 70.9361 501.627 71.4552 501.658 72.0338V72.0338C501.761 73.947 501.9 76.5105 500.516 77.4581C499.302 78.2902 498.472 78.1234 497.913 77.5583C494.438 78.316 487.302 78.0697 483.713 77.9458C482.848 77.9159 482.19 77.8932 481.838 77.8933C481.209 77.8935 480.04 77.9524 478.564 78.0269C472.419 78.3368 460.949 78.9153 460.926 76.6407C460.923 76.4219 461.018 76.2258 461.196 76.0501C460.709 75.6771 460.271 75.1294 459.99 74.4461C458.98 71.9929 458.885 69.3457 458.81 66.8018C458.704 63.2097 458.703 59.6134 458.702 56.0179V56.0179C458.701 54.1713 458.701 52.325 458.686 50.4795C458.029 49.8171 458.419 49.0596 459.239 48.531C460.984 47.4065 465.315 47.3929 468.448 47.383C469.291 47.3804 470.048 47.378 470.644 47.3543ZM464.061 75.0524C467.96 74.4272 474.53 74.6285 478.049 74.7362C478.971 74.7645 479.684 74.7863 480.085 74.7852C483.679 74.7746 487.275 74.8121 490.867 74.9199C491.239 74.9311 491.79 74.9206 492.44 74.9083C493.744 74.8837 495.444 74.8515 496.888 74.9717C496.869 74.8247 496.856 74.6903 496.848 74.5742C496.686 72.1735 496.803 69.752 496.919 67.344L496.919 67.3425C496.944 66.8311 496.969 66.3204 496.991 65.8106C497.068 64.0104 497.17 62.2111 497.272 60.4118L497.272 60.411C497.337 59.2778 497.401 58.1446 497.459 57.0112C497.485 56.514 497.447 55.8386 497.404 55.0787L497.404 55.0786C497.317 53.5326 497.211 51.6371 497.579 50.1812C496.249 50.1622 494.887 50.0914 493.637 50.0265C492.432 49.964 491.333 49.9069 490.468 49.9068C489.372 49.9067 488.276 49.9042 487.18 49.9016C484.142 49.8946 481.106 49.8876 478.068 49.9328L477.203 49.9454C473.021 50.006 468.804 50.0671 464.656 50.4808C464.413 50.5051 464.121 50.5519 463.798 50.6086C464.253 52.0355 464.03 54.0464 463.835 55.8076L463.835 55.8077C463.74 56.6631 463.652 57.4596 463.651 58.1016C463.645 62.0944 463.786 66.0714 463.926 70.0444L463.926 70.0444C463.979 71.5474 464.032 73.0497 464.077 74.5522C464.082 74.7315 464.077 74.8981 464.061 75.0524Z" fill="#02C3A3"/>
<path fill-rule="evenodd" clip-rule="evenodd" d="M419.686 77.1128C417.027 78.2789 418.461 82.9433 419.382 84.5566C420.896 87.2091 423.968 89.2848 427.282 90.6617C433.982 93.4446 443.64 92.7054 448.707 97.5303C448.759 97.5802 450.511 98.8821 450.91 97.1961C451.237 95.8124 447.967 93.6992 446.7 93.0056C443.097 91.0334 438.476 90.3973 434.309 89.4121C429.864 88.3613 424.987 86.4242 423.123 82.9837C422.463 81.7651 423.721 75.3341 419.686 77.1128" fill="#02C3A3"/>
<path fill-rule="evenodd" clip-rule="evenodd" d="M480.457 79.3553C478.02 79.8596 479.632 82.3765 479.628 83.6368C479.623 85.209 478.954 86.8545 477.663 88.1092C474.391 91.2912 467.983 91.768 463.178 92.6802C459.69 93.3431 451.344 94.7644 451.017 98.3068C450.652 102.263 458.021 97.4486 458.643 97.2513C465.53 95.3544 474.44 94.9881 479.756 90.8126C481.95 89.0891 483.247 86.7887 483.453 84.4144C483.569 83.0776 483.589 78.7127 480.457 79.3553" fill="#02C3A3"/>
<path fill-rule="evenodd" clip-rule="evenodd" d="M430.121 114.445C430.064 107.125 439.393 102.698 447.829 101.032C457.968 99.0266 467.413 104.361 468.608 112.035C469.869 120.133 461.741 126.653 451.02 127.01C441.59 127.325 430.181 122.255 430.121 114.445ZM452.77 104.552C453.319 105.111 453.813 106.005 452.708 106.491C451.646 106.956 451.115 106.397 450.581 105.835C450.243 105.479 449.904 105.122 449.429 105.021C448.196 104.761 446.215 105.734 445.189 106.302C444.772 106.532 444.179 107.028 443.486 107.608C441.279 109.453 438.057 112.148 436.276 109.829C429.173 119.038 446.881 125.93 456.95 122.445C468.008 118.618 465.856 104.624 452.77 104.552Z" fill="#02C3A3"/>
<path fill-rule="evenodd" clip-rule="evenodd" d="M443.49 111.994C443.49 113.674 447.023 113.674 447.023 111.994C447.023 110.333 443.49 110.262 443.49 111.994" fill="#02C3A3"/>
<path fill-rule="evenodd" clip-rule="evenodd" d="M449.706 111.679C449.706 113.737 454.037 113.737 454.037 111.679C454.037 109.645 449.706 109.558 449.706 111.679" fill="#02C3A3"/>
<path fill-rule="evenodd" clip-rule="evenodd" d="M445.258 116.474C441.716 118.038 451.843 121.146 452.243 117.97C452.416 116.6 450.648 116.97 449.471 116.869C448.343 116.773 446.327 116.007 445.258 116.474" fill="#02C3A3"/>
<path fill-rule="evenodd" clip-rule="evenodd" d="M443.722 127.57C443.876 131.565 443.802 135.557 444.811 139.496C445.002 140.244 445.136 142.958 445.923 143.514C447.86 144.881 447.892 142.261 447.967 141.257C448.236 137.66 447.733 133.951 447.622 130.347C447.598 129.571 447.872 127.964 447.384 127.213C446.611 126.021 443.646 125.668 443.722 127.57" fill="#02C3A3"/>
<path fill-rule="evenodd" clip-rule="evenodd" d="M439.934 124.331C432.171 130.874 421.481 130.392 410.711 130.965C405.021 131.268 399.267 131.889 394.688 134.653C392.559 135.938 390.723 137.549 389.489 139.384C388.949 140.186 386.391 144.816 390.233 143.717C391.596 143.328 392.937 140.266 393.819 139.361C395.497 137.636 397.645 136.213 400.221 135.287C405.192 133.502 411.126 133.532 416.515 133.306C422.148 133.069 428.194 132.848 433.372 131.008C435.808 130.143 438.093 129.064 440.054 127.673C440.754 127.176 442.256 126.332 442.368 125.572C442.496 124.703 441.384 123.112 439.934 124.331" fill="#02C3A3"/>
<path fill-rule="evenodd" clip-rule="evenodd" d="M400.744 144.412C393.452 144.595 386.169 144.817 378.887 145.163C377.394 145.234 372.419 145.007 373.686 147.303C374.702 149.144 380.77 147.927 382.777 147.837C390.365 147.499 397.984 147.381 405.557 146.869C407.258 146.754 414.946 146.8 411.771 144.536C410.261 143.459 402.831 144.359 400.744 144.412" fill="#02C3A3"/>
<path fill-rule="evenodd" clip-rule="evenodd" d="M369.056 147.053C366.757 149.32 367.813 154.829 367.987 157.554C368.155 160.195 367.472 165.023 372.063 165.433C370.605 165.289 373.169 165.499 373.586 165.516C374.519 165.554 375.455 165.566 376.388 165.573C378.544 165.591 380.702 165.57 382.857 165.537C387.741 165.464 392.637 165.357 397.514 165.154C399.564 165.069 410.685 165.14 411.126 163.541C411.688 161.498 401.025 162.654 399.116 162.719C394.467 162.879 389.811 162.913 385.158 162.959C382.852 162.981 380.544 162.998 378.237 162.964C377.285 162.951 373.514 163.244 372.935 162.767C372.442 162.361 372.827 158.627 372.816 158.056C372.782 156.195 372.785 154.328 372.873 152.468C372.933 151.215 373.835 148.831 373.1 147.654C372.385 146.51 370.301 146.119 369.056 147.053" fill="#02C3A3"/>
<path fill-rule="evenodd" clip-rule="evenodd" d="M406.605 147.159C406.738 151.306 406.779 155.537 408.084 159.592C408.518 160.942 409.126 163.725 410.932 164.424C412.827 165.157 414.464 164.11 414.587 162.7C414.743 160.927 413.479 158.6 413.22 156.781C412.917 154.659 412.741 152.534 412.637 150.402C412.559 148.798 413.208 146.393 411.172 145.359C409.343 144.43 406.545 145.365 406.605 147.159" fill="#02C3A3"/>
<path fill-rule="evenodd" clip-rule="evenodd" d="M421.117 146.146C418.849 147.843 419.863 153.214 420.146 155.393C420.354 156.99 422.681 164.843 426.168 160.748C427.71 158.936 425.751 154.146 425.764 152.034C425.773 150.689 426.408 148.988 426.102 147.695C425.697 145.987 423.174 144.604 421.117 146.146" fill="#02C3A3"/>
<path fill-rule="evenodd" clip-rule="evenodd" d="M436.82 144.746C443.633 144.219 450.453 143.823 457.303 143.774C457.632 143.772 457.977 143.769 458.336 143.765C463.031 143.72 470.086 143.653 473.245 146.3C474.967 147.742 475.747 149.971 476.426 151.915C476.553 152.277 476.676 152.63 476.802 152.965C476.909 153.252 477.048 153.579 477.198 153.933C477.908 155.601 478.868 157.858 477.894 159.256C477.361 160.022 476.501 160.675 475.197 160.404C474.892 160.34 474.653 160.259 474.466 160.164C474.966 160.57 475.187 161.148 474.862 161.714C474.235 162.808 472.253 162.831 470.691 162.849C470.313 162.854 469.959 162.858 469.655 162.877C464.454 163.203 459.229 163.42 454.01 163.454C451.525 163.47 449.04 163.455 446.554 163.44C443.996 163.424 441.438 163.409 438.88 163.427C437.023 163.441 435.132 163.574 433.241 163.706C430.852 163.874 428.463 164.041 426.141 163.97C424.403 163.916 422.547 163.489 422.988 161.802C423.347 160.426 425.073 160.306 426.619 160.198C426.754 160.189 426.887 160.18 427.018 160.17C431.941 159.793 436.868 159.66 441.816 159.673C452.213 159.7 462.601 159.66 472.997 159.619C473.424 159.646 473.826 159.768 474.158 159.955C473.784 159.614 473.791 159.16 473.799 158.676C473.802 158.457 473.806 158.232 473.774 158.009C473.711 157.561 473.652 157.114 473.594 156.668C473.402 155.194 473.211 153.731 472.837 152.249C472.78 152.025 472.726 151.779 472.668 151.519C472.328 149.98 471.877 147.941 470.247 147.11C468.609 146.274 465.396 146.314 462.892 146.346C462.216 146.354 461.591 146.362 461.064 146.352C454.382 146.222 447.661 146.578 441.009 147.033C440.499 147.067 439.987 147.101 439.475 147.134C436.944 147.3 434.4 147.466 431.906 147.806C431.45 147.869 430.752 148.051 429.953 148.261C427.825 148.818 424.972 149.566 424.002 148.742C420.79 146.015 434.904 144.895 436.82 144.746Z" fill="#02C3A3"/>
<path fill-rule="evenodd" clip-rule="evenodd" d="M509.295 138.536C509.591 138.822 509.591 138.822 509.295 138.536ZM463.196 121.638C459.059 123.464 466.716 128.822 468.667 129.651C473.056 131.516 479.088 131.797 483.99 132.321C490.193 132.985 496.944 133.23 502.905 134.756C505.446 135.407 507.06 136.421 508.723 137.981C509.566 138.772 511.595 142.178 513.443 141.372C517.164 139.748 507.138 132.933 504.929 132.2C499.906 130.534 493.97 130.068 488.601 129.421C483.608 128.819 478.507 128.372 473.638 127.311C470.96 126.728 469.057 125.787 467.513 123.987C466.551 122.865 465.762 120.511 463.196 121.638" fill="#02C3A3"/>
<path fill-rule="evenodd" clip-rule="evenodd" d="M526.621 142.569C521.851 142.648 517.09 142.924 512.33 143.199C509.66 143.354 506.99 143.508 504.319 143.628C503.484 143.666 502.647 143.7 501.81 143.733L501.81 143.733C499.457 143.829 497.101 143.924 494.759 144.102C494.403 144.128 493.991 144.154 493.542 144.182L493.542 144.182C491.553 144.304 488.841 144.471 487.108 145.016C485.519 144.114 483.068 144.881 483.029 146.489C482.964 149.419 483 152.296 483.476 155.208C483.586 155.884 484.155 159.306 485.392 161.087C484.952 162.769 486.862 163.241 488.639 163.37C495.524 163.869 502.743 163.481 509.865 163.099C513.487 162.905 517.084 162.712 520.599 162.638C521.768 162.613 522.952 162.603 524.143 162.593C528.029 162.56 531.99 162.527 535.752 161.975C535.904 161.953 536.066 161.931 536.235 161.908C537.723 161.708 539.774 161.431 539.93 160.202C540.024 159.465 539.47 158.789 538.542 158.695C538.606 158.08 538.503 157.409 538.428 156.916L538.428 156.916C538.41 156.801 538.394 156.696 538.382 156.604C538.156 154.894 537.589 153.196 537.029 151.519C536.903 151.142 536.778 150.767 536.657 150.392C536.522 149.977 536.398 149.484 536.264 148.952C535.791 147.074 535.197 144.714 533.616 143.618C531.958 142.469 529.259 142.52 527.097 142.56C526.935 142.563 526.776 142.566 526.621 142.569ZM535.015 158.878C534.45 157.766 534.284 156.263 534.127 154.834C534.028 153.937 533.933 153.069 533.743 152.347C533.601 151.804 533.485 151.232 533.366 150.65C533.079 149.238 532.78 147.771 532.075 146.533C531.129 144.876 530.288 144.939 528.297 145.089C527.927 145.117 527.517 145.148 527.059 145.171C525.03 145.275 523.003 145.406 520.976 145.538C520.004 145.601 519.031 145.665 518.059 145.725C513.897 145.982 509.734 146.179 505.569 146.376C503.136 146.492 500.703 146.607 498.27 146.734C496.361 146.834 494.498 147.107 492.642 147.378C491.172 147.593 489.707 147.807 488.228 147.934C488.206 148.314 488.164 148.695 488.123 149.058C488.068 149.553 488.017 150.014 488.028 150.391C488.076 152.064 488.273 153.727 488.47 155.392L488.47 155.393C488.5 155.649 488.531 155.905 488.56 156.161C488.596 156.468 488.684 156.863 488.782 157.301C488.932 157.977 489.106 158.757 489.145 159.476C489.325 159.475 489.504 159.475 489.681 159.476C489.909 159.476 490.132 159.477 490.346 159.474C495.59 159.405 500.829 159.286 506.069 159.135C506.738 159.115 507.407 159.096 508.076 159.076C512.751 158.94 517.426 158.803 522.105 158.763C523.964 158.747 525.847 158.791 527.736 158.835C530.167 158.891 532.606 158.948 535.015 158.878Z" fill="#02C3A3"/>
<path fill-rule="evenodd" clip-rule="evenodd" d="M502.169 113.942C494.884 118.333 487.726 120.455 484.366 119.589C475.94 117.417 475.166 86.5941 481.685 74.4428C488.204 62.2915 521.718 56.9952 523.407 81.0707C523.994 89.4266 520.485 96.8837 515.301 102.969L524.596 146.292H497.596L502.169 113.942Z" fill="#B28B67"/>
<path fill-rule="evenodd" clip-rule="evenodd" d="M483.448 69.731C483.685 68.2628 483.216 67.5422 489.12 63.4058C495.023 59.2693 504.555 54.3908 514.154 56.514C526.613 59.2693 531.561 67.4873 536.365 71.4825C540.696 75.0842 545.042 75.5042 547.617 79.9733C550.192 84.4424 551.562 97.2998 549.323 102.412C546.234 109.463 540.142 111.362 535.696 113.393C528.069 116.877 517.29 113.198 517.029 112.588C515.009 107.873 504.136 94.5723 497.596 88.9842C492.787 84.875 482.338 76.6222 483.448 69.731Z" fill="#5C63AB"/>
<mask id="mask0" mask-type="alpha" maskUnits="userSpaceOnUse" x="483" y="56" width="68" height="59">
<path fill-rule="evenodd" clip-rule="evenodd" d="M483.448 69.731C483.685 68.2628 483.216 67.5422 489.12 63.4058C495.023 59.2693 504.555 54.3908 514.154 56.514C526.613 59.2693 531.561 67.4873 536.365 71.4825C540.696 75.0842 545.042 75.5042 547.617 79.9733C550.192 84.4424 551.562 97.2998 549.323 102.412C546.234 109.463 540.142 111.362 535.696 113.393C528.069 116.877 517.29 113.198 517.029 112.588C515.009 107.873 504.136 94.5723 497.596 88.9842C492.787 84.875 482.338 76.6222 483.448 69.731Z" fill="white"/>
</mask>
<g mask="url(#mask0)">
<path fill-rule="evenodd" clip-rule="evenodd" d="M520.508 103.793C533.419 87.8704 536.457 68.6672 536.457 68.6672L540.346 71.127C540.346 71.127 535.563 92.1121 520.508 103.793ZM515.596 112.542C536.49 94.1834 541.473 73.5521 541.473 73.5521L545.971 74.8783C545.971 74.8783 539.772 97.9491 515.596 112.542Z" fill="black" fill-opacity="0.2"/>
</g>
<path fill-rule="evenodd" clip-rule="evenodd" d="M542.56 241.292L500.288 379.759L479.81 497.516H463.754L485.392 241.292H542.56Z" fill="#997659"/>
<path fill-rule="evenodd" clip-rule="evenodd" d="M557.682 241.292C554.811 317.318 558.19 356.533 558.833 363.44C559.475 370.348 568.275 415.135 589.106 499.834L571.998 493.947C539.075 416.265 527.856 375.892 524.08 365.691C520.304 355.491 510.276 314.024 493.994 241.292H557.682Z" fill="#B28B67"/>
<path fill-rule="evenodd" clip-rule="evenodd" d="M586.107 492.496C587.177 492.017 588.452 492.495 588.855 493.595C589.68 495.848 590.863 499.424 590.863 501.407C590.863 504.451 589.851 510.292 589.851 510.292C586.326 510.292 526.492 510.292 526.492 510.292C526.492 510.292 524.023 502.112 529.344 501.459C534.665 500.807 538.184 500.281 538.184 500.281L567.747 487.076C568.262 486.846 568.865 487.087 569.08 487.609L571.021 492.327C571.021 492.327 575.947 494.63 579.027 494.63C580.978 494.63 584.09 493.398 586.107 492.496Z" fill="#E4E4E4"/>
<path fill-rule="evenodd" clip-rule="evenodd" d="M480.514 492.496C481.584 492.017 482.859 492.495 483.262 493.595C484.087 495.848 485.27 499.424 485.27 501.407C485.27 504.451 484.257 510.292 484.257 510.292C480.732 510.292 420.899 510.292 420.899 510.292C420.899 510.292 418.429 502.112 423.75 501.459C429.071 500.807 432.591 500.281 432.591 500.281L462.154 487.076C462.669 486.846 463.272 487.087 463.487 487.609L465.428 492.327C465.428 492.327 470.354 494.63 473.433 494.63C475.385 494.63 478.496 493.398 480.514 492.496Z" fill="#E4E4E4"/>
<path fill-rule="evenodd" clip-rule="evenodd" d="M548.176 241.292L530.203 311.839H475.305L483.491 241.292H548.176Z" fill="#69A1AC"/>
<path fill-rule="evenodd" clip-rule="evenodd" d="M558.286 241.292C567.157 267.934 561.656 311.839 561.656 311.839H505.635L490.231 241.292H558.286Z" fill="#89C5CC"/>
<path fill-rule="evenodd" clip-rule="evenodd" d="M387.4 129.134L431.405 135.852L423.144 155.296L387.601 140.623C372.147 141.865 364.693 141.374 365.241 139.149C365.702 137.273 367.352 136.732 368.872 136.234C370.056 135.847 371.16 135.485 371.563 134.537C372.482 132.374 367.547 127.772 362.677 123.605C357.807 119.437 361.138 118.743 363.222 118.839C370.603 120.688 378.662 124.119 387.4 129.134ZM413.706 240.687L445.581 209.644L456.161 227.925L423.018 247.437C414.706 260.506 409.824 266.153 408.374 264.378C407.15 262.882 407.712 261.241 408.229 259.73C408.631 258.553 409.007 257.454 408.491 256.564C407.314 254.53 400.661 255.696 394.394 257.073C388.127 258.45 389.578 255.376 390.91 253.772C396.834 249 404.432 244.638 413.706 240.687Z" fill="#B28B67"/>
<path fill-rule="evenodd" clip-rule="evenodd" d="M490.919 131.736C476.629 170.475 452.526 202.02 415.992 236.424L433.782 251.555C476.717 228.385 499.199 214.887 506.156 179.206C507.902 170.251 506.135 142.735 505.888 128.161L490.919 131.736Z" fill="#4545CB"/>
<path fill-rule="evenodd" clip-rule="evenodd" d="M561.884 244.14L476.102 256.196C476.102 256.196 492.778 163.366 488.762 130.208C488.626 129.081 490.427 126.808 491.383 126.938C501.875 128.365 512.682 121.775 512.682 121.775C537.607 151.566 550.289 190.774 561.884 244.14Z" fill="#F2F2F2"/>
<path fill-rule="evenodd" clip-rule="evenodd" d="M498.165 174.61C492.83 233.86 500.048 280.734 529.626 276.577L575.365 270.149C575.78 220.395 547.192 155.509 524.702 123.915C523.843 122.709 522.06 120.457 518.67 120.934L505.38 122.802C505.376 122.82 505.373 122.838 505.369 122.857C501.375 123.451 496.991 124.216 492.243 125.045C467.803 129.309 433.724 135.256 393.464 128.324L392.105 151.619C430.016 169.056 467.657 181.401 498.165 174.61Z" fill="#5353FF"/>
</svg>
