<svg width="580" height="512" viewBox="0 0 580 512" fill="none" xmlns="http://www.w3.org/2000/svg">
<path fill-rule="evenodd" clip-rule="evenodd" d="M97.3911 183.654C104.995 188.241 112.467 190.457 115.974 189.552C124.769 187.283 125.578 155.087 118.773 142.395C111.968 129.702 76.9852 124.17 75.2219 149.318C74.61 158.046 78.2723 165.835 83.6834 172.191L73.981 217.445H102.164L97.3911 183.654Z" fill="#FCDEC2"/>
<path fill-rule="evenodd" clip-rule="evenodd" d="M62.9348 140.947C62.0245 140.044 61.5279 138.756 61.0984 137.532C60.6523 136.261 60.2189 134.977 59.9228 133.654C59.331 131.011 59.3254 127.971 61.2096 125.919C62.7208 124.273 64.9882 123.535 67.0808 123.375C68.475 123.268 69.9069 123.463 71.2434 123.903C72.5694 124.339 73.7124 125.208 74.9978 125.748C75.0469 122.899 75.5345 119.919 76.9785 117.487C78.368 115.147 80.5834 113.834 83.1065 113.486C85.6961 113.13 88.2533 113.736 90.5716 114.991C91.152 115.305 91.727 115.634 92.2773 116.007C92.738 116.319 93.2171 116.694 93.7577 116.821C94.3604 116.963 94.6591 116.615 95.0508 116.174C95.5101 115.659 96.0275 115.204 96.5751 114.801C98.9962 113.02 102.173 112.288 104.978 113.356C106.27 113.848 107.527 114.683 108.404 115.834C109.185 116.86 109.743 118.487 110.821 119.202C111.279 119.505 111.602 119.103 112.019 118.806C112.645 118.36 113.242 117.867 113.876 117.433C114.766 116.823 115.729 116.366 116.761 116.127C118.272 115.778 120.359 115.86 120.791 117.84C120.953 118.583 120.829 119.379 120.777 120.128C120.705 121.157 120.63 122.185 120.541 123.213C120.473 123.993 120.387 124.746 120.24 125.512C120.161 125.921 119.916 126.682 120.091 127.091C120.31 127.602 121.319 127.311 121.75 127.329C122.601 127.364 123.457 127.514 124.244 127.878C124.854 128.16 125.496 128.575 125.753 129.275C125.912 129.705 125.87 130.147 125.795 130.589C125.706 131.12 125.808 131.401 125.875 131.937C127.019 131.373 130.982 130.121 131.481 132.172C131.647 132.855 131.269 133.627 130.981 134.203C130.475 135.214 129.811 136.137 129.133 137.018C127.719 138.855 126.03 140.439 124.213 141.794C126.342 142.741 126.897 145.535 125.054 147.199C124.241 147.934 123.146 148.097 122.12 148.05C121.744 148.033 121.203 147.889 120.907 147.954C120.748 147.989 120.578 148.124 120.357 148.139C118.909 148.239 117.273 147.889 115.857 147.568C113.334 146.995 110.945 145.798 108.994 143.976C108.494 143.509 108.08 143.24 107.407 143.247C106.816 143.253 106.237 143.415 105.647 143.43C104.087 143.469 102.68 142.706 101.231 142.198C101.143 144.157 100.585 146.314 99.7846 148.076C99.1317 149.513 97.7682 149.722 96.4284 149.848C92.1439 150.251 87.8443 149.801 83.5544 149.807C87.7071 150.746 91.9983 151.134 96.1142 152.239C97.9746 152.739 96.554 153.993 95.7585 154.863C94.4486 156.296 93.4746 158.07 92.7991 159.94C90.7676 157.29 87.1769 155.544 83.9958 156.358C80.4809 157.258 78.0058 162.014 80.2534 165.434C81.5584 167.419 83.9148 168.185 85.8756 169.038C84.346 170.63 83.976 172.98 83.0553 174.96C82.6013 175.936 81.9639 177.04 80.9484 177.381C80.5727 177.507 80.1322 177.517 79.8358 177.824C79.4686 178.203 79.3812 178.628 78.9123 178.954C77.0414 180.255 74.1189 180.155 72.4605 178.456C70.9608 176.92 71.351 174.489 72.6035 172.932C70.6098 172.1 66.9775 171.03 67.7698 167.922C63.4497 167.635 52.9605 160.624 58.7588 155.5C55.5767 153.7 52.6532 149.302 54.6972 145.425C56.2711 142.44 59.9315 141.105 62.9348 140.947Z" fill="#191847"/>
<path fill-rule="evenodd" clip-rule="evenodd" d="M32.4373 365.511H123.157L135.045 511.227H0L32.4373 365.511Z" fill="#C5CFD6"/>
<path fill-rule="evenodd" clip-rule="evenodd" d="M32.4373 365.511H60.3389L77.0386 511.227H0L32.4373 365.511Z" fill="black" fill-opacity="0.1"/>
<path fill-rule="evenodd" clip-rule="evenodd" d="M173.002 394.38C162.807 416.016 146.878 468.537 146.878 468.537L160.401 474.72C160.401 474.72 194.716 419.511 215.687 381.771C214.71 390.267 213.715 399.832 212.792 409.887C210.607 433.707 212.791 485.17 213.967 500.036C214.705 509.379 227.391 507.422 228.576 500.012C228.776 498.757 229.594 494.351 230.813 487.777C236.794 455.541 252.447 371.173 252.475 350.515C252.486 342.202 236.258 334.735 226.585 340.547C219.941 333.453 207.367 329.364 200.143 341.083C195.551 348.533 184.639 369.683 173.002 394.38Z" fill="#FCDEC2"/>
<path fill-rule="evenodd" clip-rule="evenodd" d="M147.844 449.092L194.262 339.056C205.381 321.156 236.558 342.698 232.766 353.08C224.157 376.651 180.372 452.957 177.807 459.98L147.844 449.092Z" fill="#E45859"/>
<path fill-rule="evenodd" clip-rule="evenodd" d="M148.518 461.782C147.833 460.832 146.492 460.609 145.592 461.358C143.672 462.958 140.672 465.618 139.624 467.434C138.036 470.187 135.905 475.998 135.905 475.998C139.096 477.842 193.264 509.137 193.264 509.137C193.264 509.137 199.768 503.032 195.291 499.659C190.814 496.287 187.902 493.97 187.902 493.97L167.998 466.529C167.668 466.072 167.026 465.98 166.579 466.323L162.323 469.603C162.323 469.603 156.663 469.109 153.875 467.498C152.082 466.462 149.869 463.654 148.518 461.782Z" fill="#E4E4E4"/>
<path fill-rule="evenodd" clip-rule="evenodd" d="M213.905 492.605C212.836 492.125 211.563 492.603 211.158 493.702C210.295 496.047 209.026 499.852 209.026 501.95C209.026 505.129 210.084 511.227 210.084 511.227C213.769 511.227 276.317 511.227 276.317 511.227C276.317 511.227 278.898 502.686 273.336 502.005C267.774 501.324 264.094 500.775 264.094 500.775L233.147 486.968C232.632 486.739 232.029 486.98 231.815 487.501L229.768 492.47C229.768 492.47 224.618 494.874 221.399 494.874C219.329 494.874 216.01 493.55 213.905 492.605Z" fill="#E4E4E4"/>
<path fill-rule="evenodd" clip-rule="evenodd" d="M255.728 358.969C255.728 390.189 240.912 463.012 240.903 469.886L209.026 469.91C209.026 469.91 216.024 372.442 213.989 371.392C211.954 370.342 130.554 379.525 106.141 379.525C70.937 379.525 56.3739 357.309 55.1922 316.156H124.93C139.129 317.676 213.193 332.626 240.699 337.765C252.475 339.965 255.728 350.369 255.728 358.969Z" fill="#FF6061"/>
<path fill-rule="evenodd" clip-rule="evenodd" d="M160.561 330.567C138.259 377.046 44.3784 345.663 44.3784 345.663C44.3784 337.609 47.5706 329.535 50.9231 321.055C54.518 311.962 58.2972 302.402 58.5232 291.902C58.9391 272.584 62.5487 214.052 77.6134 194.28C77.8875 193.387 78.1659 192.491 78.4483 191.593L79.491 192.084C79.6537 191.916 79.8177 191.752 79.9828 191.593L112.852 196.679C112.852 211.556 122.366 225.663 130.931 238.363C133.015 241.453 135.043 244.459 136.863 247.373C139.248 251.19 141.94 255.076 144.698 259.057C158.665 279.22 174.341 301.849 160.561 330.567Z" fill="#C1DEE2"/>
<path fill-rule="evenodd" clip-rule="evenodd" d="M118.444 321.781C120.642 310.429 122.068 302.851 122.721 299.045C140.233 318.847 150.349 328.863 153.07 329.093C158.189 329.525 161.971 324.983 163.048 326.259C164.828 331.547 159.8 344.784 150.191 346.709C145.602 347.628 138.502 338.159 135.576 334.804C134.425 333.484 128.715 329.143 118.444 321.781H118.444ZM148.691 261.257C153.231 261.257 155.669 263.135 158.353 266.924C161.037 270.712 163.577 288.582 159.268 288.582C154.958 288.582 136.904 281.674 136.904 277.03C136.904 272.386 149.223 270.42 149.223 266.924C149.223 263.428 144.152 261.257 148.691 261.257Z" fill="#FCDEC2"/>
<path fill-rule="evenodd" clip-rule="evenodd" d="M72.2958 213.589C60.7673 261.689 65.4639 302.257 109.278 339.055C108.763 340.904 108.455 342.009 108.455 342.009C57.025 306.039 57.0004 262.448 72.2958 213.589Z" fill="black" fill-opacity="0.2"/>
<path fill-rule="evenodd" clip-rule="evenodd" d="M428.4 96.7229C420.784 101.313 413.301 103.531 409.789 102.626C400.981 100.355 400.171 68.1341 406.986 55.4315C413.801 42.7289 448.836 37.1923 450.602 62.3602C451.215 71.0952 447.547 78.8906 442.128 85.2515L451.845 130.541H423.62L428.4 96.7229Z" fill="#B28B67"/>
<path fill-rule="evenodd" clip-rule="evenodd" d="M421.396 40.7999C424.798 40.1898 433.958 39.7703 435.648 39.7705C436.727 39.7705 437.897 40.0403 438.537 38.9562C439.06 38.0684 438.868 36.567 439.025 35.5368C439.206 34.34 439.464 33.1587 439.725 31.9803C440.466 28.6273 441.588 25.4372 443.158 22.4422C446.103 16.8232 450.417 12.4218 455.864 9.86058C461.879 7.03265 468.686 6.38511 475.155 6.95871C482.079 7.5724 488.347 10.0721 494.884 12.4245C501.113 14.6661 507.638 15.5484 514.153 14.4537C520.718 13.3509 525.678 9.45976 531.215 5.76655C536.883 1.98559 543.361 -0.487295 550.062 0.0811623C556.317 0.611975 562.082 3.43666 567.254 7.21004C572.094 10.7405 576.087 14.9881 578.341 20.9662C580.767 27.3969 580.764 34.4556 576.776 40.1389C570.995 48.3768 560.264 50.507 551.336 50.2953C546.171 50.1731 541.1 49.1421 536.224 47.2667C529.722 44.7653 524.103 40.5259 518.02 37.0861C515.165 35.472 512.214 34.1464 509.121 33.1914C506.12 32.2644 503.163 31.8392 500.446 33.8222C497.571 35.92 494.995 37.9807 491.706 39.2939C488.551 40.5538 485.209 41.2584 481.848 41.23C475.308 41.1748 468.861 38.9462 462.509 37.4534C457.329 36.2363 451.787 35.0233 446.506 36.1932C444.303 36.6815 441.084 37.6895 440.288 40.1941C453.684 42.8493 458.945 60.9673 455.168 74.2677C453.13 81.4464 440.879 89.8382 436.115 86.0643C433.097 83.6734 434.929 80.5345 436.115 78.4625C438.386 74.4944 439.163 69.3972 434.961 66.6346C431.337 64.2519 427.526 69.9101 427.454 69.9039C426.458 69.8181 417.851 64.4943 411.92 56.7256C406.07 57.1049 405.183 52.8861 406.579 49.4359C407.976 45.9857 416.695 41.6436 421.396 40.7999Z" fill="#191847"/>
<path fill-rule="evenodd" clip-rule="evenodd" d="M470.623 229.851L426.433 374.6L405.026 497.7H388.242L410.862 229.851H470.623Z" fill="#997659"/>
<path fill-rule="evenodd" clip-rule="evenodd" d="M486.432 229.851C483.43 309.326 486.963 350.321 487.634 357.541C488.306 364.762 497.505 411.581 519.282 500.124L501.397 493.969C466.981 412.763 455.253 370.558 451.305 359.895C447.358 349.231 436.874 305.883 419.854 229.851H486.432Z" fill="#B28B67"/>
<path fill-rule="evenodd" clip-rule="evenodd" d="M516.237 492.412C517.306 491.931 518.581 492.409 518.985 493.509C519.849 495.858 521.118 499.668 521.118 501.768C521.118 504.95 520.06 511.056 520.06 511.056C516.375 511.056 453.827 511.056 453.827 511.056C453.827 511.056 451.245 502.505 456.808 501.823C462.37 501.141 466.049 500.591 466.049 500.591L496.996 486.768C497.511 486.538 498.114 486.779 498.329 487.301L500.376 492.276C500.376 492.276 505.525 494.684 508.745 494.684C510.814 494.684 514.132 493.358 516.237 492.412Z" fill="#E4E4E4"/>
<path fill-rule="evenodd" clip-rule="evenodd" d="M405.853 492.412C406.922 491.931 408.196 492.409 408.601 493.509C409.464 495.858 410.734 499.668 410.734 501.768C410.734 504.95 409.675 511.056 409.675 511.056C405.99 511.056 343.443 511.056 343.443 511.056C343.443 511.056 340.861 502.505 346.423 501.823C351.986 501.141 355.665 500.591 355.665 500.591L386.612 486.768C387.127 486.538 387.73 486.779 387.945 487.301L389.992 492.276C389.992 492.276 395.141 494.684 398.36 494.684C400.43 494.684 403.747 493.358 405.853 492.412Z" fill="#E4E4E4"/>
<path fill-rule="evenodd" clip-rule="evenodd" d="M476.495 229.851L457.706 303.599H400.317L408.874 229.851H476.495Z" fill="#69A1AC"/>
<path fill-rule="evenodd" clip-rule="evenodd" d="M487.063 229.851C496.336 257.702 490.586 303.599 490.586 303.599H432.023L415.92 229.851H487.063Z" fill="#89C5CC"/>
<path fill-rule="evenodd" clip-rule="evenodd" d="M550.964 266.945C546.58 260.513 517.027 173.961 517.027 173.961L491.539 177.64C491.539 177.64 533.916 267.769 536.337 271.961C539.482 277.406 536.697 286.352 534.808 292.417C534.516 293.356 534.245 294.225 534.021 295.002C537.985 296.144 539.494 293.878 541.084 291.49C542.881 288.792 544.782 285.938 550.443 287.659C552.63 288.324 554.731 289.178 556.784 290.012C563.876 292.895 570.39 295.544 577.875 289.345C579.061 288.363 580.061 285.15 576.291 283.279C566.898 278.618 553.107 270.089 550.964 266.945ZM331.314 262.472L359.79 225.709L373.407 243.095L341.939 268.106C335.238 282.841 331.007 289.395 329.247 287.769C327.762 286.398 328.104 284.618 328.419 282.979C328.664 281.702 328.893 280.51 328.23 279.663C326.715 277.729 319.996 279.903 313.709 282.238C307.422 284.573 308.476 281.181 309.622 279.327C315.059 273.526 322.289 267.908 331.314 262.472Z" fill="#B28B67"/>
<path fill-rule="evenodd" clip-rule="evenodd" d="M429.171 112.669L418.858 112.36C410.861 170.567 334.715 220.179 332.652 241.808C331.896 249.74 337.974 252.842 335.444 255.581L349.878 263.306C351.732 260.413 357.126 264.471 366.54 259.779C375.954 255.087 438.486 178.951 429.171 112.669Z" fill="#02A58B"/>
<path fill-rule="evenodd" clip-rule="evenodd" d="M446.128 98.3184C448.289 97.8594 450.413 99.2389 450.872 101.4L452.451 108.823C473.449 120.718 526.536 157.621 550.158 236.886C552.64 245.212 550.955 250.096 549.608 253.997C548.688 256.667 547.925 258.876 548.763 261.415L532.296 268.543C532.025 266.619 529.661 265.46 526.61 263.964C522.174 261.788 516.288 258.901 513.28 251.921C510.429 245.304 506.463 237.096 501.823 227.998C503.292 240.705 502.523 252.689 498.638 263.071C488.944 288.974 409.675 273.202 398.33 249.761C392.276 237.252 396.708 225.414 402.569 209.757C410.009 189.882 419.752 163.854 413.276 122.491L410.61 109.953C410.15 107.792 411.529 105.668 413.69 105.209L446.128 98.3184Z" fill="#02C3A3"/>
</svg>
