<svg width="588" height="512" viewBox="0 0 588 512" fill="none" xmlns="http://www.w3.org/2000/svg">
<path fill-rule="evenodd" clip-rule="evenodd" d="M401.848 343.141C396.002 277.108 82.3613 149.659 24.1349 212.203C-34.0914 274.748 21.886 392.128 143.907 422.186C265.928 452.244 407.693 409.174 401.848 343.141Z" fill="#F2F2F2"/>
<path fill-rule="evenodd" clip-rule="evenodd" d="M238.153 356.302C233.051 405.155 356.779 437.021 463.275 414.783C569.771 392.545 618.627 305.702 567.809 259.429C516.99 213.157 243.255 307.449 238.153 356.302Z" fill="#DDE3E9"/>
<path fill-rule="evenodd" clip-rule="evenodd" d="M287.753 87.9843C311.346 87.9843 330.471 79.3511 330.471 68.7013C330.471 58.0516 311.346 49.4183 287.753 49.4183C264.161 49.4183 245.036 58.0516 245.036 68.7013C245.036 79.3511 264.161 87.9843 287.753 87.9843Z" fill="#F2F2F2"/>
<path fill-rule="evenodd" clip-rule="evenodd" d="M337.507 81.9852C337.507 58.3191 315.232 39.134 287.753 39.134C260.275 39.134 238 58.3191 238 81.9852" fill="#DDE3E9"/>
<rect width="6.008" height="42.056" transform="matrix(1 0 0 -1 284.291 43.0559)" fill="#DDE3E9"/>
<g opacity="0.7">
<path fill-rule="evenodd" clip-rule="evenodd" d="M38.1895 136C55.8242 136 70.1199 126.761 70.1199 115.363C70.1199 103.966 55.8242 94.7271 38.1895 94.7271C20.5548 94.7271 6.25912 103.966 6.25912 115.363C6.25912 126.761 20.5548 136 38.1895 136Z" fill="#F2F2F2"/>
<path fill-rule="evenodd" clip-rule="evenodd" d="M75.379 129.58C75.379 104.253 58.7287 83.7211 38.1895 83.7211C17.6503 83.7211 0.999969 104.253 0.999969 129.58" fill="#DDE3E9"/>
<rect x="34.8302" width="6.008" height="84.4525" fill="#DDE3E9"/>
</g>
<path fill-rule="evenodd" clip-rule="evenodd" d="M109.945 254.089L148.884 390.85L177.295 491.651H198.016L167.826 254.089H109.945Z" fill="#4545CB"/>
<path fill-rule="evenodd" clip-rule="evenodd" d="M99.532 254.089C98.6313 324.577 95.5601 363.024 94.6145 369.428C93.6688 375.832 79.3701 416.573 51.7183 491.651H73.1842C108.387 419.627 128.038 378.886 132.138 369.428C136.237 359.97 148.888 321.524 167.943 254.089H99.532Z" fill="#5353FF"/>
<path fill-rule="evenodd" clip-rule="evenodd" d="M49.7997 511L50.8737 488.426L73.4284 488.426C89.4705 499.713 115.316 506.7 115.316 506.7V511H74.5024L60.54 508.85V511H49.7997Z" fill="#191847"/>
<path fill-rule="evenodd" clip-rule="evenodd" d="M174.387 511L175.461 488.426L198.016 488.426C214.058 499.713 239.903 506.7 239.903 506.7V511H199.09L185.128 508.85V511H174.387Z" fill="#191847"/>
<path fill-rule="evenodd" clip-rule="evenodd" d="M129.662 113.538C125.408 108.544 122.528 102.424 123.009 95.5671C124.396 75.8094 151.899 80.1559 157.249 90.1279C162.599 100.1 161.963 125.395 155.049 127.177C152.291 127.888 146.417 126.147 140.439 122.543L144.191 149.091H122.034L129.662 113.538Z" fill="#FCDEC2"/>
<path fill-rule="evenodd" clip-rule="evenodd" d="M167.065 76.3037C166.606 74.6909 165.372 73.31 163.709 72.9003C163.306 72.8009 162.889 72.7608 162.474 72.7775C162.325 72.7834 162.283 72.8264 162.214 72.7223C162.162 72.6451 162.161 72.4565 162.14 72.3658C162.074 72.0838 161.991 71.8052 161.889 71.5339C161.541 70.6085 160.956 69.7895 160.251 69.0996C158.933 67.8089 157.151 66.9181 155.3 66.7569C154.286 66.6688 153.281 66.8334 152.323 67.163C151.827 67.3336 151.346 67.546 150.878 67.7809C150.737 67.8516 150.279 68.1979 150.138 68.1754C149.981 68.1507 149.667 67.7623 149.54 67.6648C147.969 66.4597 146.03 65.9858 144.073 66.0003C141.865 66.0166 139.738 66.127 137.896 67.4732C137.506 67.7582 137.135 68.0703 136.782 68.3989C136.595 68.5719 136.415 68.7513 136.243 68.9382C136.139 69.051 136.038 69.1663 135.941 69.2847C135.776 69.4857 135.802 69.5518 135.571 69.4115C134.685 68.873 133.658 68.6211 132.623 68.7483C132.009 68.8238 131.411 69.0083 130.844 69.251C130.65 69.3337 130.203 69.6633 129.997 69.6665C129.793 69.6697 129.352 69.3641 129.141 69.2864C128.005 68.8668 126.779 68.7634 125.585 68.9573C124.352 69.1574 123.142 69.6491 122.097 70.3286C121.595 70.6554 121.157 71.0176 120.805 71.5036C120.653 71.7134 120.516 71.9354 120.343 72.13C120.243 72.2439 120.043 72.3608 119.989 72.505C120.021 72.4186 118.641 71.8865 118.511 71.8525C117.817 71.6713 117.11 71.708 116.431 71.9316C115.153 72.3521 114.054 73.295 113.151 74.2618C112.687 74.7584 112.281 75.3073 111.937 75.892C111.772 76.1722 111.621 76.4603 111.483 76.7545C111.416 76.8971 111.371 77.0754 111.283 77.2038C111.169 77.3693 111.093 77.3724 110.887 77.4446C109.841 77.8109 108.888 78.431 108.162 79.2688C107.428 80.1165 106.952 81.1604 106.752 82.2597C106.74 82.3244 106.733 82.5928 106.695 82.6278C106.643 82.6761 106.433 82.6547 106.353 82.6641C106.078 82.6964 105.804 82.7445 105.535 82.8084C105.037 82.9261 104.553 83.0994 104.095 83.326C102.309 84.2095 101.032 85.8657 100.407 87.7294C99.7517 89.6852 99.7634 91.926 100.547 93.8453C100.674 94.1553 100.824 94.4562 101.001 94.7409C101.11 94.9156 101.145 94.916 101.074 95.0994C100.996 95.3033 100.852 95.5015 100.759 95.7008C100.454 96.3512 100.241 97.041 100.107 97.7455C99.886 98.9012 99.7766 100.116 99.9943 101.28C100.095 101.821 100.272 102.349 100.54 102.831C100.677 103.077 100.838 103.31 101.019 103.525C101.113 103.637 101.212 103.744 101.317 103.846C101.376 103.904 101.455 103.956 101.505 104.021C101.629 104.18 101.655 104.049 101.592 104.283C101.502 104.61 101.3 104.932 101.176 105.25C101.048 105.578 100.932 105.91 100.827 106.246C100.613 106.925 100.432 107.617 100.319 108.321C100.101 109.672 100.139 111.111 100.778 112.351C101.052 112.881 101.444 113.346 101.919 113.708C102.152 113.885 102.404 114.038 102.668 114.163C102.804 114.228 102.977 114.256 103.039 114.387C103.106 114.528 103.007 114.809 102.984 114.967C102.788 116.341 102.689 117.783 103.098 119.13C103.474 120.37 104.302 121.465 105.378 122.19C107.464 123.596 110.276 123.517 112.468 122.391C113.039 122.098 113.574 121.733 114.051 121.303C115.265 122.938 117.764 122.886 119.538 122.421C121.749 121.84 123.524 120.303 124.546 118.283C125.943 119.984 128.877 119.432 129.846 117.587C130.083 117.135 130.224 116.637 130.293 116.133C130.33 115.868 130.306 115.601 130.334 115.338C130.369 115.003 130.592 114.678 130.721 114.354C130.971 113.723 131.127 113.072 131.134 112.391C131.137 112.036 131.092 111.69 131.058 111.338C131.028 111.021 131.116 110.725 131.166 110.413C130.599 110.506 129.908 110.353 129.374 110.189C128.85 110.027 128.358 109.602 127.988 109.214C127.129 108.313 126.604 107.132 126.245 105.956C125.457 103.375 125.78 100.279 128.376 98.8625C129.585 98.2027 133.208 98.2049 134.648 98.5309C136.163 98.8738 137.879 102.215 137.964 102.529C138.016 102.724 137.99 102.964 138.168 103.094C138.561 103.379 139.208 102.884 139.497 102.64C139.997 102.219 140.353 101.659 140.662 101.092C141.334 99.8548 141.876 98.5283 142.259 97.1743C142.554 96.1303 142.743 95.0538 143.129 94.0365C143.513 93.0242 144.118 92.1194 145.059 91.546C146.083 90.9222 147.256 90.5936 148.38 90.2016C149.494 89.813 150.588 89.3382 151.452 88.5138C151.641 88.3325 151.826 88.1399 151.979 87.9265C152.099 87.758 152.219 87.4354 152.402 87.3286C152.688 87.1624 153.105 87.5946 153.352 87.7515C154.571 88.5257 155.588 89.6056 156.409 90.7852C157.224 91.9584 157.894 93.0873 158.438 94.3973C158.841 95.3689 159.093 96.6133 159.803 97.4095C160.119 97.7651 162.474 97.9802 163.237 97.6698C164 97.3594 164.854 96.5534 165.11 96.0482C165.372 95.5312 165.435 94.9633 165.323 94.3973C165.257 94.0643 165.123 93.7533 165.049 93.4263C164.987 93.1516 164.931 92.8919 164.797 92.6402C164.544 92.1633 164.111 91.8205 163.589 91.6771C164.132 91.1761 164.582 90.5768 164.894 89.9068C165.218 89.2108 165.492 88.3643 165.57 87.6004C165.633 86.9799 165.535 86.337 165.196 85.8038C164.839 85.2444 164.208 84.8795 163.662 84.5305C164.496 83.8778 165.21 83.0839 165.797 82.205C166.939 80.4959 167.645 78.3414 167.065 76.3037Z" fill="#191847"/>
<path fill-rule="evenodd" clip-rule="evenodd" d="M26.5623 293.092C30.5678 287.202 53.7383 224.567 53.7383 224.567L72.7613 227.332C72.7613 227.332 42.132 293.843 39.9198 297.682C37.0462 302.668 39.588 310.858 41.3116 316.412C41.5782 317.271 41.8253 318.067 42.0297 318.778C38.4091 319.825 37.0318 317.751 35.5797 315.564C33.9396 313.094 32.2042 310.481 27.0335 312.058C25.0358 312.668 23.1165 313.45 21.2414 314.215C14.7643 316.856 8.81411 319.283 1.97992 313.609C0.896448 312.709 -0.0162436 309.768 3.42753 308.054C12.0072 303.784 24.6042 295.971 26.5623 293.092ZM232.971 263.98L200.55 236.471L191.689 254.634L224.551 271.048C233.336 282.971 238.361 288.036 239.624 286.245C240.69 284.734 240.046 283.205 239.453 281.797C238.992 280.7 238.561 279.676 238.992 278.791C239.978 276.77 246.393 277.439 252.452 278.335C258.512 279.23 256.926 276.392 255.551 274.95C249.592 270.789 242.065 267.132 232.971 263.98Z" fill="#FCDEC2"/>
<path fill-rule="evenodd" clip-rule="evenodd" d="M133.247 146.951L145.034 143.05C161.024 183.027 184.87 221.708 224.713 254.379L214.861 271.392C179.844 250.748 146.697 234.711 133.247 203.733C128.732 193.336 132.878 159.383 133.247 146.951Z" fill="#C5CFD6"/>
<path fill-rule="evenodd" clip-rule="evenodd" d="M92.7609 259.464C92.7609 259.464 143.41 264.838 172.493 259.464C174.895 259.02 175.274 254.994 174.16 252.263C156.812 209.72 144.916 172.599 144.916 143.05C140.142 145.459 128.204 143.772 128.204 143.772C106.816 174.224 96.9846 209.163 92.7609 259.464Z" fill="#323337"/>
<path fill-rule="evenodd" clip-rule="evenodd" d="M122.075 141.22C122.627 140.848 122.918 140.662 122.918 140.662L122.887 141.22H131.8C132.248 143.856 132.904 153.628 133.861 167.876C137.337 219.653 144.783 330.546 160.63 372.984H51.2875C53.5946 324.736 71.368 267.038 89.7797 218.046C76.1934 231.575 60.3265 254.253 47.5032 292.005L27.0222 286.743C47.8942 196.728 109.045 150.305 120.911 142.019C121.027 141.752 121.142 141.485 121.257 141.22H122.075Z" fill="#DDE3E9"/>
<path fill-rule="evenodd" clip-rule="evenodd" d="M457.972 214.554C451.102 218.693 444.351 220.693 441.182 219.877C433.236 217.83 432.506 188.774 438.654 177.32C444.802 165.865 476.409 160.873 478.002 183.568C478.555 191.444 475.246 198.474 470.357 204.21L479.124 245.049H453.66L457.972 214.554Z" fill="#B28B67"/>
<path fill-rule="evenodd" clip-rule="evenodd" d="M448.712 164.844C452.191 163.784 457.242 163.424 459.367 163.667C458.158 160.773 457.679 157.548 458.07 154.408C458.45 151.357 459.814 148.759 461.075 146.037C461.657 144.782 462.316 143.534 463.298 142.574C464.299 141.596 465.566 140.951 466.894 140.643C468.254 140.328 469.675 140.354 471.037 140.64C471.639 140.767 472.18 141.042 472.771 141.195C473.375 141.352 473.669 140.973 474.108 140.593C475.166 139.677 476.717 139.224 478.056 139.062C479.558 138.881 481.117 139.107 482.549 139.601C483.943 140.081 485.283 140.861 486.291 141.998C486.74 142.504 487.147 143.08 487.412 143.715C487.52 143.976 487.538 144.131 487.799 144.226C488.04 144.315 488.321 144.317 488.57 144.402C490.974 145.215 493.03 147.072 494.149 149.456C494.802 150.847 495.111 153.295 495.026 156.04C494.942 158.784 492.462 165.945 490.143 168.557C488.074 170.888 485.031 172.427 482.095 173.1C484.044 175.327 485.341 178.109 486.301 180.939C487.343 184.013 487.988 187.206 488.226 190.46C488.452 193.552 488.473 196.822 487.748 199.847C487.069 202.677 485.619 204.998 483.197 206.471C482.088 207.145 480.894 207.652 479.694 208.115C478.51 208.572 477.324 209.016 476.084 209.272C473.739 209.756 471.037 209.673 469.23 207.807C468.579 207.134 467.863 206.289 467.387 205.467C467.217 205.172 467.114 204.978 467.321 204.69C467.57 204.344 467.972 204.079 468.291 203.808C470.113 202.265 471.24 200.205 471.524 197.756C471.812 195.272 471.145 192.066 468.729 190.982C465.746 189.644 462.461 191.18 459.811 192.612C458.684 188.637 456.371 185.059 452.744 183.236C448.731 181.219 444.127 180.983 440.004 179.252C438.929 178.801 437.835 178.289 437.044 177.37C436.713 176.986 436.325 176.488 436.193 175.98C436.02 175.313 436.45 174.754 436.783 174.234C438.546 171.476 445.233 165.905 448.712 164.844Z" fill="#191847"/>
<path fill-rule="evenodd" clip-rule="evenodd" d="M362.195 412.259C364.169 433.83 362.196 480.198 361.134 493.574C360.466 501.98 349.005 499.779 347.935 493.051C347.753 491.912 347.015 487.908 345.913 481.933C340.509 452.637 326.367 375.962 326.342 357.319C326.33 348.77 345.372 341.934 352.99 352.26C359.253 347.863 368.143 346.684 373.623 355.565C377.773 362.288 387.631 381.375 398.146 403.663C407.356 423.188 421.749 470.586 421.749 470.586L409.53 476.166C409.53 476.166 379.347 427.661 360.343 393.653C360.974 399.505 361.601 405.77 362.195 412.259Z" fill="#B28B67"/>
<path fill-rule="evenodd" clip-rule="evenodd" d="M420.875 453.038L378.937 353.736C368.891 337.582 340.722 357.023 344.148 366.392C351.927 387.663 391.486 456.526 393.804 462.863L420.875 453.038Z" fill="#E45859"/>
<path fill-rule="evenodd" clip-rule="evenodd" d="M325.281 365.072C325.281 393.219 337.624 459.381 337.632 465.579L367.533 464.571C367.533 464.571 359.693 378.285 360.921 377.7C362.762 376.823 436.406 387.888 458.493 388.723C490.342 389.928 503.518 370.398 504.587 333.336L442.893 333.336C442.893 333.336 363.763 342.777 338.878 346.469C328.224 348.049 325.281 357.318 325.281 365.072Z" fill="#FF6061"/>
<path fill-rule="evenodd" clip-rule="evenodd" d="M359.937 476.484C361.007 476.01 362.281 476.485 362.682 477.585C363.459 479.712 364.537 482.997 364.537 484.832C364.537 487.701 363.581 493.204 363.581 493.204C360.252 493.204 303.739 493.204 303.739 493.204C303.739 493.204 301.407 485.496 306.432 484.881C311.458 484.267 314.782 483.772 314.782 483.772L342.654 471.352C343.168 471.123 343.77 471.364 343.985 471.884L345.797 476.277C345.797 476.277 350.449 478.447 353.358 478.447C355.167 478.447 358.03 477.329 359.937 476.484Z" fill="#E4E4E4"/>
<path fill-rule="evenodd" clip-rule="evenodd" d="M420.367 466.952C421.291 466.233 422.641 466.387 423.297 467.357C424.566 469.233 426.407 472.159 426.851 473.94C427.545 476.723 427.95 482.294 427.95 482.294C424.719 483.1 369.886 496.765 369.886 496.765C369.886 496.765 365.757 489.85 370.484 488.038C375.212 486.227 378.317 484.942 378.317 484.942L402.355 466.152C402.799 465.805 403.441 465.893 403.776 466.347L406.597 470.171C406.597 470.171 411.636 471.151 414.458 470.448C416.213 470.01 418.721 468.234 420.367 466.952Z" fill="#E4E4E4"/>
<rect width="56.2322" height="7.42344" rx="3.71172" transform="matrix(-1 0 0 1 363.476 493.204)" fill="#5353FF"/>
<path d="M518.38 349.433C518.38 343.91 513.903 339.433 508.38 339.433H393.635C388.112 339.433 383.635 343.91 383.635 349.433V402.002H514.38C516.589 402.002 518.38 400.211 518.38 398.002V349.433Z" fill="#5353FF"/>
<path fill-rule="evenodd" clip-rule="evenodd" d="M394.245 339.433H391.399C386.501 339.433 382.325 342.979 381.531 347.812L358.171 490.023H369.509" fill="#5353FF"/>
<path fill-rule="evenodd" clip-rule="evenodd" d="M363.476 511.232C352.929 511.232 344.378 502.686 344.378 492.144C344.378 481.601 352.929 473.055 363.476 473.055C374.024 473.055 382.574 481.601 382.574 492.144C382.574 502.686 374.024 511.232 363.476 511.232Z" fill="#4040BC"/>
<path fill-rule="evenodd" clip-rule="evenodd" d="M423.952 428.514C423.952 473.027 460.054 509.111 504.587 509.111C549.12 509.111 585.222 473.027 585.222 428.514C585.222 384.001 549.12 347.917 504.587 347.917C460.054 347.917 423.952 384.001 423.952 428.514ZM438.806 428.514C438.806 464.827 468.257 494.265 504.587 494.265C540.917 494.265 570.368 464.827 570.368 428.514C570.368 392.201 540.917 362.764 504.587 362.764C468.257 362.764 438.806 392.201 438.806 428.514Z" fill="#4040BC"/>
<rect width="8.48787" height="139.985" transform="matrix(-1 0 0 1 508.831 358.522)" fill="#4040BC"/>
<rect width="8.48591" height="140.017" rx="2" transform="matrix(-0.707271 0.706942 0.707271 0.706942 458.073 376.022)" fill="#4040BC"/>
<rect width="8.48393" height="140.05" rx="2" transform="matrix(0 1 1 0 434.562 424.272)" fill="#4040BC"/>
<rect width="8.4859" height="140.017" rx="2" transform="matrix(0.707271 0.706942 0.707271 -0.706942 452.071 475.007)" fill="#4040BC"/>
<path fill-rule="evenodd" clip-rule="evenodd" d="M356.728 212.134L396.944 224.201L386.676 241.298L355.408 222.904C340.812 222.036 333.915 220.597 334.718 218.588C335.396 216.894 337.007 216.605 338.492 216.339C339.649 216.132 340.728 215.939 341.228 215.106C342.371 213.204 338.366 208.251 334.365 203.714C330.363 199.177 333.565 198.966 335.499 199.33C342.15 202.029 349.226 206.297 356.728 212.134ZM366.654 319.911L400.497 295.071L407.979 313.556L374.465 327.447C364.986 338.576 359.686 343.215 358.564 341.365C357.618 339.805 358.358 338.344 359.039 336.999C359.569 335.951 360.065 334.973 359.7 334.073C358.868 332.016 352.501 332.232 346.467 332.696C340.434 333.16 342.192 330.477 343.647 329.152C349.806 325.467 357.475 322.387 366.654 319.911Z" fill="#B28B67"/>
<path fill-rule="evenodd" clip-rule="evenodd" d="M453.065 228.173C434.635 262.522 407.984 288.853 369.348 316.225L383.977 332.712C427.116 316.688 449.884 307.02 461.065 274.568C463.871 266.423 465.832 240.458 467.514 226.797L453.065 228.173Z" fill="#E45859"/>
<path fill-rule="evenodd" clip-rule="evenodd" d="M504.587 342.614H422.891C422.891 342.614 450.649 257.996 451.251 226.46C451.272 225.389 453.252 223.5 454.128 223.747C463.739 226.46 474.697 221.718 474.697 221.718C494.065 252.853 500.762 291.185 504.587 342.614Z" fill="#F2F2F2"/>
<path fill-rule="evenodd" clip-rule="evenodd" d="M454.205 269.219C441.445 323.925 442.034 368.709 470.203 368.709H513.763C520.682 322.236 502.499 257.8 485.642 225.299C484.998 224.058 483.628 221.718 480.4 221.718H467.743C467.737 221.735 467.731 221.752 467.726 221.769C463.917 221.8 459.722 221.939 455.18 222.09C431.795 222.866 399.188 223.948 362.497 212.174L358.171 233.78C391.288 255.069 424.821 271.56 454.205 269.219Z" fill="#FF6061"/>
<path d="M516.5 106C537.211 106 554 89.2107 554 68.5C554 47.7893 537.211 31 516.5 31C495.789 31 479 47.7893 479 68.5C479 89.2107 495.789 106 516.5 106Z" fill="#F2F2F2"/>
<path d="M516.5 40.9057C517.672 40.9057 518.623 39.9553 518.623 38.783C518.623 37.6107 517.672 36.6604 516.5 36.6604C515.328 36.6604 514.377 37.6107 514.377 38.783C514.377 39.9553 515.328 40.9057 516.5 40.9057Z" fill="black" fill-opacity="0.1"/>
<path d="M486.783 70.6226C487.955 70.6226 488.906 69.6723 488.906 68.5C488.906 67.3277 487.955 66.3773 486.783 66.3773C485.611 66.3773 484.66 67.3277 484.66 68.5C484.66 69.6723 485.611 70.6226 486.783 70.6226Z" fill="black" fill-opacity="0.1"/>
<path d="M546.217 70.6226C547.389 70.6226 548.34 69.6723 548.34 68.5C548.34 67.3277 547.389 66.3773 546.217 66.3773C545.045 66.3773 544.094 67.3277 544.094 68.5C544.094 69.6723 545.045 70.6226 546.217 70.6226Z" fill="black" fill-opacity="0.1"/>
<path d="M516.5 100.34C517.672 100.34 518.623 99.3893 518.623 98.217C518.623 97.0447 517.672 96.0944 516.5 96.0944C515.328 96.0944 514.377 97.0447 514.377 98.217C514.377 99.3893 515.328 100.34 516.5 100.34Z" fill="black" fill-opacity="0.1"/>
<path fill-rule="evenodd" clip-rule="evenodd" d="M516.5 43.0283L517.915 67.7925H515.085L516.5 43.0283Z" fill="#DDE3E9"/>
<path fill-rule="evenodd" clip-rule="evenodd" d="M529.023 81.0226L516.014 70.0157L518.016 68.0145L529.023 81.0226Z" fill="#DDE3E9"/>
<path d="M516.5 71.3302C518.063 71.3302 519.33 70.0631 519.33 68.5C519.33 66.9369 518.063 65.6698 516.5 65.6698C514.937 65.6698 513.67 66.9369 513.67 68.5C513.67 70.0631 514.937 71.3302 516.5 71.3302Z" fill="#C5CFD6"/>
</svg>
