<svg width="591" height="512" viewBox="0 0 591 512" fill="none" xmlns="http://www.w3.org/2000/svg">
<path fill-rule="evenodd" clip-rule="evenodd" d="M4.27826 340.614C-3.47888 389.607 184.646 421.564 346.569 399.262C508.493 376.96 582.775 289.87 505.508 243.465C428.241 197.06 12.0355 291.621 4.27826 340.614Z" fill="#F2F2F2"/>
<path fill-rule="evenodd" clip-rule="evenodd" d="M587.119 87.3342C586.579 86.9462 585.296 86.8087 584.699 86.6925C582.218 86.21 579.663 86 577.134 86C569.336 86.0115 561.411 86.7667 553.742 88.0737C548.873 88.9034 542.987 91.6957 538.144 90.1793C529.706 87.5371 521.178 87.6668 513.172 91.4389C505.853 94.8882 500.297 101.439 497.055 108.517C496.565 109.586 494.581 113.519 494.019 116.17C493.779 116.712 493.548 117.257 493.34 117.811C492.749 119.384 492.22 120.984 491.728 122.588C491.518 123.272 490.989 124.782 491.617 125.074C490.614 126.901 489.724 128.783 488.984 130.726C486.83 136.378 484.475 142.578 483.718 148.568C483.437 150.786 483.427 153.017 483.687 155.239C483.816 156.338 483.762 158.546 484.517 159.382C486.119 161.154 486.942 158.673 486.761 157.491C485.382 148.485 488.045 140.027 491.201 131.561C493.242 126.087 496.595 121.078 500.352 116.543C503.392 112.871 506.653 109.98 510.82 107.546C515.916 104.569 521.365 102.163 526.763 99.7488C530.313 98.1605 533.868 96.615 537.518 95.2466C538.329 94.942 539.606 94.1614 540.506 94.1584C542.409 94.1516 545.105 95.5369 546.943 96.0522C552.989 97.7479 559.111 99.9188 565.359 100.785C569.367 101.341 573.122 100.715 576.869 99.3978C577.253 99.2636 577.894 98.9177 578.681 98.4238C581.464 97.3678 584.096 96.0387 586.388 94.1215C587.708 93.0167 588.907 91.589 589.999 90.2823C590.326 89.8917 590.471 89.4438 590.476 89.0183C590.723 88.8906 590.888 88.7415 590.925 88.5673C591.197 87.2813 588.711 87.2576 587.119 87.3342Z" fill="#02C3A3"/>
<path fill-rule="evenodd" clip-rule="evenodd" d="M585.857 123.66C582.4 122.915 578.582 122.972 575.061 123.033C556.173 123.287 537.625 132.109 525.554 146.205C515.278 158.205 512.452 173.125 510.422 188.207C510.221 189.704 510.135 191.192 510.021 192.693C509.997 193.015 509.96 193.302 509.921 193.573C509.123 194.277 508.704 195.098 509.177 196C507.418 199.797 505.93 203.69 504.653 207.706C500.896 219.526 497.074 231.571 499.428 244C499.978 237.16 501.135 230.166 502.519 223.438C502.599 223.052 502.685 222.669 502.774 222.287C502.783 222.247 502.792 222.206 502.801 222.166C503.291 220.106 503.928 218.108 504.702 216.141C504.71 216.119 504.718 216.098 504.727 216.077C504.829 215.818 504.937 215.56 505.045 215.303C505.266 214.77 505.494 214.238 505.736 213.709C505.817 213.528 505.896 213.346 505.971 213.163C507.099 210.437 507.575 207.365 508.585 204.545C508.826 203.904 509.079 203.265 509.344 202.629C509.359 202.592 509.375 202.555 509.391 202.518C510.106 200.807 510.896 199.118 511.732 197.446C512.186 197.109 512.429 196.274 512.821 195.515C512.902 195.365 513.535 194.368 513.723 193.793C514.215 192.854 514.706 191.915 515.201 190.977C515.186 190.983 515.171 190.988 515.157 190.994C515.653 190.093 516.15 189.197 516.643 188.304C516.752 188.108 516.862 187.912 516.971 187.715C517.148 187.402 517.325 187.089 517.502 186.777C519.157 183.856 520.911 180.994 522.733 178.167C523.383 177.158 524.936 175.711 525.234 174.579C525.245 174.536 525.247 174.497 525.254 174.457C529.207 168.979 533.758 163.927 539.216 159.924C538.556 160.628 537.154 163.015 536.783 163.488C535.649 164.935 534.417 166.282 533.181 167.646C530.966 170.089 528.805 172.609 526.884 175.274C523.371 180.148 520.341 185.277 517.476 190.51C517.449 190.54 517.419 190.569 517.393 190.601C515.954 192.352 515.047 194.998 514.011 197.001C518.112 195.127 522.648 193.906 526.857 192.242C531.055 190.583 535.139 188.735 539.081 186.566C544.321 183.682 549.757 180.427 554.708 176.743C560.382 173.271 565.149 168.492 569.358 163.477C574.337 157.543 578.9 151.558 581.723 144.353C583.109 140.813 584.199 137.121 584.846 133.386C584.874 133.224 584.911 133.047 584.95 132.864C585.611 131.574 586.203 130.255 586.699 128.906C587.487 126.766 589.349 124.412 585.857 123.66Z" fill="#02C3A3"/>
<path fill-rule="evenodd" clip-rule="evenodd" d="M46.5561 127.836C45.6734 126.968 44.6821 126.186 43.5183 125.627C43.224 125.486 41.0322 124.54 40.8894 124.748C40.5569 125.231 46.2909 127.559 46.5561 127.836ZM56.948 122.04C56.9407 122.076 57.7008 123.247 57.9077 123.607C58.3481 124.373 58.7547 125.153 59.1372 125.935C58.5709 124.554 57.989 123.273 56.948 122.04ZM3.80049 131.571C3.06853 131.785 2.18848 130.942 3.13791 130.734C3.90613 130.567 3.86846 130.528 4.2134 129.966C4.4935 129.51 4.66606 128.953 4.91186 128.474C5.43322 127.459 6.02462 126.49 6.75056 125.583C8.30636 123.637 10.202 121.961 12.328 120.548C16.0384 118.083 20.1986 115.83 24.6117 114.698C31.6285 112.898 39.6146 112.787 46.6425 114.035C50.995 114.808 54.9727 116.151 57.8629 119.333C59.3074 120.923 60.4413 122.787 60.9369 124.838C61.0663 125.374 61.0421 125.971 61.2041 126.496C61.453 127.303 61.3431 127.088 62.3829 127.245C63.5182 127.416 64.6525 127.591 65.7866 127.769C68.7558 128.236 71.7424 128.731 74.6356 129.488C75.5879 129.737 76.5192 130.041 77.4289 130.395C78.117 130.662 80.8569 131.501 81.1897 132.312C81.744 133.663 79.8871 133.051 79.3101 132.757C78.8047 132.499 78.2858 132.259 77.7593 132.037C76.4337 131.48 75.0526 131.049 73.6404 130.707C72.1142 130.336 70.5568 130.059 69.0054 129.782C67.5586 129.524 66.1064 129.289 64.6523 129.064C63.8446 128.94 63.0361 128.818 62.2277 128.697C61.9515 128.656 61.4644 128.439 61.5012 128.765C59.8015 128.467 57.9634 128.51 56.2321 128.428C54.1115 128.328 51.983 128.245 49.8554 128.305C48.3208 128.349 46.7849 128.44 45.2582 128.628C44.366 128.737 43.4882 128.897 42.6128 129.1C42.1321 129.211 40.2361 129.447 39.9742 129.828C40.0867 129.664 42.1792 129.823 42.4455 129.814C43.5108 129.777 44.5677 129.682 45.6291 129.574C47.5987 129.374 49.5691 129.27 51.5447 129.285C51.5372 129.6 50.1876 130.161 49.8582 130.369C49.1195 130.838 48.4121 131.348 47.7521 131.908C46.5893 132.894 45.1972 134.116 44.3929 135.285C44.6299 134.941 45.7992 134.492 46.2141 134.229C46.8789 133.808 47.53 133.358 48.1462 132.877C48.7151 132.433 49.2459 131.953 49.7678 131.463C50.2898 130.973 50.9981 129.954 51.684 129.628C51.7254 129.608 52.0244 129.823 52.1942 129.75C52.3653 129.676 52.5787 129.309 52.6221 129.294C53.2606 129.07 54.4731 129.348 55.1442 129.377C56.8848 129.449 58.6237 129.545 60.3631 129.632C60.902 129.658 61.3599 129.547 61.5634 129.908C61.7803 130.293 61.3829 131.305 61.2698 131.724C60.8505 133.281 60.1056 134.677 58.9331 135.884C56.7372 138.143 54.0296 139.65 50.9707 140.657C39.2546 144.517 26.7902 146.063 15.0777 142.048C10.2287 140.385 2.9261 137.415 3.80049 131.571Z" fill="#02C3A3"/>
<path fill-rule="evenodd" clip-rule="evenodd" d="M517.778 284C525.357 284 532.102 284.972 539.085 287.943C545.114 290.508 550.607 293.903 555.941 297.599C563.443 302.798 569.353 308.848 573.489 316.865C575.961 321.654 577.773 328.431 576.114 333.655C574.159 339.807 568.791 344.939 561.721 343.855C557.349 343.185 553.342 340.33 550.019 337.643C546.044 334.428 542.862 330.563 540.235 326.27C535.949 319.267 533.431 311.351 529.79 304.033C528.063 300.56 526.393 297.063 524.324 293.762C523.3 292.128 522.209 290.509 520.655 289.294C519.824 288.644 516.318 287.52 517.659 286.061C498.004 286.315 480.592 301.207 476.818 319.641C476.467 321.359 476.192 323.091 475.902 324.82C475.719 325.911 475.793 329.937 474.804 330.634C472.622 332.172 473.539 327.499 473.633 326.826C473.875 325.087 474.133 323.35 474.404 321.615C475.877 312.181 480.134 303.411 487.234 296.683C495.353 288.99 506.307 284 517.778 284Z" fill="#02C3A3"/>
<path d="M484.952 95H219.513C215.837 95 212.857 97.5776 212.857 100.757V338.243C212.857 341.422 215.837 344 219.513 344H484.952C488.628 344 491.608 341.422 491.608 338.243V100.757C491.608 97.5776 488.628 95 484.952 95Z" fill="#F2F2F2"/>
<path d="M471.638 125.945H426.705C423.029 125.945 420.048 128.523 420.048 131.702V178.48C420.048 181.659 423.029 184.237 426.705 184.237H471.638C475.315 184.237 478.295 181.659 478.295 178.48V131.702C478.295 128.523 475.315 125.945 471.638 125.945Z" fill="white"/>
<path d="M449.172 159.769C456.524 159.769 462.485 154.614 462.485 148.254C462.485 141.895 456.524 136.74 449.172 136.74C441.819 136.74 435.858 141.895 435.858 148.254C435.858 154.614 441.819 159.769 449.172 159.769Z" fill="#DDE3E9"/>
<path d="M467.478 162.647H430.865C429.487 162.647 428.369 163.614 428.369 164.806C428.369 165.999 429.487 166.965 430.865 166.965H467.478C468.856 166.965 469.974 165.999 469.974 164.806C469.974 163.614 468.856 162.647 467.478 162.647Z" fill="#DDE3E9"/>
<path d="M460.821 169.844H437.522C436.144 169.844 435.026 170.811 435.026 172.003C435.026 173.195 436.144 174.162 437.522 174.162H460.821C462.199 174.162 463.317 173.195 463.317 172.003C463.317 170.811 462.199 169.844 460.821 169.844Z" fill="#DDE3E9"/>
<path fill-rule="evenodd" clip-rule="evenodd" d="M219.513 95H484.952C488.628 95 491.608 97.5776 491.608 100.757V114.431H212.857V100.757C212.857 97.5776 215.837 95 219.513 95Z" fill="#DDE3E9"/>
<path d="M223.674 107.954C225.512 107.954 227.002 106.665 227.002 105.075C227.002 103.485 225.512 102.197 223.674 102.197C221.836 102.197 220.346 103.485 220.346 105.075C220.346 106.665 221.836 107.954 223.674 107.954Z" fill="#F2F2F2"/>
<path d="M233.659 107.954C235.497 107.954 236.987 106.665 236.987 105.075C236.987 103.485 235.497 102.197 233.659 102.197C231.821 102.197 230.331 103.485 230.331 105.075C230.331 106.665 231.821 107.954 233.659 107.954Z" fill="#F2F2F2"/>
<path d="M243.644 107.954C245.482 107.954 246.972 106.665 246.972 105.075C246.972 103.485 245.482 102.197 243.644 102.197C241.806 102.197 240.316 103.485 240.316 105.075C240.316 106.665 241.806 107.954 243.644 107.954Z" fill="#F2F2F2"/>
<path d="M471.638 189.994H426.705C423.029 189.994 420.048 192.572 420.048 195.751V323.85C420.048 327.029 423.029 329.607 426.705 329.607H471.638C475.315 329.607 478.295 327.029 478.295 323.85V195.751C478.295 192.572 475.315 189.994 471.638 189.994Z" fill="white"/>
<path d="M459.989 202.948H438.355C436.517 202.948 435.026 204.237 435.026 205.827V218.78C435.026 220.37 436.517 221.659 438.355 221.659H459.989C461.827 221.659 463.318 220.37 463.318 218.78V205.827C463.318 204.237 461.827 202.948 459.989 202.948Z" fill="#DDE3E9"/>
<path d="M459.989 227.416H438.354C436.516 227.416 435.026 228.705 435.026 230.295V242.529C435.026 244.119 436.516 245.408 438.354 245.408H459.989C461.827 245.408 463.317 244.119 463.317 242.529V230.295C463.317 228.705 461.827 227.416 459.989 227.416Z" fill="#AFB9C5"/>
<path d="M459.989 251.165H438.354C436.516 251.165 435.026 252.454 435.026 254.043V266.278C435.026 267.867 436.516 269.156 438.354 269.156H459.989C461.827 269.156 463.317 267.867 463.317 266.278V254.043C463.317 252.454 461.827 251.165 459.989 251.165Z" fill="#DDE3E9"/>
<path d="M459.989 298.662H438.354C436.516 298.662 435.026 299.951 435.026 301.54V313.775C435.026 315.364 436.516 316.653 438.354 316.653H459.989C461.827 316.653 463.317 315.364 463.317 313.775V301.54C463.317 299.951 461.827 298.662 459.989 298.662Z" fill="#DDE3E9"/>
<path d="M459.989 274.914H438.354C436.516 274.914 435.026 276.202 435.026 277.792V290.026C435.026 291.616 436.516 292.905 438.354 292.905H459.989C461.827 292.905 463.317 291.616 463.317 290.026V277.792C463.317 276.202 461.827 274.914 459.989 274.914Z" fill="#C5CFD6"/>
<path d="M410.063 126.665H229.498C227.66 126.665 226.17 127.954 226.17 129.543V157.61C226.17 159.2 227.66 160.488 229.498 160.488H410.063C411.901 160.488 413.391 159.2 413.391 157.61V129.543C413.391 127.954 411.901 126.665 410.063 126.665Z" fill="white"/>
<path d="M370.123 136.812H236.155C234.777 136.812 233.659 137.778 233.659 138.971V139.726C233.659 140.919 234.777 141.885 236.155 141.885H370.123C371.501 141.885 372.619 140.919 372.619 139.726V138.971C372.619 137.778 371.501 136.812 370.123 136.812Z" fill="#DDE3E9"/>
<path d="M324.437 145.268H236.155C234.777 145.268 233.659 146.234 233.659 147.427V148.182C233.659 149.375 234.777 150.341 236.155 150.341H324.437C325.816 150.341 326.933 149.375 326.933 148.182V147.427C326.933 146.234 325.816 145.268 324.437 145.268Z" fill="#DDE3E9"/>
<path d="M393.383 148.614C396.6 148.614 399.208 146.359 399.208 143.577C399.208 140.794 396.6 138.539 393.383 138.539C390.166 138.539 387.558 140.794 387.558 143.577C387.558 146.359 390.166 148.614 393.383 148.614Z" fill="#DDE3E9"/>
<path d="M393.383 145.736C394.762 145.736 395.879 144.769 395.879 143.577C395.879 142.384 394.762 141.418 393.383 141.418C392.004 141.418 390.887 142.384 390.887 143.577C390.887 144.769 392.004 145.736 393.383 145.736Z" fill="#F2F2F2"/>
<path d="M410.063 166.246H229.498C227.66 166.246 226.17 167.534 226.17 169.124V191.433C226.17 193.023 227.66 194.312 229.498 194.312H410.063C411.901 194.312 413.391 193.023 413.391 191.433V169.124C413.391 167.534 411.901 166.246 410.063 166.246Z" fill="white"/>
<path d="M370.185 174.666H236.093C234.749 174.666 233.659 175.608 233.659 176.771C233.659 177.933 234.749 178.876 236.093 178.876H370.185C371.529 178.876 372.619 177.933 372.619 176.771C372.619 175.608 371.529 174.666 370.185 174.666Z" fill="#DDE3E9"/>
<path d="M324.5 181.682H236.093C234.749 181.682 233.659 182.625 233.659 183.787C233.659 184.95 234.749 185.892 236.093 185.892H324.5C325.844 185.892 326.933 184.95 326.933 183.787C326.933 182.625 325.844 181.682 324.5 181.682Z" fill="#DDE3E9"/>
<path d="M393.383 185.316C396.6 185.316 399.208 183.061 399.208 180.279C399.208 177.497 396.6 175.241 393.383 175.241C390.166 175.241 387.558 177.497 387.558 180.279C387.558 183.061 390.166 185.316 393.383 185.316Z" fill="#DDE3E9"/>
<path d="M393.383 182.438C394.762 182.438 395.879 181.471 395.879 180.279C395.879 179.086 394.762 178.12 393.383 178.12C392.004 178.12 390.887 179.086 390.887 180.279C390.887 181.471 392.004 182.438 393.383 182.438Z" fill="#F2F2F2"/>
<path d="M410.063 200.069H229.498C227.66 200.069 226.17 201.358 226.17 202.948V225.257C226.17 226.847 227.66 228.136 229.498 228.136H410.063C411.901 228.136 413.391 226.847 413.391 225.257V202.948C413.391 201.358 411.901 200.069 410.063 200.069Z" fill="white"/>
<path d="M370.185 208.489H236.093C234.749 208.489 233.659 209.432 233.659 210.594C233.659 211.757 234.749 212.699 236.093 212.699H370.185C371.529 212.699 372.619 211.757 372.619 210.594C372.619 209.432 371.529 208.489 370.185 208.489Z" fill="#DDE3E9"/>
<path d="M324.5 215.506H236.093C234.749 215.506 233.659 216.449 233.659 217.611C233.659 218.774 234.749 219.716 236.093 219.716H324.5C325.844 219.716 326.933 218.774 326.933 217.611C326.933 216.449 325.844 215.506 324.5 215.506Z" fill="#DDE3E9"/>
<path d="M393.383 219.14C396.6 219.14 399.208 216.885 399.208 214.103C399.208 211.32 396.6 209.065 393.383 209.065C390.166 209.065 387.558 211.32 387.558 214.103C387.558 216.885 390.166 219.14 393.383 219.14Z" fill="#DDE3E9"/>
<path d="M393.383 216.262C394.762 216.262 395.879 215.295 395.879 214.103C395.879 212.91 394.762 211.944 393.383 211.944C392.004 211.944 390.887 212.91 390.887 214.103C390.887 215.295 392.004 216.262 393.383 216.262Z" fill="#AFB9C5"/>
<path d="M410.063 301.541H229.498C227.66 301.541 226.17 302.829 226.17 304.419V326.728C226.17 328.318 227.66 329.607 229.498 329.607H410.063C411.901 329.607 413.391 328.318 413.391 326.728V304.419C413.391 302.829 411.901 301.541 410.063 301.541Z" fill="white"/>
<path d="M370.185 309.96H236.093C234.749 309.96 233.659 310.903 233.659 312.065C233.659 313.228 234.749 314.17 236.093 314.17H370.185C371.529 314.17 372.619 313.228 372.619 312.065C372.619 310.903 371.529 309.96 370.185 309.96Z" fill="#DDE3E9"/>
<path d="M324.5 316.977H236.093C234.749 316.977 233.659 317.919 233.659 319.082C233.659 320.245 234.749 321.187 236.093 321.187H324.5C325.844 321.187 326.933 320.245 326.933 319.082C326.933 317.919 325.844 316.977 324.5 316.977Z" fill="#DDE3E9"/>
<path d="M393.383 320.611C396.6 320.611 399.208 318.356 399.208 315.574C399.208 312.792 396.6 310.536 393.383 310.536C390.166 310.536 387.558 312.792 387.558 315.574C387.558 318.356 390.166 320.611 393.383 320.611Z" fill="#DDE3E9"/>
<path d="M393.383 317.733C394.762 317.733 395.879 316.766 395.879 315.574C395.879 314.381 394.762 313.415 393.383 313.415C392.004 313.415 390.887 314.381 390.887 315.574C390.887 316.766 392.004 317.733 393.383 317.733Z" fill="#F2F2F2"/>
<path d="M410.063 267.717H229.498C227.66 267.717 226.17 269.006 226.17 270.595V292.905C226.17 294.494 227.66 295.783 229.498 295.783H410.063C411.901 295.783 413.391 294.494 413.391 292.905V270.595C413.391 269.006 411.901 267.717 410.063 267.717Z" fill="white"/>
<path d="M370.185 276.137H236.093C234.749 276.137 233.659 277.079 233.659 278.242C233.659 279.404 234.749 280.347 236.093 280.347H370.185C371.529 280.347 372.619 279.404 372.619 278.242C372.619 277.079 371.529 276.137 370.185 276.137Z" fill="#DDE3E9"/>
<path d="M324.5 283.153H236.093C234.749 283.153 233.659 284.096 233.659 285.258C233.659 286.421 234.749 287.363 236.093 287.363H324.5C325.844 287.363 326.933 286.421 326.933 285.258C326.933 284.096 325.844 283.153 324.5 283.153Z" fill="#DDE3E9"/>
<path d="M393.383 286.788C396.6 286.788 399.208 284.532 399.208 281.75C399.208 278.968 396.6 276.712 393.383 276.712C390.166 276.712 387.558 278.968 387.558 281.75C387.558 284.532 390.166 286.788 393.383 286.788Z" fill="#DDE3E9"/>
<path d="M393.383 283.909C394.762 283.909 395.879 282.942 395.879 281.75C395.879 280.558 394.762 279.591 393.383 279.591C392.004 279.591 390.887 280.558 390.887 281.75C390.887 282.942 392.004 283.909 393.383 283.909Z" fill="#F2F2F2"/>
<path d="M410.063 233.893H229.498C227.66 233.893 226.17 235.182 226.17 236.772V259.081C226.17 260.671 227.66 261.96 229.498 261.96H410.063C411.901 261.96 413.391 260.671 413.391 259.081V236.772C413.391 235.182 411.901 233.893 410.063 233.893Z" fill="white"/>
<path d="M370.185 242.313H236.093C234.749 242.313 233.659 243.256 233.659 244.418C233.659 245.581 234.749 246.523 236.093 246.523H370.185C371.529 246.523 372.619 245.581 372.619 244.418C372.619 243.256 371.529 242.313 370.185 242.313Z" fill="#DDE3E9"/>
<path d="M324.5 249.33H236.093C234.749 249.33 233.659 250.272 233.659 251.435C233.659 252.597 234.749 253.54 236.093 253.54H324.5C325.844 253.54 326.933 252.597 326.933 251.435C326.933 250.272 325.844 249.33 324.5 249.33Z" fill="#DDE3E9"/>
<path d="M393.383 252.964C396.6 252.964 399.208 250.708 399.208 247.926C399.208 245.144 396.6 242.889 393.383 242.889C390.166 242.889 387.558 245.144 387.558 247.926C387.558 250.708 390.166 252.964 393.383 252.964Z" fill="#DDE3E9"/>
<path d="M393.383 250.085C394.762 250.085 395.879 249.119 395.879 247.926C395.879 246.734 394.762 245.767 393.383 245.767C392.004 245.767 390.887 246.734 390.887 247.926C390.887 249.119 392.004 250.085 393.383 250.085Z" fill="#F2F2F2"/>
<rect x="302.057" y="76" width="4.95589" height="18.75" rx="2.47795" fill="#DDE3E9"/>
<rect x="313.621" y="64" width="4.95589" height="30.75" rx="2.47795" fill="#DDE3E9"/>
<rect x="325.185" y="58" width="4.95583" height="36.75" rx="2.47792" fill="#DDE3E9"/>
<rect x="336.748" y="64" width="4.95596" height="30.75" rx="2.47798" fill="#DDE3E9"/>
<rect x="348.312" y="52" width="4.95592" height="42.75" rx="2.47796" fill="#C5CFD6"/>
<path fill-rule="evenodd" clip-rule="evenodd" d="M465.025 77.8843C463.438 79.4143 461.19 80.375 458.689 80.375C453.884 80.375 449.989 76.8493 449.989 72.5C449.989 68.1507 453.884 64.625 458.689 64.625V50C445.019 50 433.831 60.1273 433.831 72.5C433.831 84.8727 445.019 95 458.689 95C465.869 95 472.358 92.2505 476.782 87.8765L465.025 77.8843Z" fill="#F2F2F2"/>
<path fill-rule="evenodd" clip-rule="evenodd" d="M458.61 50V64.625C463.4 64.625 467.283 68.1507 467.283 72.5H483.39C483.39 60.1272 472.237 50 458.61 50Z" fill="#DDE3E9"/>
<path fill-rule="evenodd" clip-rule="evenodd" d="M466.95 72.5C466.95 75.0552 465.625 77.3266 463.566 78.7931L473.694 90.5C479.59 86.3088 483.39 79.812 483.39 72.5H466.95Z" fill="#C5CFD6"/>
<path fill-rule="evenodd" clip-rule="evenodd" d="M146.638 69.3779C145.417 70.5509 143.688 71.2875 141.764 71.2875C138.068 71.2875 135.071 68.5844 135.071 65.25C135.071 61.9156 138.068 59.2125 141.764 59.2125V48C131.249 48 122.642 55.7642 122.642 65.25C122.642 74.7358 131.249 82.5 141.764 82.5C147.287 82.5 152.279 80.3921 155.682 77.0387L146.638 69.3779Z" fill="#F2F2F2"/>
<path fill-rule="evenodd" clip-rule="evenodd" d="M141.64 48V59.2125C145.312 59.2125 148.289 61.9156 148.289 65.25H160.638C160.638 55.7642 152.087 48 141.64 48Z" fill="#DDE3E9"/>
<path fill-rule="evenodd" clip-rule="evenodd" d="M148.308 65.25C148.308 67.1664 147.314 68.8699 145.77 69.9698L153.366 78.75C157.788 75.6066 160.638 70.734 160.638 65.25H148.308Z" fill="#C5CFD6"/>
<path fill-rule="evenodd" clip-rule="evenodd" d="M43.699 38.9897C43.6957 38.9972 43.6924 39.0047 43.6875 39.0137C43.6924 39.0062 43.699 38.9762 43.699 38.9897Z" fill="#C5CFD6"/>
<path fill-rule="evenodd" clip-rule="evenodd" d="M43.6913 39.0011C43.6913 39.0026 43.6897 39.0056 43.6897 39.0086C43.6897 39.0011 43.7045 38.9786 43.6913 39.0011Z" fill="#C5CFD6"/>
<path fill-rule="evenodd" clip-rule="evenodd" d="M43.7487 38.8742C43.7371 38.9042 43.7223 38.9327 43.709 38.9627C43.7157 38.9477 43.7223 38.9357 43.7289 38.9207C43.5571 39.3107 43.6661 39.0572 43.7487 38.8742Z" fill="#C5CFD6"/>
<path fill-rule="evenodd" clip-rule="evenodd" d="M43.7117 38.9646C43.7051 38.9781 43.6985 38.9931 43.6919 39.0066C43.644 39.0906 43.7117 38.9646 43.7117 38.9646Z" fill="#C5CFD6"/>
<path fill-rule="evenodd" clip-rule="evenodd" d="M43.6924 39.0015C43.6924 39 43.6924 39 43.6941 38.9985C43.6924 39 43.6924 39 43.6924 39.0015Z" fill="#C5CFD6"/>
<path fill-rule="evenodd" clip-rule="evenodd" d="M43.6846 39.0123C43.6747 39.0303 43.7308 38.9433 43.6846 39.0123V39.0123Z" fill="#C5CFD6"/>
<path fill-rule="evenodd" clip-rule="evenodd" d="M43.6916 39.0015L43.6949 38.9985C43.6932 39 43.6932 39.0015 43.6916 39.0015Z" fill="#C5CFD6"/>
<rect x="4.04608" width="78.4683" height="47.25" rx="4" fill="#DDE3E9"/>
<path fill-rule="evenodd" clip-rule="evenodd" d="M33.7814 13.5L10.6539 47.25H56.9089L33.7814 13.5Z" fill="#AFB9C5"/>
<path fill-rule="evenodd" clip-rule="evenodd" d="M56.496 22.5L36.2594 47.25H76.7325L56.496 22.5Z" fill="#C5CFD6"/>
<path fill-rule="evenodd" clip-rule="evenodd" d="M65.1688 22.5C69.2744 22.5 72.6026 19.4779 72.6026 15.75C72.6026 12.0221 69.2744 9 65.1688 9C61.0632 9 57.7349 12.0221 57.7349 15.75C57.7349 19.4779 61.0632 22.5 65.1688 22.5Z" fill="white"/>
<path fill-rule="evenodd" clip-rule="evenodd" d="M478.278 401.74C478.282 401.747 478.285 401.755 478.29 401.764C478.285 401.756 478.278 401.726 478.278 401.74Z" fill="#C5CFD6"/>
<path fill-rule="evenodd" clip-rule="evenodd" d="M478.286 401.751C478.286 401.753 478.288 401.756 478.288 401.759C478.288 401.751 478.273 401.729 478.286 401.751Z" fill="#C5CFD6"/>
<path fill-rule="evenodd" clip-rule="evenodd" d="M478.229 401.624C478.24 401.654 478.255 401.683 478.268 401.713C478.262 401.698 478.255 401.686 478.249 401.671C478.42 402.061 478.311 401.807 478.229 401.624Z" fill="#C5CFD6"/>
<path fill-rule="evenodd" clip-rule="evenodd" d="M478.266 401.715C478.272 401.728 478.279 401.743 478.286 401.757C478.333 401.841 478.266 401.715 478.266 401.715Z" fill="#C5CFD6"/>
<path fill-rule="evenodd" clip-rule="evenodd" d="M478.285 401.752C478.285 401.75 478.285 401.75 478.283 401.748C478.285 401.75 478.285 401.75 478.285 401.752Z" fill="#C5CFD6"/>
<path fill-rule="evenodd" clip-rule="evenodd" d="M478.293 401.762C478.303 401.78 478.247 401.693 478.293 401.762V401.762Z" fill="#C5CFD6"/>
<path fill-rule="evenodd" clip-rule="evenodd" d="M478.286 401.752L478.283 401.748C478.284 401.75 478.284 401.752 478.286 401.752Z" fill="#C5CFD6"/>
<rect width="117.289" height="70.5" rx="4" transform="matrix(-1 0 0 1 536.929 344)" fill="#DDE3E9"/>
<path fill-rule="evenodd" clip-rule="evenodd" d="M493.378 364.25L527.289 414.5H459.468L493.378 364.25Z" fill="#AFB9C5"/>
<path fill-rule="evenodd" clip-rule="evenodd" d="M458.415 377.71L488.394 414.5H428.436L458.415 377.71Z" fill="#F2F2F2"/>
<path fill-rule="evenodd" clip-rule="evenodd" d="M445.658 377.75C439.5 377.75 434.507 373.217 434.507 367.625C434.507 362.033 439.5 357.5 445.658 357.5C451.816 357.5 456.809 362.033 456.809 367.625C456.809 373.217 451.816 377.75 445.658 377.75Z" fill="white"/>
<path d="M189.214 94H85.7862C82.5906 94 80 96.271 80 99.0724V280.411C80 283.212 82.5906 285.483 85.7862 285.483H189.214C192.409 285.483 195 283.212 195 280.411V99.0724C195 96.271 192.409 94 189.214 94Z" fill="#F2F2F2"/>
<path d="M137.138 273.436C143.13 273.436 147.987 269.178 147.987 263.925C147.987 258.673 143.13 254.415 137.138 254.415C131.147 254.415 126.289 258.673 126.289 263.925C126.289 269.178 131.147 273.436 137.138 273.436Z" fill="white"/>
<path d="M127.736 106.681C128.535 106.681 129.182 106.113 129.182 105.413C129.182 104.713 128.535 104.145 127.736 104.145C126.937 104.145 126.289 104.713 126.289 105.413C126.289 106.113 126.937 106.681 127.736 106.681Z" fill="white"/>
<path d="M146.541 104.145H134.245C133.446 104.145 132.799 104.712 132.799 105.413C132.799 106.113 133.446 106.681 134.245 106.681H146.541C147.34 106.681 147.987 106.113 147.987 105.413C147.987 104.712 147.34 104.145 146.541 104.145Z" fill="white"/>
<path d="M181.981 111.753H93.0189C91.4211 111.753 90.1258 112.889 90.1258 114.29V143.456C90.1258 144.857 91.4211 145.992 93.0189 145.992H181.981C183.579 145.992 184.874 144.857 184.874 143.456V114.29C184.874 112.889 183.579 111.753 181.981 111.753Z" fill="white"/>
<path d="M168.962 122.025H120.503C119.305 122.025 118.333 122.877 118.333 123.927V125.259C118.333 126.309 119.305 127.161 120.503 127.161H168.962C170.161 127.161 171.132 126.309 171.132 125.259V123.927C171.132 122.877 170.161 122.025 168.962 122.025Z" fill="#DDE3E9"/>
<path d="M151.604 130.585H120.503C119.305 130.585 118.333 131.436 118.333 132.487V133.818C118.333 134.869 119.305 135.721 120.503 135.721H151.604C152.802 135.721 153.774 134.869 153.774 133.818V132.487C153.774 131.436 152.802 130.585 151.604 130.585Z" fill="#DDE3E9"/>
<path d="M105.314 136.481C110.108 136.481 113.994 133.075 113.994 128.873C113.994 124.671 110.108 121.264 105.314 121.264C100.521 121.264 96.6353 124.671 96.6353 128.873C96.6353 133.075 100.521 136.481 105.314 136.481Z" fill="#C5CFD6"/>
<path d="M181.981 151.065H93.0189C91.4211 151.065 90.1258 152.2 90.1258 153.601V175.158C90.1258 176.559 91.4211 177.695 93.0189 177.695H181.981C183.579 177.695 184.874 176.559 184.874 175.158V153.601C184.874 152.2 183.579 151.065 181.981 151.065Z" fill="white"/>
<path d="M168.962 159.054H120.503C119.305 159.054 118.333 159.905 118.333 160.956V161.146C118.333 162.196 119.305 163.048 120.503 163.048H168.962C170.161 163.048 171.132 162.196 171.132 161.146V160.956C171.132 159.905 170.161 159.054 168.962 159.054Z" fill="#DDE3E9"/>
<path d="M151.604 165.711H120.503C119.305 165.711 118.333 166.563 118.333 167.613V167.804C118.333 168.854 119.305 169.706 120.503 169.706H151.604C152.802 169.706 153.774 168.854 153.774 167.804V167.613C153.774 166.563 152.802 165.711 151.604 165.711Z" fill="#DDE3E9"/>
<path d="M105.314 171.988C110.108 171.988 113.994 168.582 113.994 164.379C113.994 160.177 110.108 156.771 105.314 156.771C100.521 156.771 96.6353 160.177 96.6353 164.379C96.6353 168.582 100.521 171.988 105.314 171.988Z" fill="#C5CFD6"/>
<path d="M181.981 182.767H93.0189C91.4211 182.767 90.1258 183.902 90.1258 185.303V206.861C90.1258 208.262 91.4211 209.397 93.0189 209.397H181.981C183.579 209.397 184.874 208.262 184.874 206.861V185.303C184.874 183.902 183.579 182.767 181.981 182.767Z" fill="white"/>
<path d="M168.962 190.756H120.503C119.305 190.756 118.333 191.608 118.333 192.658V192.848C118.333 193.899 119.305 194.751 120.503 194.751H168.962C170.161 194.751 171.132 193.899 171.132 192.848V192.658C171.132 191.608 170.161 190.756 168.962 190.756Z" fill="#DDE3E9"/>
<path d="M151.604 197.414H120.503C119.305 197.414 118.333 198.265 118.333 199.316V199.506C118.333 200.556 119.305 201.408 120.503 201.408H151.604C152.802 201.408 153.774 200.556 153.774 199.506V199.316C153.774 198.265 152.802 197.414 151.604 197.414Z" fill="#DDE3E9"/>
<path d="M105.314 203.691C110.108 203.691 113.994 200.284 113.994 196.082C113.994 191.88 110.108 188.474 105.314 188.474C100.521 188.474 96.6353 191.88 96.6353 196.082C96.6353 200.284 100.521 203.691 105.314 203.691Z" fill="#AFB9C5"/>
<path d="M181.981 214.47H93.0189C91.4211 214.47 90.1258 215.605 90.1258 217.006V238.564C90.1258 239.964 91.4211 241.1 93.0189 241.1H181.981C183.579 241.1 184.874 239.964 184.874 238.564V217.006C184.874 215.605 183.579 214.47 181.981 214.47Z" fill="white"/>
<path d="M168.962 222.459H120.503C119.305 222.459 118.333 223.31 118.333 224.361V224.551C118.333 225.602 119.305 226.453 120.503 226.453H168.962C170.161 226.453 171.132 225.602 171.132 224.551V224.361C171.132 223.31 170.161 222.459 168.962 222.459Z" fill="#DDE3E9"/>
<path d="M151.604 229.116H120.503C119.305 229.116 118.333 229.968 118.333 231.018V231.209C118.333 232.259 119.305 233.111 120.503 233.111H151.604C152.802 233.111 153.774 232.259 153.774 231.209V231.018C153.774 229.968 152.802 229.116 151.604 229.116Z" fill="#DDE3E9"/>
<path d="M105.314 235.393C110.108 235.393 113.994 231.987 113.994 227.785C113.994 223.583 110.108 220.176 105.314 220.176C100.521 220.176 96.6353 223.583 96.6353 227.785C96.6353 231.987 100.521 235.393 105.314 235.393Z" fill="#C5CFD6"/>
<path d="M189.214 94H85.7862C82.5906 94 80 96.271 80 99.0724V280.411C80 283.212 82.5906 285.483 85.7862 285.483H189.214C192.409 285.483 195 283.212 195 280.411V99.0724C195 96.271 192.409 94 189.214 94Z" fill="#DDE3E9"/>
<path d="M137.138 273.436C143.13 273.436 147.987 269.178 147.987 263.925C147.987 258.673 143.13 254.415 137.138 254.415C131.147 254.415 126.289 258.673 126.289 263.925C126.289 269.178 131.147 273.436 137.138 273.436Z" fill="white"/>
<path d="M127.736 106.681C128.535 106.681 129.182 106.113 129.182 105.413C129.182 104.713 128.535 104.145 127.736 104.145C126.937 104.145 126.289 104.713 126.289 105.413C126.289 106.113 126.937 106.681 127.736 106.681Z" fill="white"/>
<path d="M146.541 104.145H134.245C133.446 104.145 132.799 104.712 132.799 105.413C132.799 106.113 133.446 106.681 134.245 106.681H146.541C147.34 106.681 147.987 106.113 147.987 105.413C147.987 104.712 147.34 104.145 146.541 104.145Z" fill="white"/>
<path d="M181.981 111.753H93.0189C91.4211 111.753 90.1258 112.889 90.1258 114.29V143.456C90.1258 144.857 91.4211 145.992 93.0189 145.992H181.981C183.579 145.992 184.874 144.857 184.874 143.456V114.29C184.874 112.889 183.579 111.753 181.981 111.753Z" fill="white"/>
<path d="M168.962 122.025H120.503C119.305 122.025 118.333 122.877 118.333 123.927V125.259C118.333 126.309 119.305 127.161 120.503 127.161H168.962C170.161 127.161 171.132 126.309 171.132 125.259V123.927C171.132 122.877 170.161 122.025 168.962 122.025Z" fill="#DDE3E9"/>
<path d="M151.604 130.585H120.503C119.305 130.585 118.333 131.436 118.333 132.487V133.818C118.333 134.869 119.305 135.721 120.503 135.721H151.604C152.802 135.721 153.774 134.869 153.774 133.818V132.487C153.774 131.436 152.802 130.585 151.604 130.585Z" fill="#DDE3E9"/>
<path d="M105.314 136.481C110.108 136.481 113.994 133.075 113.994 128.873C113.994 124.671 110.108 121.264 105.314 121.264C100.521 121.264 96.6353 124.671 96.6353 128.873C96.6353 133.075 100.521 136.481 105.314 136.481Z" fill="#C5CFD6"/>
<path d="M181.981 151.065H93.0189C91.4211 151.065 90.1258 152.2 90.1258 153.601V175.158C90.1258 176.559 91.4211 177.695 93.0189 177.695H181.981C183.579 177.695 184.874 176.559 184.874 175.158V153.601C184.874 152.2 183.579 151.065 181.981 151.065Z" fill="white"/>
<path d="M168.962 159.054H120.503C119.305 159.054 118.333 159.905 118.333 160.956V161.146C118.333 162.196 119.305 163.048 120.503 163.048H168.962C170.161 163.048 171.132 162.196 171.132 161.146V160.956C171.132 159.905 170.161 159.054 168.962 159.054Z" fill="#DDE3E9"/>
<path d="M151.604 165.711H120.503C119.305 165.711 118.333 166.563 118.333 167.613V167.804C118.333 168.854 119.305 169.706 120.503 169.706H151.604C152.802 169.706 153.774 168.854 153.774 167.804V167.613C153.774 166.563 152.802 165.711 151.604 165.711Z" fill="#DDE3E9"/>
<path d="M105.314 171.988C110.108 171.988 113.994 168.582 113.994 164.379C113.994 160.177 110.108 156.771 105.314 156.771C100.521 156.771 96.6353 160.177 96.6353 164.379C96.6353 168.582 100.521 171.988 105.314 171.988Z" fill="#C5CFD6"/>
<path d="M181.981 182.767H93.0189C91.4211 182.767 90.1258 183.902 90.1258 185.303V206.861C90.1258 208.262 91.4211 209.397 93.0189 209.397H181.981C183.579 209.397 184.874 208.262 184.874 206.861V185.303C184.874 183.902 183.579 182.767 181.981 182.767Z" fill="white"/>
<path d="M168.962 190.756H120.503C119.305 190.756 118.333 191.608 118.333 192.658V192.848C118.333 193.899 119.305 194.751 120.503 194.751H168.962C170.161 194.751 171.132 193.899 171.132 192.848V192.658C171.132 191.608 170.161 190.756 168.962 190.756Z" fill="#DDE3E9"/>
<path d="M151.604 197.414H120.503C119.305 197.414 118.333 198.265 118.333 199.316V199.506C118.333 200.556 119.305 201.408 120.503 201.408H151.604C152.802 201.408 153.774 200.556 153.774 199.506V199.316C153.774 198.265 152.802 197.414 151.604 197.414Z" fill="#DDE3E9"/>
<path d="M105.314 203.691C110.108 203.691 113.994 200.284 113.994 196.082C113.994 191.88 110.108 188.474 105.314 188.474C100.521 188.474 96.6353 191.88 96.6353 196.082C96.6353 200.284 100.521 203.691 105.314 203.691Z" fill="#AFB9C5"/>
<path d="M181.981 214.47H93.0189C91.4211 214.47 90.1258 215.605 90.1258 217.006V238.564C90.1258 239.964 91.4211 241.1 93.0189 241.1H181.981C183.579 241.1 184.874 239.964 184.874 238.564V217.006C184.874 215.605 183.579 214.47 181.981 214.47Z" fill="white"/>
<path d="M168.962 222.459H120.503C119.305 222.459 118.333 223.31 118.333 224.361V224.551C118.333 225.602 119.305 226.453 120.503 226.453H168.962C170.161 226.453 171.132 225.602 171.132 224.551V224.361C171.132 223.31 170.161 222.459 168.962 222.459Z" fill="#DDE3E9"/>
<path d="M151.604 229.116H120.503C119.305 229.116 118.333 229.968 118.333 231.018V231.209C118.333 232.259 119.305 233.111 120.503 233.111H151.604C152.802 233.111 153.774 232.259 153.774 231.209V231.018C153.774 229.968 152.802 229.116 151.604 229.116Z" fill="#DDE3E9"/>
<path d="M105.314 235.393C110.108 235.393 113.994 231.987 113.994 227.785C113.994 223.583 110.108 220.176 105.314 220.176C100.521 220.176 96.6353 223.583 96.6353 227.785C96.6353 231.987 100.521 235.393 105.314 235.393Z" fill="#C5CFD6"/>
<path fill-rule="evenodd" clip-rule="evenodd" d="M101.262 193.49C96.6544 188.081 93.5356 181.453 94.0568 174.025C95.5583 152.625 125.349 157.333 131.143 168.134C136.938 178.935 136.25 206.333 128.76 208.263C125.774 209.033 119.411 207.147 112.935 203.244L117 232H93L101.262 193.49Z" fill="#B28B67"/>
<path fill-rule="evenodd" clip-rule="evenodd" d="M141.776 153.16C141.279 151.413 139.942 149.918 138.14 149.474C137.704 149.366 137.252 149.323 136.803 149.341C136.642 149.347 136.596 149.394 136.521 149.281C136.465 149.198 136.464 148.993 136.441 148.895C136.369 148.59 136.28 148.288 136.169 147.994C135.792 146.992 135.159 146.105 134.395 145.357C132.967 143.959 131.037 142.994 129.032 142.82C127.934 142.724 126.845 142.903 125.807 143.26C125.27 143.444 124.749 143.675 124.242 143.929C124.089 144.006 123.594 144.381 123.441 144.356C123.271 144.33 122.931 143.909 122.793 143.803C121.092 142.498 118.991 141.985 116.872 142C114.48 142.018 112.177 142.138 110.182 143.596C109.759 143.904 109.357 144.242 108.974 144.598C108.772 144.786 108.577 144.98 108.391 145.183C108.278 145.305 108.169 145.43 108.064 145.558C107.885 145.776 107.914 145.847 107.663 145.695C106.703 145.112 105.591 144.839 104.47 144.977C103.805 145.059 103.157 145.258 102.542 145.521C102.333 145.611 101.849 145.968 101.626 145.971C101.404 145.975 100.927 145.644 100.699 145.56C99.4675 145.105 98.1404 144.993 96.8462 145.203C95.5113 145.42 94.2 145.952 93.0689 146.688C92.525 147.043 92.0503 147.435 91.6691 147.961C91.5045 148.188 91.3557 148.429 91.1691 148.64C91.0599 148.763 90.8436 148.89 90.785 149.046C90.8201 148.952 89.3251 148.376 89.184 148.339C88.4324 148.143 87.6671 148.183 86.9312 148.425C85.5472 148.88 84.3571 149.902 83.3789 150.949C82.8765 151.487 82.4369 152.081 82.0637 152.715C81.8848 153.018 81.7213 153.33 81.5717 153.649C81.4991 153.803 81.4511 153.996 81.3556 154.135C81.2324 154.315 81.1497 154.318 80.9267 154.396C79.794 154.793 78.7616 155.465 77.9753 156.372C77.18 157.29 76.664 158.421 76.4476 159.612C76.4349 159.682 76.4273 159.972 76.3862 160.01C76.3299 160.063 76.1022 160.04 76.016 160.05C75.7177 160.085 75.4214 160.137 75.1291 160.206C74.5903 160.333 74.0658 160.521 73.5696 160.767C71.6356 161.724 70.2525 163.517 69.5757 165.536C68.8654 167.655 68.878 170.082 69.7269 172.161C69.864 172.496 70.0272 172.822 70.2188 173.131C70.3365 173.32 70.3744 173.32 70.298 173.519C70.2129 173.74 70.0573 173.954 69.9562 174.17C69.6262 174.875 69.3956 175.622 69.2499 176.385C69.0108 177.637 68.8924 178.952 69.1282 180.214C69.2377 180.799 69.4284 181.372 69.7195 181.893C69.8679 182.159 70.0415 182.412 70.2376 182.645C70.3394 182.766 70.4475 182.882 70.5605 182.993C70.6252 183.056 70.71 183.111 70.765 183.182C70.8992 183.355 70.9274 183.213 70.8582 183.466C70.7614 183.82 70.542 184.169 70.4077 184.514C70.2692 184.869 70.1441 185.229 70.0297 185.592C69.7979 186.328 69.6019 187.077 69.4793 187.84C69.244 189.303 69.2853 190.862 69.9775 192.205C70.2734 192.779 70.6979 193.283 71.2128 193.675C71.4649 193.867 71.7378 194.032 72.0242 194.168C72.1714 194.238 72.3592 194.268 72.4263 194.41C72.4986 194.563 72.3913 194.867 72.3669 195.038C72.1541 196.526 72.0474 198.089 72.4898 199.547C72.8972 200.891 73.7944 202.077 74.9592 202.862C77.2188 204.385 80.2647 204.299 82.6389 203.08C83.2578 202.762 83.8368 202.367 84.3533 201.902C85.6685 203.672 88.375 203.616 90.2972 203.112C92.6921 202.483 94.6137 200.818 95.7209 198.63C97.2348 200.473 100.412 199.875 101.462 197.876C101.719 197.386 101.871 196.847 101.946 196.301C101.986 196.014 101.961 195.725 101.99 195.44C102.028 195.077 102.27 194.725 102.41 194.374C102.681 193.691 102.849 192.985 102.857 192.249C102.86 191.864 102.812 191.489 102.775 191.108C102.742 190.764 102.837 190.444 102.892 190.105C102.277 190.206 101.529 190.041 100.95 189.863C100.383 189.688 99.8507 189.228 99.4499 188.807C98.5192 187.831 97.9507 186.551 97.5619 185.278C96.7084 182.483 97.0582 179.129 99.8698 177.595C101.18 176.88 105.103 176.883 106.663 177.236C108.304 177.607 110.163 181.226 110.255 181.567C110.311 181.777 110.283 182.038 110.476 182.178C110.901 182.486 111.602 181.951 111.916 181.687C112.457 181.231 112.843 180.624 113.177 180.009C113.905 178.67 114.492 177.233 114.907 175.766C115.227 174.636 115.431 173.47 115.849 172.368C116.265 171.271 116.92 170.291 117.94 169.67C119.048 168.994 120.319 168.638 121.536 168.214C122.743 167.793 123.929 167.279 124.864 166.386C125.07 166.189 125.269 165.981 125.435 165.75C125.565 165.567 125.695 165.218 125.894 165.102C126.203 164.922 126.655 165.39 126.923 165.56C128.243 166.399 129.345 167.568 130.233 168.846C131.117 170.117 131.842 171.339 132.431 172.758C132.868 173.811 133.141 175.159 133.909 176.021C134.252 176.406 136.803 176.639 137.629 176.303C138.455 175.967 139.381 175.094 139.658 174.547C139.942 173.987 140.01 173.371 139.889 172.758C139.817 172.398 139.672 172.061 139.592 171.707C139.525 171.409 139.464 171.128 139.319 170.855C139.045 170.339 138.576 169.967 138.01 169.812C138.599 169.269 139.086 168.62 139.424 167.895C139.774 167.141 140.072 166.224 140.156 165.396C140.224 164.724 140.119 164.028 139.751 163.45C139.365 162.844 138.681 162.449 138.089 162.071C138.993 161.364 139.767 160.504 140.402 159.552C141.639 157.701 142.404 155.368 141.776 153.16Z" fill="#191847"/>
<path d="M79 512C121.526 512 156 479.093 156 438.5C156 397.907 121.526 365 79 365C36.4741 365 2 397.907 2 438.5C2 479.093 36.4741 512 79 512Z" fill="#C5CFD6"/>
<path fill-rule="evenodd" clip-rule="evenodd" d="M224.509 500.66C211.696 472.301 202.43 447.608 198.711 434.58C192.343 412.272 187.498 392.643 186.273 385.313C183.353 367.832 208.735 366.814 212.09 375.502C217.168 388.651 226.033 431.853 236.685 497.107L224.509 500.66ZM75.8883 411.663C87.6441 407.017 128.812 392.475 148.667 388.361C154.373 387.179 159.903 386.081 165.102 385.088C180.556 382.138 188.563 410.017 173.679 412.159C136.612 417.494 84.0628 423.003 79.5658 423.621C73.263 424.488 68.5002 414.584 75.8883 411.663Z" fill="#B28B67"/>
<path fill-rule="evenodd" clip-rule="evenodd" d="M174.587 377.416L111 345.047V338H118.562C180.08 353.676 211.515 363.722 212.869 368.138C212.883 368.185 212.897 368.233 212.909 368.281C212.94 368.321 212.97 368.362 213 368.403C225.192 385.17 232.493 467.027 234.889 473.156L211.528 476.641C202.591 443.503 174 420.418 174.759 380.729C174.554 379.565 174.503 378.461 174.587 377.416Z" fill="#1F28CF"/>
<path fill-rule="evenodd" clip-rule="evenodd" d="M116.283 396.64C110.465 395.476 105.107 394.436 100.523 393.632C70.9093 388.438 62.2738 372.586 67.3795 338L121.942 338C130.855 340.56 177.174 359.985 201.207 370.316C217.113 377.154 212.099 401.804 203.091 408.219C203.042 408.613 202.88 408.88 202.591 409C154.137 429.083 115.805 418.545 103 421.912L97.0771 403.228L116.283 396.64Z" fill="#2B44FF"/>
<path fill-rule="evenodd" clip-rule="evenodd" d="M79.9078 408.694C76.7331 408.997 74.4795 409.474 73.1468 410.124C71.5261 410.915 69.2926 412.338 66.4465 414.395C67.3636 416.275 75.6052 433.173 91.1715 465.089C96.1691 464.282 98.1494 462.375 97.1123 459.367C96.0753 456.359 95.2388 453.849 94.603 451.835L93.6152 423.15C93.5961 422.598 93.1333 422.166 92.5813 422.185C92.5719 422.185 92.5624 422.186 92.553 422.186L88.1404 422.464C85.633 420.434 83.9787 418.598 83.1775 416.955C82.5265 415.62 82.1666 413.514 82.0976 410.637L82.0976 410.637C82.0712 409.533 81.1546 408.659 80.0503 408.685C80.0027 408.686 79.9552 408.689 79.9078 408.694Z" fill="#E4E4E4"/>
<path fill-rule="evenodd" clip-rule="evenodd" d="M218.678 495.402C217.559 498.388 217 500.623 217 502.106C217 503.909 217.3 506.54 217.901 510C219.993 510 238.794 510 274.303 510C275.769 505.155 274.923 502.539 271.765 502.152C268.607 501.766 265.984 501.417 263.895 501.106L237.68 489.419C237.176 489.194 236.584 489.421 236.359 489.925C236.356 489.934 236.352 489.942 236.348 489.951L234.663 494.039C231.74 495.403 229.364 496.085 227.537 496.085C226.052 496.085 224.001 495.485 221.384 494.286L221.384 494.285C220.38 493.825 219.193 494.266 218.733 495.27C218.713 495.313 218.695 495.357 218.678 495.402Z" fill="#E4E4E4"/>
<path fill-rule="evenodd" clip-rule="evenodd" d="M166.882 306.123L195.21 333.758C203.452 337.273 210.205 341.156 215.47 345.404C216.654 346.832 217.943 349.568 212.372 348.344C206.802 347.12 200.888 346.082 199.841 347.894C198.794 349.705 201.879 352.481 199.944 354.852C198.654 356.432 194.316 351.405 186.93 339.77L157.473 322.403L166.882 306.123ZM41.1452 310.02L62.0426 310.102C49.1394 351.756 42.1736 373.857 41.1452 376.406C38.8312 382.14 43.7278 390.874 45.8218 395.567C39.0018 398.619 39.7285 387.317 31.1252 391.32C23.2725 394.973 17.2989 401.593 8.22628 395.994C7.11085 395.306 5.88852 392.715 8.84182 390.69C16.1996 385.645 26.8025 376.815 28.2352 373.908C30.1888 369.945 34.4922 348.649 41.1452 310.02Z" fill="#B28B67"/>
<path fill-rule="evenodd" clip-rule="evenodd" d="M100.532 222.332L109.179 220.849C124.067 258.039 150.059 291.831 187.156 322.225L159.124 356.281C122.031 313.005 99.1675 268.355 100.532 222.332Z" fill="#191847"/>
<path fill-rule="evenodd" clip-rule="evenodd" d="M62.8372 331H139.837C121.998 287.625 113.079 250.779 113.079 220.461L89.8514 217C71.5971 246.358 66.442 282.505 62.8372 331Z" fill="#DDE3E9"/>
<path fill-rule="evenodd" clip-rule="evenodd" d="M89.3597 217.016C89.3627 217.011 89.3658 217.005 89.3688 217L90.885 217C92.6992 217.062 95.4625 217.175 99.1749 217.338L104.787 233.377C105.381 252.932 108.848 292.342 115.188 351.606H64.7133C64.8456 355.699 65.0638 359.83 65.3678 364H27.8372C33.4511 300.664 53.9525 251.664 89.3412 217L89.3597 217.016V217.016Z" fill="#2F3676"/>
<path fill-rule="evenodd" clip-rule="evenodd" d="M68.0475 299.233C69.484 324.748 73.0806 342.337 78.8372 352H64.7263C64.1085 333.643 65.2156 316.054 68.0475 299.233V299.233Z" fill="black" fill-opacity="0.1"/>
<path fill-rule="evenodd" clip-rule="evenodd" d="M75.9481 321L100.837 309.429V321H75.9481Z" fill="white" fill-opacity="0.2"/>
</svg>
